<svg width="135" height="92" viewBox="0 0 135 92" fill="none" xmlns="http://www.w3.org/2000/svg">
<path d="M32.108 69.5408V74.3456C32.108 74.725 31.9813 75.6098 32.6134 75.6098C33.2434 75.4838 32.8668 74.2189 32.8668 73.7135L32.4874 69.5408C32.6134 69.1635 32.108 69.1635 32.108 69.5408Z" fill="#626B79"/>
<path d="M25.7865 23.9023C24.775 24.155 23.6375 24.2817 22.4965 24.5323C19.7182 25.1497 12.1456 26.7065 10.6112 29.0823C10.0805 30.0926 9.86126 31.2375 9.98117 32.3723C9.9762 35.078 10.1453 37.7811 10.4873 40.465C11.3812 47.2935 12.8708 58.8449 14.2806 64.1096C14.4521 65.0473 14.9437 65.8964 15.6715 66.512C17.8212 67.6502 23.3841 65.882 25.6605 65.3738C26.798 65.1211 27.9425 64.769 29.0744 64.489C30.4657 64.2184 31.8226 63.7941 33.1204 63.2241C33.1709 63.1944 33.2104 63.1491 33.2331 63.095C33.2557 63.0409 33.2602 62.9809 33.246 62.9241C33.2317 62.8672 33.1994 62.8165 33.154 62.7795C33.1085 62.7424 33.0523 62.7211 32.9937 62.7187C31.784 62.8789 30.5965 63.1757 29.4538 63.6035C28.4423 63.8569 18.706 65.8799 17.5678 66.0059C17.0624 66.0059 16.4303 66.1326 16.0509 65.7532C14.9484 65.0189 14.6782 62.6116 14.4066 61.3278C14.1406 60.0678 13.8753 58.8043 13.6485 57.6612C12.6482 52.6212 10.677 37.3059 10.614 34.7712C10.544 31.9908 10.1492 29.7669 12.2576 28.4495C14.2806 27.1846 21.2351 25.541 22.4993 25.1595C23.613 24.8807 24.7112 24.543 25.7893 24.148C26.1659 24.1515 26.0399 23.9023 25.7865 23.9023Z" fill="#626B79"/>
<path d="M61.6961 33.6316V33.1255C61.8056 32.5421 61.8479 31.9482 61.8221 31.3552C61.8221 30.9177 61.2621 30.6552 61.1921 30.5964C61.1921 30.4963 61.6737 29.7599 61.8221 29.4589C61.9488 29.2055 62.2127 28.9332 62.4654 28.5538C62.5599 28.4383 62.4038 28.3172 62.2792 28.446C61.9824 28.7526 61.6961 29.076 61.4434 29.3322C61.175 29.5809 60.9606 29.882 60.8134 30.217C60.746 30.3548 60.7109 30.5063 60.7109 30.6597C60.7109 30.8132 60.746 30.9646 60.8134 31.1025C60.9299 31.2386 61.0567 31.3654 61.1928 31.4819C61.3195 31.6086 61.3195 31.6086 61.3195 31.7346C61.3195 31.9537 61.0626 33.5945 61.0668 33.8843C61.071 34.2217 61.4462 34.3897 61.8249 34.3897C62.2504 34.4103 62.6767 34.3678 63.0898 34.2637C63.1406 34.2341 63.1805 34.1887 63.2033 34.1345C63.2262 34.0803 63.2308 34.0201 63.2165 33.963C63.2022 33.906 63.1698 33.8551 63.1241 33.818C63.0784 33.781 63.0219 33.7598 62.9631 33.7576C62.5522 33.6376 62.1226 33.5949 61.6961 33.6316Z" fill="#626B79"/>
<path d="M60.1788 56.1423C60.5024 56.1313 60.8191 56.0457 61.1042 55.8922C61.3892 55.7387 61.6351 55.5215 61.8224 55.2575C61.9491 55.1308 61.975 54.7192 61.8224 54.6275C61.4829 54.4175 61.3037 54.995 61.1924 55.1336C60.9474 55.3776 60.6421 55.5522 60.3076 55.6397C60.0528 55.7629 59.7966 56.1423 60.1788 56.1423Z" fill="#626B79"/>
<path d="M59.4193 55.381C60.7304 55.381 61.478 54.1525 60.5575 54.3695C60.1886 54.457 59.9408 54.8112 59.546 54.8756C59.1659 54.9372 58.7179 55.381 59.4193 55.381Z" fill="#626B79"/>
<path d="M70.2962 33.381C72.6986 32.751 75.4762 32.1336 77.8828 33.0016C81.8154 34.4205 82.955 38.7885 81.8028 41.0943C80.7969 42.8548 77.3186 45.6191 76.2392 47.29C75.8894 47.758 75.6799 48.3158 75.6351 48.8984C75.5904 49.4809 75.7123 50.0642 75.9865 50.58C76.2539 51.0303 76.649 51.3909 77.1218 51.6161C77.5945 51.8413 78.1235 51.921 78.6416 51.8449C78.7148 51.8186 78.7762 51.7668 78.8144 51.699C78.8527 51.6312 78.8653 51.552 78.8501 51.4757C78.8348 51.3993 78.7927 51.331 78.7313 51.2832C78.6699 51.2353 78.5934 51.2111 78.5156 51.2149C78.0119 51.1997 77.5275 51.0177 77.1384 50.6974C76.7494 50.3771 76.4776 49.9367 76.3659 49.4453C76.1349 47.4853 78.4225 46.1427 81.2974 42.8702C82.097 42.0849 82.6279 41.0669 82.8143 39.9617C83.0065 38.3714 82.6635 36.7624 81.8396 35.3886C81.0157 34.0148 79.7578 32.9546 78.2643 32.3751C75.4685 31.4014 72.7007 32.2491 70.0449 33.1339C70.045 33.1667 70.0516 33.1992 70.0643 33.2294C70.077 33.2596 70.0956 33.287 70.119 33.31C70.1424 33.3329 70.1701 33.3511 70.2005 33.3633C70.2309 33.3755 70.2634 33.3815 70.2962 33.381Z" fill="#626B79"/>
<path d="M77.3741 49.8182C77.5944 50.0969 77.8913 50.305 78.2284 50.417C78.5655 50.5289 78.9279 50.5398 79.2711 50.4482C79.6673 50.4482 80.0061 49.8182 79.0177 49.8182C78.5437 49.8071 78.0744 49.7219 77.6268 49.5655C77.5008 49.4395 77.2481 49.6922 77.3741 49.8182Z" fill="#626B79"/>
<path d="M78.1359 48.9341C78.4609 49.2054 78.855 49.3807 79.2741 49.4402C79.5268 49.4402 80.1589 49.3135 80.2856 49.0608C80.4116 48.6814 79.7795 48.8074 79.6556 48.8074C79.0515 49.009 78.3109 48.5547 78.138 48.5547C78.0064 48.5547 78.0064 48.8074 78.1359 48.9341Z" fill="#626B79"/>
<path d="M32.9934 17.7011C42.4035 14.6467 51.9871 12.1556 61.6934 10.2412C63.0808 9.96894 64.4773 9.62104 65.8661 9.35574C68.4099 8.86994 69.1183 8.78804 69.9121 8.47094C69.963 8.44133 70.0028 8.396 70.0257 8.34178C70.0486 8.28756 70.0532 8.22738 70.0389 8.1703C70.0246 8.11322 69.9922 8.06233 69.9465 8.02527C69.9007 7.98822 69.8442 7.96701 69.7854 7.96484C69.1881 7.98704 68.5947 8.07198 68.0151 8.21824C67.9451 8.23224 55.917 10.7508 55.371 10.8733C47.7495 12.469 40.2668 14.6676 32.9934 17.4484C32.7407 17.4484 32.8674 17.7011 32.9934 17.7011Z" fill="#626B79"/>
<path d="M35.0169 22.3815C35.8293 22.2736 36.6323 22.1047 37.4193 21.8761C38.9103 21.4498 50.3273 18.7345 52.0871 18.4622C52.8775 18.3916 53.6486 18.1782 54.3628 17.8322C54.3977 17.7941 54.4226 17.7479 54.4353 17.6979C54.448 17.6478 54.4481 17.5954 54.4356 17.5453C54.4231 17.4952 54.3984 17.4489 54.3638 17.4107C54.3291 17.3724 54.2854 17.3433 54.2368 17.3261C53.478 17.0734 52.5939 17.4612 51.8337 17.5788C46.9252 18.5406 42.0715 19.7636 37.2933 21.2426C36.4891 21.4047 35.719 21.7045 35.0169 22.1288C34.7642 22.1288 34.8909 22.3815 35.0169 22.3815Z" fill="#626B79"/>
<path d="M37.0405 28.1977C37.7284 28.0892 38.4054 27.9201 39.0635 27.6923C39.7248 27.4426 40.4003 27.2322 41.0865 27.0623C42.4774 26.5562 43.8683 26.1768 45.2592 25.7974C46.6501 25.418 48.0389 24.9021 49.4312 24.6599C50.1629 24.5056 50.8816 24.2949 51.5809 24.0299C52.2109 23.7765 52.9718 23.6505 53.6039 23.3999C53.6549 23.3705 53.6949 23.3253 53.7179 23.2712C53.7409 23.217 53.7456 23.1568 53.7314 23.0997C53.7172 23.0426 53.6847 22.9917 53.639 22.9547C53.5933 22.9177 53.5367 22.8966 53.4779 22.8945C50.2138 22.8945 38.1752 27.0063 36.9138 27.952C36.7871 27.945 36.9138 28.1977 37.0405 28.1977Z" fill="#626B79"/>
<path d="M38.3068 32.4969C39.0434 32.3626 39.7639 32.1514 40.4565 31.8669C44.0618 30.6098 47.7344 29.5544 51.457 28.7057C52.9739 28.3263 54.4915 28.1996 55.8824 27.5675C56.2618 27.4415 56.0084 26.9375 55.7557 26.9375C54.9816 26.9402 54.2131 27.0683 53.48 27.3169C52.7212 27.4436 51.9624 27.6963 51.2036 27.823C43.8172 29.6696 44.8728 29.573 42.4795 30.2254C40.6532 30.8337 38.7884 31.4154 38.1801 31.869C37.9253 32.1175 38.052 32.4969 38.3068 32.4969Z" fill="#626B79"/>
<path d="M56.7653 32.748C56.0065 31.4838 54.1102 32.748 52.2153 33.1274C34.8931 38.691 40.8361 34.2656 41.5942 49.1854C41.9736 51.7145 41.4829 54.9954 42.1003 57.4041C42.1657 57.6507 42.2816 57.881 42.4406 58.0806C42.5996 58.2801 42.7983 58.4445 43.0241 58.5634C43.2498 58.6823 43.4978 58.753 43.7523 58.7712C44.0068 58.7894 44.2623 58.7546 44.5027 58.669C48.947 56.947 57.7789 56.0132 55.5032 53.7375C49.8129 51.0824 48.6754 42.4843 53.6062 38.0575C55.6271 36.0359 58.6623 36.5413 56.7653 32.748Z" fill="#EBEFF3"/>
<path d="M80.788 29.9692C79.1444 23.7735 75.8572 10.75 73.3281 10.75C70.2936 11.5088 57.9792 12.29 59.2931 14.796C60.6343 17.3517 61.3161 21.1184 62.833 23.9002C63.1862 23.6006 63.6343 23.4362 64.0975 23.4362C64.5607 23.4362 65.0088 23.6006 65.3621 23.9002C65.6489 23.5606 66.0336 23.3179 66.4636 23.2051C66.8936 23.0924 67.3479 23.1151 67.7645 23.2702C68.1501 23.3866 68.4906 23.619 68.7394 23.9357C68.9883 24.2525 69.1335 24.6383 69.1554 25.0405C76.3654 26.3047 66.2476 33.2592 73.8335 30.8568C76.1099 29.8432 78.8917 31.4868 80.788 29.9692Z" fill="#EBEFF3"/>
<path d="M78.2604 59.4298C79.6387 58.7725 80.9015 58.2601 82.3064 57.6602C82.3764 57.6301 84.9594 56.4394 85.2142 56.2693C85.5346 56.1493 85.8336 55.9784 86.0997 55.7632C86.2257 55.6372 86.0997 55.2578 85.973 55.2578C85.07 55.2578 83.4341 56.3078 82.053 56.9014C80.6474 57.5013 79.3972 58.2923 78.133 58.9244C77.7543 59.1771 78.0049 59.5516 78.2604 59.4298Z" fill="#626B79"/>
<path d="M78.3862 64.2347C81.1962 63.0812 83.94 61.7725 86.6049 60.3147C87.56 59.8888 88.4533 59.3359 89.2607 58.6711C89.5134 58.4177 89.2607 58.0411 89.0073 58.165C87.8873 58.4856 86.4873 59.6154 83.5704 61.0735C81.8001 61.9583 79.9038 62.9698 78.1335 63.8553C77.8808 63.856 78.1363 64.3635 78.3862 64.2347Z" fill="#626B79"/>
<path d="M92.8005 68.0248C100.411 64.8748 114.483 57.053 118.974 55.128C119.859 54.7486 120.744 54.3692 121.503 53.9898C121.756 53.8638 121.629 53.4844 121.25 53.4844C120.473 53.6797 119.713 53.9334 118.974 54.2432C116.798 55.1756 116.486 55.2127 110.376 58.4152C94.6583 66.6549 100.039 64.0264 92.5478 67.7721C92.4211 67.7721 92.5478 68.1515 92.8005 68.0248Z" fill="#626B79"/>
<path d="M93.9401 73.0838C99.1026 70.4063 112.276 62.9772 118.598 60.4411C119.477 60.1488 120.325 59.7675 121.127 59.3029C121.379 59.1762 121.253 58.6729 121 58.7968C120.226 58.948 119.466 59.1586 118.724 59.4268C117.839 59.8062 116.959 60.0694 116.195 60.439C114.311 61.349 112.384 62.1715 110.506 63.0941C103.959 66.3092 95.261 71.5522 93.6888 72.451C93.308 72.8311 93.5607 73.2098 93.9401 73.0838Z" fill="#626B79"/>
<path d="M27.9352 13.2771C34.5852 11.6594 43.8448 8.66618 56.2586 6.19587C62.1386 5.02687 62.8449 5.15498 64.3506 4.55228C64.6033 4.42628 64.6033 4.04688 64.3506 4.04688C63.1139 4.08414 61.8847 4.25357 60.684 4.55228C48.0616 7.21718 41.5523 8.44287 27.8085 13.0223C27.6825 13.0244 27.8057 13.4017 27.9352 13.2771Z" fill="#626B79"/>
<path d="M44.8798 63.3484C47.8198 62.4839 53.1461 60.5645 54.4894 60.0584C55.5009 59.679 56.765 59.4284 57.6505 58.7935C57.7765 58.6675 57.7765 58.4141 57.5238 58.4141C56.6264 58.5142 56.4634 58.6031 51.0755 60.5638C48.9335 61.3436 46.7761 62.0814 44.7531 62.9662C44.5004 62.969 44.6264 63.3484 44.8798 63.3484Z" fill="#626B79"/>
<path d="M46.0169 67.7718C54.1852 64.8892 54.1306 65.1244 55.5005 64.6106C56.0646 64.5005 56.6155 64.3311 57.1441 64.1052C57.6674 63.9941 58.1764 63.8243 58.6617 63.5992C58.7122 63.5694 58.7517 63.5241 58.7744 63.47C58.797 63.4159 58.8016 63.356 58.7873 63.2991C58.773 63.2422 58.7408 63.1915 58.6953 63.1545C58.6498 63.1175 58.5936 63.0962 58.535 63.0938C58.0207 63.116 57.5111 63.2009 57.0174 63.3465C56.4532 63.4569 55.9023 63.6265 55.3738 63.8525C52.1691 64.7921 49.041 65.9755 46.0169 67.3925C45.7642 67.5192 45.8909 67.7718 46.0169 67.7718Z" fill="#626B79"/>
<path d="M47.4065 72.8332C48.418 72.8332 49.4295 72.3278 50.4417 72.0751C51.4532 71.6957 52.4647 71.4451 53.4762 71.0636C54.0691 70.841 57.2527 69.6412 57.7749 69.2933C58.2765 69.1173 58.7462 68.861 59.1658 68.5345C59.2925 68.4078 59.1658 68.2818 59.0398 68.2818C58.5492 68.2714 58.0662 68.4032 57.6489 68.6612C56.9762 68.8292 51.8501 70.9054 50.315 71.3163C49.8117 71.4514 49.3035 71.6957 48.9241 71.8217C48.3973 71.9772 47.8885 72.1884 47.4065 72.4517C47.1552 72.4538 47.2819 72.8332 47.4065 72.8332Z" fill="#626B79"/>
<path d="M65.11 57.7828C65.6154 58.0362 67.3857 57.7828 67.3857 57.2774C67.3857 56.898 67.0063 57.024 66.7557 57.024C64.9497 57.4755 65.1457 57.1171 64.8594 57.4034C64.8573 57.6596 64.9833 57.7828 65.11 57.7828Z" fill="#626B79"/>
<path d="M70.5473 56.3945C71.0218 56.3118 71.4875 56.1847 71.9382 56.0151C72.0649 55.8891 72.697 55.6364 72.697 55.3851C72.5703 54.8797 70.8 55.7645 70.5473 55.8912C70.2967 55.8926 70.2967 56.3945 70.5473 56.3945Z" fill="#626B79"/>
<path d="M133.389 67.6473C130.734 68.0267 126.561 68.2773 125.802 64.9915C125.549 63.98 125.929 63.2212 126.308 62.3364C126.817 61.2135 127.453 60.1528 128.205 59.1752C128.835 58.2904 129.451 57.3923 130.102 56.5201C133.168 52.4076 129.262 48.8047 124.159 49.0602C121.25 49.1862 118.469 50.3244 115.94 51.4619C112.004 53.1027 106.679 55.0123 97.4795 59.4279C92.8791 61.6819 79.1164 68.775 74.8513 71.6625C74.7884 71.3387 74.7444 71.0115 74.7197 70.6825C74.593 70.1764 74.593 69.5443 74.467 68.9122C73.1552 58.4206 73.8748 60.0425 73.3624 54.362C73.6757 54.1981 73.9626 53.9881 74.2136 53.739C74.6931 53.2595 74.7162 51.8616 74.8436 51.0839C75.2967 47.5593 75.4321 44.0011 75.2482 40.4523C76.3743 40.3316 77.4748 40.0364 78.5102 39.5773C79.0436 39.3568 80.8741 38.7695 81.292 37.9337C81.418 37.681 81.1653 37.5543 80.9126 37.5543C80.5409 37.5543 79.7226 38.4503 78.1308 38.9452C77.1338 39.261 76.1592 39.6438 75.2139 40.0911C75.116 38.2107 74.4578 36.4025 73.3239 34.8992C73.1972 34.7725 72.9445 34.8992 73.0712 35.1519C74.7148 37.681 74.5251 40.9661 74.4621 43.8767C74.4103 46.2378 73.8412 51.1399 73.8321 51.2106C73.7236 51.9215 73.6814 52.6409 73.7061 53.3596C73.0122 53.5569 72.3356 53.8106 71.6831 54.1184C70.9243 54.3711 70.0388 54.6245 69.2807 54.8772C67.5779 55.3046 65.8447 55.6004 64.0965 55.762C64.0462 55.762 63.9979 55.782 63.9623 55.8176C63.9268 55.8531 63.9068 55.9014 63.9068 55.9517C63.9068 56.002 63.9268 56.0503 63.9623 56.0858C63.9979 56.1214 64.0462 56.1414 64.0965 56.1414C65.8576 56.159 67.6162 56.0024 69.3465 55.6738C69.6161 56.5394 69.5462 57.4751 69.1512 58.2911C69.0252 58.6705 68.5212 58.7972 68.1397 59.0492C67.5097 59.3026 66.7488 59.6792 66.1167 59.9347C65.864 60.0614 65.99 60.4408 66.2427 60.3141C66.5724 60.2042 66.9077 60.095 67.2451 59.9823C66.1939 63.8777 65.8544 67.9307 66.2427 71.9467C66.3694 72.5767 66.3694 73.2109 66.4961 73.8437C66.5836 74.2805 66.6102 74.8391 66.7446 75.2675C66.46 75.3728 66.1647 75.4465 65.864 75.4873C65.3579 75.6133 64.7258 75.4873 64.5991 74.9812C63.4785 70.8201 62.9689 66.5182 63.0864 62.2104C63.0864 59.5252 63.2915 61.5216 63.2124 57.2789C63.2124 57.1263 62.9275 57.1501 62.8883 57.2957C62.7616 58.0538 62.707 58.7965 62.5803 59.5546C62.4536 60.3127 62.4536 61.1982 62.3276 62.0837C62.1139 65.4266 62.3256 68.7831 62.9576 72.0727C63.0843 72.8308 63.337 73.7163 63.4637 74.4744C63.5092 74.6585 63.5386 74.8587 63.5813 75.0568C63.2047 75.1156 61.314 75.3599 60.6819 75.4866C60.4994 75.4633 60.3143 75.5 60.1546 75.5911C59.9948 75.6823 59.8691 75.823 59.7964 75.992C59.5437 76.622 60.3025 76.8775 60.8079 77.1302C61.6405 77.3472 62.4849 77.5162 63.337 77.6363C63.9976 77.8038 64.6837 77.8465 65.36 77.7623C65.7822 77.6967 66.1745 77.5044 66.485 77.2109C66.7955 76.9174 67.0095 76.5365 67.0988 76.1187C67.2956 75.97 67.4757 75.8003 67.6357 75.6126C67.9381 75.0085 67.0057 72.7755 67.0057 67.6473C67.0671 65.0221 67.3144 62.4046 67.7456 59.8143C68.3413 59.6113 68.9356 59.3943 69.5131 59.1542C69.3254 61.6547 69.4602 64.169 69.9142 66.6351C70.5442 70.231 70.6891 70.9618 71.0482 71.9803C70.5691 71.7806 70.0537 71.6829 69.5348 71.6933C69.2821 71.6933 68.9048 71.82 68.9048 72.1987C68.9048 72.5774 69.2842 72.8287 69.5348 73.0842C70.0656 73.6136 70.657 74.0786 71.2967 74.4695C66.725 78.5379 66.3729 80.2452 63.9712 82.9465C62.036 85.0395 59.4527 86.4203 56.6373 86.8665C53.7407 87.4384 50.7492 87.3083 47.9132 86.4871C45.0047 85.6016 43.1084 83.1971 41.4648 80.6708C38.0448 75.1503 35.9261 68.9238 35.2691 62.4631C35.0157 59.0485 34.8897 55.5086 34.5103 52.0947C33.2881 41.0984 32.8401 38.9991 31.2203 31.9907C29.9176 26.7792 27.7203 19.2696 23.6337 15.806C21.2214 13.7817 18.1686 12.6798 15.0195 12.6966C35.2964 7.4767 32.0365 7.8988 52.2126 3.4139C65.3152 0.879202 68.4953 -0.307298 73.9609 3.6673C77.1221 5.943 79.3978 9.3569 80.9154 12.7715C84.456 20.9895 84.0766 30.2197 85.2141 38.9445C86.0996 45.5196 87.8699 52.4741 92.4241 57.5316L94.3211 59.4279C94.7005 59.6813 95.2059 59.3019 94.8265 58.9225C89.769 54.1177 87.4933 47.1625 86.4818 40.3354C85.0909 31.6113 85.723 22.6331 82.5618 14.1617C80.1594 7.4606 74.5958 0.1267 66.7565 0C64.9273 0.0222796 63.1054 0.2334 61.3196 0.630001C57.8896 1.0871 45.0845 3.8577 41.7196 4.676C28.8242 7.721 11.3998 12.8765 9.09958 14.0329C6.69718 15.2971 4.49778 17.3138 4.16808 20.1019C3.99534 21.3918 4.31119 22.6996 5.05358 23.7685C5.17957 24.0219 5.55898 23.8952 5.43298 23.7685C3.78938 21.1134 5.30628 17.8262 7.58198 16.0559C11.4033 12.9514 17.963 12.8093 22.1231 15.9292C23.4156 16.8888 24.5236 18.0746 25.3935 19.4292C22.1119 20.1586 18.8296 20.8929 15.548 21.7434C13.9044 22.1228 7.32928 24.0198 7.07797 24.1458C6.61656 24.2343 6.1775 24.4142 5.78658 24.6748C5.39566 24.9354 5.06077 25.2715 4.80158 25.6634C2.39638 29.2082 0.877375 41.2209 1.00338 46.1517C1.24138 54.4761 3.78868 64.253 9.47338 70.6818C10.1491 71.5939 11.0698 72.2954 12.1285 72.7048C13.2653 73.102 14.4874 73.1892 15.6691 72.9575C17.7411 72.842 31.9728 69.0585 34.9807 68.096C35.8365 71.7128 37.1461 75.2069 38.8783 78.4952C34.0343 80.0352 28.8396 79.9092 23.8878 79.7853C23.2578 79.7853 20.8533 79.6593 20.4739 79.2799C19.9678 78.9005 20.4739 78.2677 20.8533 78.0157C23.7611 75.7393 27.3017 74.8538 30.8423 73.843C30.9683 73.843 31.2217 73.7163 31.095 73.5896C31.095 73.4636 30.9683 73.4636 30.8423 73.4636C27.3384 73.7537 23.9556 74.882 20.9793 76.7536C20.5592 76.9794 20.201 77.3051 19.9365 77.7019C19.672 78.0988 19.5091 78.5546 19.4624 79.0293C19.4841 79.6684 19.5688 80.3038 19.7151 80.9263C19.8511 81.5405 20.2119 82.0815 20.7266 82.4432C23.3439 83.9587 35.0969 83.2958 40.5303 81.4905C43.688 86.6656 46.8303 88.6725 53.8548 88.5129C57.2791 88.5075 60.6074 87.3812 63.3314 85.3062C65.7912 83.916 79.885 77.3458 83.5684 75.3662C83.8211 75.2395 83.6951 74.8601 83.4417 74.9868C81.9248 75.6168 80.4072 76.251 78.8917 77.0098C78.7517 77.0798 65.3152 83.5443 64.9197 83.7438C67.1359 81.2357 69.3493 77.3969 74.5923 73.5938C77.1081 71.7738 79.5756 70.0833 82.685 69.8005C83.9492 69.6745 85.3401 70.0539 85.7195 71.3181C87.0495 74.9693 83.3038 79.814 83.6965 84.721C83.7189 86.0653 84.156 87.3699 84.9482 88.4563C85.7403 89.5426 86.8488 90.3577 88.1219 90.79C90.777 91.9282 93.8115 91.5488 96.3406 90.5373C97.7734 89.9532 99.1672 89.2775 100.513 88.5143C100.569 88.4851 100.618 88.4429 100.654 88.3912C100.691 88.3396 100.715 88.28 100.724 88.2174C100.733 88.1547 100.727 88.0909 100.706 88.031C100.686 87.9711 100.651 87.917 100.606 87.8731C102.117 85.6772 104.225 84.3136 106.456 82.9507C114.549 78.1907 129.217 73.5007 133.896 68.1569C134.094 67.9532 134.066 67.6473 133.389 67.6473ZM18.8324 71.3139C16.8087 71.6933 14.0276 72.0727 12.7627 70.3024C10.3603 66.8885 6.18758 30.0937 6.18758 28.5761C6.18758 27.5646 6.18758 26.1737 6.69368 25.4156C7.19978 24.6575 20.3717 21.3199 23.5105 20.3574C24.1755 20.1537 24.9266 19.9178 25.6105 19.7806C28.5561 24.5091 31.1062 35.5614 32.1072 41.3469C34.2023 53.4569 33.2916 60.0607 34.7896 67.2238C29.5794 68.9814 24.2456 70.3485 18.8324 71.3139ZM72.5322 73.4097C72.4041 72.653 71.1504 68.7526 70.9264 66.5091C70.4245 63.9989 70.1711 61.488 69.9205 58.9778C70.2222 58.842 70.5134 58.6929 70.7997 58.5431C71.119 58.4211 71.4177 58.2506 71.6852 58.0377C71.6852 57.7843 71.6852 57.4077 71.3058 57.4077H71.1791C70.7683 57.5851 70.3743 57.799 70.0017 58.0468C70.1493 57.2167 70.0495 56.3615 69.7147 55.5877C70.5144 55.4101 71.2999 55.1733 72.0646 54.8793C72.3866 54.7715 72.7093 54.6637 73.0222 54.5293C72.9021 55.5698 72.8358 56.6158 72.8234 57.6632C72.8234 62.4596 72.7674 62.2832 73.0761 65.3758C73.2497 66.7695 73.8048 71.6849 73.9756 72.2862C73.4828 72.6441 73.0016 73.0186 72.5322 73.4097ZM130.481 69.923C124.646 74.2973 113.831 77.553 106.456 82.1877C104.325 83.6087 101.406 85.3601 100.378 87.7114C100.337 87.6996 100.294 87.697 100.252 87.7039C100.21 87.7108 100.17 87.727 100.135 87.7513C98.696 88.5252 97.1679 89.1197 95.5846 89.5216C91.4728 91.0161 86.3257 89.9906 85.2162 86.1077C84.3314 83.1992 85.5956 80.038 86.4811 77.2569C87.2392 74.8538 88.2514 70.6818 85.4689 68.9115C84.2352 68.3289 82.8343 68.2048 81.5174 68.5615C100.989 58.0188 108.9 55.4834 114.298 53.2315C117.96 51.6621 122.751 49.1575 126.563 50.197C127.827 50.5764 129.242 51.1973 129.853 52.4734C130.807 54.4719 129.198 56.0091 127.198 59.0478C126.099 60.718 124.543 62.8411 124.922 64.9908C125.062 65.8588 125.464 66.6632 126.074 67.2961C126.685 67.929 127.474 68.36 128.336 68.5314C129.7 68.7967 131.105 68.7777 132.461 68.4754C131.798 68.9353 131.14 69.4288 130.481 69.923Z" fill="#626B79"/>
<path d="M68.1435 26.0466C68.2002 25.6868 68.1323 25.3185 67.951 25.0025C67.7698 24.6866 67.4861 24.442 67.1469 24.3092C66.8078 24.1764 66.4334 24.1635 66.0859 24.2724C65.7383 24.3814 65.4384 24.6058 65.2357 24.9084C62.8326 22.3793 59.5454 28.4483 64.4769 28.3223C64.3502 28.7017 64.2235 29.9659 65.2357 29.8399C65.3617 30.0926 64.4769 31.8629 65.3617 31.4835C65.4884 31.4835 65.9917 30.8535 66.7526 30.8535C66.8207 30.8469 66.8893 30.8554 66.9537 30.8785C67.0181 30.9015 67.0765 30.9385 67.1249 30.9868C67.1733 31.0351 67.2104 31.0936 67.2335 31.1579C67.2566 31.2222 67.2653 31.2909 67.2587 31.3589C67.2587 31.865 66.7526 32.1177 66.3732 32.2437H65.8678C65.8021 32.2481 65.7402 32.2763 65.6936 32.3229C65.647 32.3694 65.6189 32.4314 65.6144 32.4971C65.4884 32.7498 65.7411 32.8765 65.9938 33.0025C66.4887 33.2503 67.2986 32.6035 67.5114 32.4971L67.8908 32.1177H68.1435C68.0917 32.4423 68.1031 32.7739 68.1771 33.0942C67.0555 33.309 65.9764 33.7053 64.9823 34.2674C64.6071 34.5173 63.9855 34.8911 63.849 35.2663C62.8414 35.2534 61.8444 35.4741 60.9363 35.911C59.9817 36.2694 59.0523 36.6918 58.1545 37.1752C56.436 38.1244 54.93 39.4154 53.7291 40.9685C53.2041 41.6685 53.3714 41.6125 53.223 41.5985C53.1833 41.5988 53.1446 41.6114 53.1124 41.6346C53.0801 41.6578 53.0559 41.6904 53.0429 41.728C53.03 41.7656 53.0291 41.8062 53.0403 41.8444C53.0515 41.8825 53.0743 41.9162 53.1054 41.9408C51.3463 45.1685 51.7754 48.9898 54.7406 51.4608C56.7706 53.4908 58.1706 53.4845 60.6836 53.4845C60.9363 53.4845 60.8096 53.1051 60.6836 53.1051C59.8249 52.9641 58.9791 52.7534 58.1545 52.4751C57.2937 52.2044 56.5124 51.7268 55.8788 51.0842C55.1601 50.5643 54.5542 49.9041 54.0977 49.1435C53.6412 48.3829 53.3437 47.5376 53.223 46.6588C53.0762 45.1162 53.413 43.5661 54.1869 42.2236C57.7436 43.1392 57.8381 43.3233 60.4827 45.0467C60.0909 45.4611 59.7931 45.9552 59.6096 46.4952C59.4261 47.0352 59.3612 47.6084 59.4194 48.1757C59.4194 49.5666 60.5569 49.946 61.5684 50.3254C62.1542 50.5367 62.6676 50.9106 63.0484 51.4033C63.4291 51.896 63.6615 52.4871 63.7181 53.1072C63.7181 54.4953 63.0447 55.0672 61.9478 55.889C61.924 55.9204 61.9082 55.9571 61.9018 55.996C61.8954 56.0349 61.8986 56.0748 61.911 56.1122C61.9235 56.1495 61.9449 56.1833 61.9734 56.2105C62.0019 56.2378 62.0366 56.2576 62.0745 56.2684C63.212 56.2684 64.0975 55.0042 64.3502 53.992C64.7751 52.081 63.3933 49.9824 61.9478 49.6933C61.1197 49.2789 59.6217 49.1851 60.0515 47.0382C60.1853 46.4009 60.4377 45.7944 60.7956 45.2504C61.0824 45.4465 61.383 45.6215 61.6951 45.774C61.8211 45.774 61.9478 45.774 61.9478 45.6473C62.6359 44.9592 64.4405 43.0405 64.8416 42.1571C64.9676 41.8771 64.864 41.8967 64.6029 41.9807C63.9211 42.2005 62.2313 44.5756 61.9478 45.1419C61.8134 44.8731 61.8435 44.9319 60.1775 43.8777C58.4598 42.7486 56.5117 42.0171 54.4753 41.7364C55.4947 40.2326 56.8377 38.976 58.4058 38.0586C62.4518 35.5799 63.9743 35.6786 64.2942 35.4868C64.8206 35.1676 68.0658 33.2146 69.4042 33.8859C69.7836 33.8859 70.0342 33.5065 69.6576 33.2559C69.4327 33.1471 69.1898 33.0803 68.9408 33.0585C69.1349 32.0389 69.2477 31.0055 69.2782 29.968C71.4202 29.0503 71.3145 25.3417 68.1435 26.0466ZM63.212 25.6672L62.7066 26.1726C62.7066 26.2979 62.5141 26.5562 62.4532 26.2993C62.4444 25.9853 62.5329 25.6762 62.7066 25.4145C62.9593 25.0351 63.212 24.7845 63.5914 24.7845C63.7181 24.7845 63.9708 24.7845 63.9708 25.0379C63.9708 25.3109 63.3793 25.4999 63.212 25.6672ZM66.8793 25.0372H66.3753C66.2486 25.1632 65.6165 24.5311 66.8814 24.5311C67.5114 24.5304 67.8908 25.4145 66.8793 25.0351V25.0372Z" fill="#626B79"/>
<path d="M63.5145 29.3221C63.7245 29.0421 63.3598 28.8538 63.1603 29.0953C62.9608 29.3368 62.9125 29.4082 62.7872 29.5713C62.6619 29.7344 62.9391 29.9703 63.1442 29.7533C63.3493 29.5363 63.5145 29.3221 63.5145 29.3221Z" fill="#626B79"/>
</svg>
