<svg width="1400" height="727" viewBox="0 0 1400 727" fill="none" xmlns="http://www.w3.org/2000/svg">
<g clip-path="url(#clip0_1598_205637)">
<path d="M1425 -1H-25V727.656H1425V-1Z" fill="url(#paint0_linear_1598_205637)"/>
<path opacity="0.14" d="M1251.96 310.559C1292.4 310.559 1325.17 277.617 1325.17 236.981C1325.17 196.345 1292.4 163.402 1251.96 163.402C1211.53 163.402 1178.76 196.345 1178.76 236.981C1178.76 277.617 1211.53 310.559 1251.96 310.559Z" fill="#FFE600"/>
<path d="M1251.96 280.297C1275.77 280.297 1295.06 260.905 1295.06 236.983C1295.06 213.062 1275.77 193.67 1251.96 193.67C1228.16 193.67 1208.87 213.062 1208.87 236.983C1208.87 260.905 1228.16 280.297 1251.96 280.297Z" fill="#FFD066"/>
<path d="M70.702 413.848H-25V627.585H70.702V413.848Z" fill="#FB8B81"/>
<path d="M151.899 238.969H84.2314V627.585H151.899V238.969Z" fill="#FB8B81"/>
<path d="M306.565 485.74H151.899V627.586H306.565V485.74Z" fill="#FB8B81"/>
<path d="M107.436 464.369H41.7012V627.586H107.436V464.369Z" fill="#FB8B81"/>
<path d="M405.165 254.516H359.731V627.584H405.165V254.516Z" fill="#FB8B81"/>
<path d="M323.002 550.834H299.802V627.585H323.002V550.834Z" fill="#FB8B81"/>
<path d="M478.633 391.502H418.699V627.585H478.633V391.502Z" fill="#FB8B81"/>
<path d="M524.067 464.369H478.634V627.586H524.067V464.369Z" fill="#FB8B81"/>
<path d="M425.466 413.848H384.867V627.585H425.466V413.848Z" fill="#FB8B81"/>
<path d="M630.008 528.561H569.112V627.584H630.008V528.561Z" fill="#FB8B81"/>
<path d="M744.55 464.369H648.856V627.586H744.55V464.369Z" fill="#FB8B81"/>
<path d="M828.646 500.873H759.051V627.584H828.646V500.873Z" fill="#FB8B81"/>
<path d="M775 572.279H524.066V627.585H775V572.279Z" fill="#FB8B81"/>
<path d="M577.808 545.975H524.066V572.28H577.808V545.975Z" fill="#FB8B81"/>
<path d="M733.679 438.137H659.732V464.368H733.679V438.137Z" fill="#FB8B81"/>
<path d="M248.685 394.496H174.738V485.739H248.685V394.496Z" fill="#FB8B81"/>
<path d="M896.797 368.182H810.395V627.584H896.797V368.182Z" fill="#FB8B81"/>
<path d="M1047.59 429.43H896.796V627.585H1047.59V429.43Z" fill="#FB8B81"/>
<path d="M1125.89 500.873H1059.19V627.584H1125.89V500.873Z" fill="#FB8B81"/>
<path d="M1199.83 263.258H1120.09V627.586H1199.83V263.258Z" fill="#FB8B81"/>
<path d="M1073.69 528.561H1021.5V627.584H1073.69V528.561Z" fill="#FB8B81"/>
<path d="M1279.58 318.719H1207.08V627.585H1279.58V318.719Z" fill="#FB8B81"/>
<path d="M1425 401.781H1279.58V627.585H1425V401.781Z" fill="#FB8B81"/>
<path d="M1220.14 441.049H1188.24V627.585H1220.14V441.049Z" fill="#FB8B81"/>
<path d="M1425 247.271H1332.2V401.783H1425V247.271Z" fill="#FB8B81"/>
<path d="M1332.2 286.578H1300.3V401.783H1332.2V286.578Z" fill="#FB8B81"/>
<path d="M1255.83 303.094H1207.08V318.724H1255.83V303.094Z" fill="#FB8B81"/>
<path d="M1255.83 247.271H1207.08V303.09H1255.83V247.271Z" fill="#FB8B81"/>
<path d="M1199.83 246.006H1150.95V263.262H1199.83V246.006Z" fill="#FB8B81"/>
<path d="M1047.59 316.693H963.902V429.43H1047.59V316.693Z" fill="#FB8B81"/>
<path d="M1092.54 467.357H1059.19V500.874H1092.54V467.357Z" fill="#FB8B81"/>
<path d="M883.458 363.328H810.395V371.143H883.458V363.328Z" fill="#FB8B81"/>
<path d="M828.646 441.049H770.565V500.875H828.646V441.049Z" fill="#FB8B81"/>
<path d="M617.836 506.143H569.112V528.562H617.836V506.143Z" fill="#FB8B81"/>
<path d="M455.916 354.584H418.699V394.903H455.916V354.584Z" fill="#FB8B81"/>
<path d="M233.458 322.564H151.577V394.5H233.458V322.564Z" fill="#FB8B81"/>
<path d="M40.4783 377.902H-25V413.848H40.4783V377.902Z" fill="#FB8B81"/>
<path d="M966.408 316.694L1004.46 212.416L1042.5 316.694H966.408Z" fill="#FB8B81"/>
<path d="M1425 471.771H1333.17V727.653H1425V471.771Z" fill="#C3588E"/>
<path d="M1319.63 278.898H1251.97V727.658H1319.63V278.898Z" fill="#C3588E"/>
<path d="M1251.96 557.84H1097.3V727.655H1251.96V557.84Z" fill="#C3588E"/>
<path d="M1362.17 532.252H1296.43V727.655H1362.17V532.252Z" fill="#C3588E"/>
<path d="M1089.57 397.332H998.699V727.652H1089.57V397.332Z" fill="#C3588E"/>
<path d="M1104.07 635.77H1080.87V727.656H1104.07V635.77Z" fill="#C3588E"/>
<path d="M985.164 397.332H925.23V727.652H985.164V397.332Z" fill="#C3588E"/>
<path d="M925.235 532.252H879.802V727.655H925.235V532.252Z" fill="#C3588E"/>
<path d="M1019 471.771H978.398V727.653H1019V471.771Z" fill="#C3588E"/>
<path d="M834.756 609.107H773.86V727.655H834.756V609.107Z" fill="#C3588E"/>
<path d="M755.008 532.252H659.314V727.655H755.008V532.252Z" fill="#C3588E"/>
<path d="M644.815 575.961H575.22V727.656H644.815V575.961Z" fill="#C3588E"/>
<path d="M879.799 661.445H628.865V727.656H879.799V661.445Z" fill="#C3588E"/>
<path d="M879.802 629.955H826.057V661.446H879.802V629.955Z" fill="#C3588E"/>
<path d="M744.136 448.607H670.189V532.252H744.136V448.607Z" fill="#C3588E"/>
<path d="M1229.13 448.607H1155.18V557.841H1229.13V448.607Z" fill="#C3588E"/>
<path d="M575.219 418.791H507.068V727.657H575.219V418.791Z" fill="#C3588E"/>
<path d="M507.069 490.432H356.276V727.658H507.069V490.432Z" fill="#C3588E"/>
<path d="M344.674 575.961H277.978V727.656H344.674V575.961Z" fill="#C3588E"/>
<path d="M283.783 291.49H204.035V727.654H283.783V291.49Z" fill="#C3588E"/>
<path d="M382.375 609.107H330.179V727.655H382.375V609.107Z" fill="#C3588E"/>
<path d="M196.784 357.887H124.286V727.652H196.784V357.887Z" fill="#C3588E"/>
<path d="M124.287 457.332H-25V727.657H124.287V457.332Z" fill="#C3588E"/>
<path d="M215.632 504.34H183.732V727.657H215.632V504.34Z" fill="#C3588E"/>
<path d="M71.6642 272.352H1.79492V457.328H71.6642V272.352Z" fill="#C3588E"/>
<path d="M103.568 272.352H71.6689V457.328H103.568V272.352Z" fill="#C3588E"/>
<path d="M41.6972 257.76H1.79492V272.351H41.6972V257.76Z" fill="#C3588E"/>
<path d="M172.41 339.18H123.66V357.887H172.41V339.18Z" fill="#C3588E"/>
<path d="M439.967 448.607H356.276V490.43H439.967V448.607Z" fill="#C3588E"/>
<path d="M344.674 535.834H311.325V575.961H344.674V535.834Z" fill="#C3588E"/>
<path d="M633.3 504.34H575.22V575.962H633.3V504.34Z" fill="#C3588E"/>
<path d="M834.756 582.266H786.032V609.11H834.756V582.266Z" fill="#C3588E"/>
<path d="M1055.05 377.559H1001.88V397.331H1055.05V377.559Z" fill="#C3588E"/>
<path d="M1213.91 362.49H1170.41V448.608H1213.91V362.49Z" fill="#C3588E"/>
<path d="M1425 428.736H1362.17V471.771H1425V428.736Z" fill="#C3588E"/>
<path d="M66.8332 513.914H-25V727.651H66.8332V513.914Z" fill="#994C76"/>
<path d="M148.034 379.844H80.3672V727.655H148.034V379.844Z" fill="#994C76"/>
<path d="M302.701 585.809H148.035V727.654H302.701V585.809Z" fill="#994C76"/>
<path d="M103.567 564.434H37.832V727.651H103.567V564.434Z" fill="#994C76"/>
<path d="M401.301 354.582H310.434V727.651H401.301V354.582Z" fill="#994C76"/>
<path d="M407.098 346.162H304.633V354.581H407.098V346.162Z" fill="#994C76"/>
<path d="M310.49 346.163L355.867 284.633L401.24 346.163H310.49Z" fill="#994C76"/>
<path d="M319.133 650.902H295.934V727.654H319.133V650.902Z" fill="#994C76"/>
<path d="M474.769 451.736H414.835V727.655H474.769V451.736Z" fill="#994C76"/>
<path d="M520.198 564.434H474.765V727.651H520.198V564.434Z" fill="#994C76"/>
<path d="M421.598 513.914H380.999V727.651H421.598V513.914Z" fill="#994C76"/>
<path d="M626.14 628.633H565.244V727.656H626.14V628.633Z" fill="#994C76"/>
<path d="M740.685 564.434H644.992V727.651H740.685V564.434Z" fill="#994C76"/>
<path d="M824.782 600.945H755.187V727.656H824.782V600.945Z" fill="#994C76"/>
<path d="M771.132 672.35H520.198V727.655H771.132V672.35Z" fill="#994C76"/>
<path d="M573.939 646.043H520.198V672.348H573.939V646.043Z" fill="#994C76"/>
<path d="M729.81 494.566H655.863V564.437H729.81V494.566Z" fill="#994C76"/>
<path d="M244.816 494.566H170.869V585.809H244.816V494.566Z" fill="#994C76"/>
<path d="M892.931 430.447H824.78V727.656H892.931V430.447Z" fill="#994C76"/>
<path d="M1043.72 529.498H892.932V727.653H1043.72V529.498Z" fill="#994C76"/>
<path d="M1122.02 600.945H1055.33V727.656H1122.02V600.945Z" fill="#994C76"/>
<path d="M1195.97 363.328H1116.22V727.656H1195.97V363.328Z" fill="#994C76"/>
<path d="M1177.12 331.354H1116.22V363.327H1177.12V331.354Z" fill="#994C76"/>
<path d="M1069.82 628.633H1017.63V727.656H1069.82V628.633Z" fill="#994C76"/>
<path d="M1275.71 418.791H1203.22V727.657H1275.71V418.791Z" fill="#994C76"/>
<path d="M1425 501.852H1275.71V727.655H1425V501.852Z" fill="#994C76"/>
<path d="M1216.27 541.117H1184.37V727.654H1216.27V541.117Z" fill="#994C76"/>
<path d="M1398.2 347.34H1328.33V501.851H1398.2V347.34Z" fill="#994C76"/>
<path d="M1328.33 386.643H1296.43V501.848H1328.33V386.643Z" fill="#994C76"/>
<path d="M1398.2 335.152H1358.3V347.34H1398.2V335.152Z" fill="#994C76"/>
<path d="M1251.97 403.16H1203.22V418.79H1251.97V403.16Z" fill="#994C76"/>
<path d="M1251.97 347.34H1216.27V403.158H1251.97V347.34Z" fill="#994C76"/>
<path d="M1133.39 314.104H1116.22V331.355H1133.39V314.104Z" fill="#994C76"/>
<path d="M1043.72 494.566H960.033V529.5H1043.72V494.566Z" fill="#994C76"/>
<path d="M1088.67 567.43H1055.33V600.946H1088.67V567.43Z" fill="#994C76"/>
<path d="M895.386 422.631H822.322V430.446H895.386V422.631Z" fill="#994C76"/>
<path d="M824.781 541.117H766.701V600.943H824.781V541.117Z" fill="#994C76"/>
<path d="M613.968 606.211H565.244V628.63H613.968V606.211Z" fill="#994C76"/>
<path d="M474.765 435.219H421.599V451.736H474.765V435.219Z" fill="#994C76"/>
<path d="M229.593 422.631H186.092V494.566H229.593V422.631Z" fill="#994C76"/>
<path d="M37.8323 477.969H-25V513.915H37.8323V477.969Z" fill="#994C76"/>
<g opacity="0.32">
<path d="M1169.88 122.48C1171.08 112.405 1166.37 106.333 1156.35 106.333C1154.34 106.333 1153.43 106.667 1150.92 107.789C1147.73 109.219 1144.83 109.632 1144.83 109.632C1144.83 109.236 1144.32 106.693 1143.74 104.707C1142.31 99.8127 1141.82 97.935 1136.31 95.4183C1133.3 93.4015 1127.45 93.4363 1123.44 93.4363C1113.87 93.4363 1111.75 97.3004 1104.74 102.338C1102.73 92.7669 1096.55 83.5001 1090.9 81.1834C1082.37 77.6844 1072.66 76.1457 1063.15 77.6583C1044.61 80.6792 1026.64 98.813 1032.58 117.951C1024.56 108.38 1008.53 105.328 997.503 110.366C984.474 116.912 981.989 127.018 984.974 140.114C975.178 137.749 967.836 142.47 966.774 150.663H1227.73C1230.35 130.443 1183.87 120.733 1169.88 122.489L1169.88 122.48Z" fill="white"/>
</g>
<g opacity="0.32">
<path d="M726.69 95.2817C728.944 79.3298 720.41 72.5101 705.47 73.4446C705.47 60.7788 698.934 52.868 685.865 47.7043C678.397 43.9489 666.229 46.1917 659.854 50.1036C659.854 43.0666 653.657 38.2549 646.655 37.7855C635.453 36.8467 632.259 42.1755 628.451 48.5389C625.183 43.7446 619.116 39.6632 613.981 40.1327C611.178 40.6021 606.844 40.6021 604.046 43.4186C601.208 46.2743 596.473 54.7936 596.473 54.7936C596.473 54.7936 586.442 51.864 581.307 50.9251C572.904 49.0474 564.97 49.0474 556.567 50.4557C532.292 54.2111 509.645 72.5058 515.489 97.3724C499.892 92.7476 489.348 94.5558 484.683 109.569C484.082 111.729 483.751 113.924 483.673 116.102H774.082C772.768 97.268 742.748 86.0061 726.699 95.2773L726.69 95.2817Z" fill="white"/>
</g>
</g>
<defs>
<linearGradient id="paint0_linear_1598_205637" x1="700" y1="727.656" x2="700" y2="-1" gradientUnits="userSpaceOnUse">
<stop offset="0.38" stop-color="#FFA573"/>
<stop offset="0.59" stop-color="#E27D76"/>
<stop offset="0.86" stop-color="#C04E79"/>
<stop offset="1" stop-color="#B33D7B"/>
</linearGradient>
<clipPath id="clip0_1598_205637">
<rect width="1450" height="728.656" fill="white" transform="translate(-25 -1)"/>
</clipPath>
</defs>
</svg>
