<svg width="1400" height="727" viewBox="0 0 1400 727" fill="none" xmlns="http://www.w3.org/2000/svg">
<path d="M1425 -1H-25V727.656H1425V-1Z" fill="url(#paint0_linear_751_172421)"/>
<path opacity="0.14" d="M1251.96 310.559C1292.4 310.559 1325.17 277.617 1325.17 236.981C1325.17 196.345 1292.4 163.402 1251.96 163.402C1211.53 163.402 1178.76 196.345 1178.76 236.981C1178.76 277.617 1211.53 310.559 1251.96 310.559Z" fill="#FFE600"/>
<path d="M1251.96 280.297C1275.77 280.297 1295.06 260.905 1295.06 236.983C1295.06 213.062 1275.77 193.67 1251.96 193.67C1228.16 193.67 1208.87 213.062 1208.87 236.983C1208.87 260.905 1228.16 280.297 1251.96 280.297Z" fill="#FFD066"/>
<path d="M70.702 413.848H-25V627.585H70.702V413.848Z" fill="#FB8B81"/>
<path d="M151.899 238.969H84.2314V627.585H151.899V238.969Z" fill="#FB8B81"/>
<path d="M306.565 485.74H151.899V627.586H306.565V485.74Z" fill="#FB8B81"/>
<path d="M107.436 464.369H41.7012V627.586H107.436V464.369Z" fill="#FB8B81"/>
<path d="M405.165 254.516H359.731V627.584H405.165V254.516Z" fill="#FB8B81"/>
<path d="M323.002 550.834H299.802V627.585H323.002V550.834Z" fill="#FB8B81"/>
<path d="M478.633 391.502H418.699V627.585H478.633V391.502Z" fill="#FB8B81"/>
<path d="M524.067 464.369H478.634V627.586H524.067V464.369Z" fill="#FB8B81"/>
<path d="M425.466 413.848H384.867V627.585H425.466V413.848Z" fill="#FB8B81"/>
<path d="M630.008 528.561H569.112V627.584H630.008V528.561Z" fill="#FB8B81"/>
<path d="M744.55 464.369H648.856V627.586H744.55V464.369Z" fill="#FB8B81"/>
<path d="M828.646 500.873H759.051V627.584H828.646V500.873Z" fill="#FB8B81"/>
<path d="M775 572.279H524.066V627.585H775V572.279Z" fill="#FB8B81"/>
<path d="M577.808 545.975H524.066V572.28H577.808V545.975Z" fill="#FB8B81"/>
<path d="M733.679 438.137H659.732V464.368H733.679V438.137Z" fill="#FB8B81"/>
<path d="M248.685 394.496H174.738V485.739H248.685V394.496Z" fill="#FB8B81"/>
<path d="M896.797 368.182H810.395V627.584H896.797V368.182Z" fill="#FB8B81"/>
<path d="M1047.59 429.43H896.796V627.585H1047.59V429.43Z" fill="#FB8B81"/>
<path d="M1125.89 500.873H1059.19V627.584H1125.89V500.873Z" fill="#FB8B81"/>
<path d="M1199.83 263.258H1120.09V627.586H1199.83V263.258Z" fill="#FB8B81"/>
<path d="M1073.69 528.561H1021.5V627.584H1073.69V528.561Z" fill="#FB8B81"/>
<path d="M1279.58 318.719H1207.08V627.585H1279.58V318.719Z" fill="#FB8B81"/>
<path d="M1425 401.781H1279.58V627.585H1425V401.781Z" fill="#FB8B81"/>
<path d="M1220.14 441.049H1188.24V627.585H1220.14V441.049Z" fill="#FB8B81"/>
<path d="M1425 247.271H1332.2V401.783H1425V247.271Z" fill="#FB8B81"/>
<path d="M1332.2 286.578H1300.3V401.783H1332.2V286.578Z" fill="#FB8B81"/>
<path d="M1255.83 303.094H1207.08V318.724H1255.83V303.094Z" fill="#FB8B81"/>
<path d="M1255.83 247.271H1207.08V303.09H1255.83V247.271Z" fill="#FB8B81"/>
<path d="M1199.83 246.006H1150.95V263.262H1199.83V246.006Z" fill="#FB8B81"/>
<path d="M1047.59 316.693H963.902V429.43H1047.59V316.693Z" fill="#FB8B81"/>
<path d="M1092.54 467.357H1059.19V500.874H1092.54V467.357Z" fill="#FB8B81"/>
<path d="M883.458 363.328H810.395V371.143H883.458V363.328Z" fill="#FB8B81"/>
<path d="M828.646 441.049H770.565V500.875H828.646V441.049Z" fill="#FB8B81"/>
<path d="M617.836 506.143H569.112V528.562H617.836V506.143Z" fill="#FB8B81"/>
<path d="M455.916 354.584H418.699V394.903H455.916V354.584Z" fill="#FB8B81"/>
<path d="M233.458 322.564H151.577V394.5H233.458V322.564Z" fill="#FB8B81"/>
<path d="M40.4783 377.902H-25V413.848H40.4783V377.902Z" fill="#FB8B81"/>
<path d="M966.408 316.694L1004.46 212.416L1042.5 316.694H966.408Z" fill="#FB8B81"/>
<defs>
<linearGradient id="paint0_linear_751_172421" x1="700" y1="727.656" x2="700" y2="-1" gradientUnits="userSpaceOnUse">
<stop offset="0.38" stop-color="#FFA573"/>
<stop offset="0.59" stop-color="#E27D76"/>
<stop offset="0.86" stop-color="#C04E79"/>
<stop offset="1" stop-color="#B33D7B"/>
</linearGradient>
</defs>
</svg>
