<svg width="1400" height="727" viewBox="0 0 1400 727" fill="none" xmlns="http://www.w3.org/2000/svg">
<path d="M1425 0H-25V729H1425V0Z" fill="url(#paint0_linear_751_172421)"/>
<path opacity="0.11" d="M610.017 193.84C650.448 193.84 683.224 160.882 683.224 120.226C683.224 79.571 650.448 46.6133 610.017 46.6133C569.586 46.6133 536.81 79.571 536.81 120.226C536.81 160.882 569.586 193.84 610.017 193.84Z" fill="#FFE600"/>
<path d="M70.702 415.043H-25V628.881H70.702V415.043Z" fill="#8AE6FF"/>
<path d="M151.9 240.082H84.2324V628.882H151.9V240.082Z" fill="#8AE6FF"/>
<path d="M306.565 486.969H151.899V628.881H306.565V486.969Z" fill="#8AE6FF"/>
<path d="M107.436 465.586H41.7012V628.88H107.436V465.586Z" fill="#8AE6FF"/>
<path d="M405.165 255.637H359.731V628.882H405.165V255.637Z" fill="#8AE6FF"/>
<path d="M323.002 552.094H299.802V628.881H323.002V552.094Z" fill="#8AE6FF"/>
<path d="M478.633 392.688H418.699V628.882H478.633V392.688Z" fill="#8AE6FF"/>
<path d="M524.067 465.586H478.634V628.88H524.067V465.586Z" fill="#8AE6FF"/>
<path d="M425.467 415.043H384.868V628.881H425.467V415.043Z" fill="#8AE6FF"/>
<path d="M630.004 529.811H569.108V628.88H630.004V529.811Z" fill="#8AE6FF"/>
<path d="M744.55 465.586H648.856V628.88H744.55V465.586Z" fill="#8AE6FF"/>
<path d="M828.646 502.111H759.051V628.882H828.646V502.111Z" fill="#8AE6FF"/>
<path d="M775.001 573.549H524.067V628.88H775.001V573.549Z" fill="#8AE6FF"/>
<path d="M577.813 547.232H524.067V573.55H577.813V547.232Z" fill="#8AE6FF"/>
<path d="M733.679 439.344H659.732V465.588H733.679V439.344Z" fill="#8AE6FF"/>
<path d="M248.685 395.684H174.738V486.969H248.685V395.684Z" fill="#8AE6FF"/>
<path d="M896.796 369.357H810.394V628.882H896.796V369.357Z" fill="#8AE6FF"/>
<path d="M1047.59 430.637H896.796V628.885H1047.59V430.637Z" fill="#8AE6FF"/>
<path d="M1125.89 502.111H1059.19V628.882H1125.89V502.111Z" fill="#8AE6FF"/>
<path d="M1199.83 264.381H1120.09V628.881H1199.83V264.381Z" fill="#8AE6FF"/>
<path d="M1073.69 529.811H1021.49V628.88H1073.69V529.811Z" fill="#8AE6FF"/>
<path d="M1279.58 319.869H1207.08V628.881H1279.58V319.869Z" fill="#8AE6FF"/>
<path d="M1425 402.971H1279.58V628.881H1425V402.971Z" fill="#8AE6FF"/>
<path d="M1220.14 442.256H1188.24V628.881H1220.14V442.256Z" fill="#8AE6FF"/>
<path d="M1425 248.387H1332.2V402.971H1425V248.387Z" fill="#8AE6FF"/>
<path d="M1332.2 287.711H1300.3V402.975H1332.2V287.711Z" fill="#8AE6FF"/>
<path d="M1255.83 304.236H1207.08V319.874H1255.83V304.236Z" fill="#8AE6FF"/>
<path d="M1255.83 248.387H1207.08V304.231H1255.83V248.387Z" fill="#8AE6FF"/>
<path d="M1199.83 247.121H1150.95V264.385H1199.83V247.121Z" fill="#8AE6FF"/>
<path d="M1047.59 317.844H963.902V430.638H1047.59V317.844Z" fill="#8AE6FF"/>
<path d="M1092.54 468.578H1059.19V502.11H1092.54V468.578Z" fill="#8AE6FF"/>
<path d="M883.457 364.5H810.394V372.319H883.457V364.5Z" fill="#8AE6FF"/>
<path d="M828.646 442.256H770.565V502.11H828.646V442.256Z" fill="#8AE6FF"/>
<path d="M617.832 507.381H569.108V529.811H617.832V507.381Z" fill="#8AE6FF"/>
<path d="M455.916 355.75H418.699V396.088H455.916V355.75Z" fill="#8AE6FF"/>
<path d="M233.458 323.719H151.577V395.688H233.458V323.719Z" fill="#8AE6FF"/>
<path d="M40.4783 379.08H-25V415.043H40.4783V379.08Z" fill="#8AE6FF"/>
<path d="M966.408 317.843L1004.46 213.516L1042.5 317.843H966.408Z" fill="#8AE6FF"/>
<path d="M1425 472.992H1333.17V728.995H1425V472.992Z" fill="#4BCAFD"/>
<path d="M1319.63 280.027H1251.97V728.999H1319.63V280.027Z" fill="#4BCAFD"/>
<path d="M1251.97 559.104H1097.3V728.999H1251.97V559.104Z" fill="#4BCAFD"/>
<path d="M1362.17 533.504H1296.43V729H1362.17V533.504Z" fill="#4BCAFD"/>
<path d="M1089.57 398.52H998.699V728.996H1089.57V398.52Z" fill="#4BCAFD"/>
<path d="M1104.07 637.07H1080.87V729H1104.07V637.07Z" fill="#4BCAFD"/>
<path d="M985.165 398.52H925.231V728.996H985.165V398.52Z" fill="#4BCAFD"/>
<path d="M925.231 533.504H879.798V729H925.231V533.504Z" fill="#4BCAFD"/>
<path d="M1019 472.992H978.398V728.995H1019V472.992Z" fill="#4BCAFD"/>
<path d="M834.756 610.396H773.86V729H834.756V610.396Z" fill="#4BCAFD"/>
<path d="M755.008 533.504H659.314V729H755.008V533.504Z" fill="#4BCAFD"/>
<path d="M644.814 577.234H575.219V729.001H644.814V577.234Z" fill="#4BCAFD"/>
<path d="M879.798 662.758H628.864V729H879.798V662.758Z" fill="#4BCAFD"/>
<path d="M879.802 631.252H826.057V662.758H879.802V631.252Z" fill="#4BCAFD"/>
<path d="M744.136 449.82H670.189V533.505H744.136V449.82Z" fill="#4BCAFD"/>
<path d="M1229.13 449.82H1155.18V559.105H1229.13V449.82Z" fill="#4BCAFD"/>
<path d="M575.219 419.988H507.068V729H575.219V419.988Z" fill="#4BCAFD"/>
<path d="M507.069 491.662H356.276V729H507.069V491.662Z" fill="#4BCAFD"/>
<path d="M344.674 577.234H277.978V729.001H344.674V577.234Z" fill="#4BCAFD"/>
<path d="M283.782 292.627H204.034V728.996H283.782V292.627Z" fill="#4BCAFD"/>
<path d="M382.374 610.396H330.178V729H382.374V610.396Z" fill="#4BCAFD"/>
<path d="M196.784 359.055H124.286V728.995H196.784V359.055Z" fill="#4BCAFD"/>
<path d="M124.287 458.547H-25V729H124.287V458.547Z" fill="#4BCAFD"/>
<path d="M215.633 505.578H183.733V729.001H215.633V505.578Z" fill="#4BCAFD"/>
<path d="M71.6681 273.479H1.79883V458.542H71.6681V273.479Z" fill="#4BCAFD"/>
<path d="M103.567 273.479H71.668V458.542H103.567V273.479Z" fill="#4BCAFD"/>
<path d="M41.7011 258.881H1.79883V273.479H41.7011V258.881Z" fill="#4BCAFD"/>
<path d="M172.41 340.34H123.66V359.061H172.41V340.34Z" fill="#4BCAFD"/>
<path d="M439.967 449.82H356.276V491.663H439.967V449.82Z" fill="#4BCAFD"/>
<path d="M344.675 537.088H311.326V577.23H344.675V537.088Z" fill="#4BCAFD"/>
<path d="M633.299 505.578H575.219V577.234H633.299V505.578Z" fill="#4BCAFD"/>
<path d="M834.756 583.539H786.032V610.392H834.756V583.539Z" fill="#4BCAFD"/>
<path d="M1055.05 378.736H1001.88V398.518H1055.05V378.736Z" fill="#4BCAFD"/>
<path d="M1213.91 363.66H1170.41V449.819H1213.91V363.66Z" fill="#4BCAFD"/>
<path d="M1425 429.938H1362.17V472.993H1425V429.938Z" fill="#4BCAFD"/>
<path d="M66.8332 515.156H-25V728.994H66.8332V515.156Z" fill="#36A2EA"/>
<path d="M148.034 381.023H80.3672V728.999H148.034V381.023Z" fill="#36A2EA"/>
<path d="M302.701 587.086H148.035V728.998H302.701V587.086Z" fill="#36A2EA"/>
<path d="M103.567 565.701H37.832V728.996H103.567V565.701Z" fill="#36A2EA"/>
<path d="M401.301 355.75H310.434V728.995H401.301V355.75Z" fill="#36A2EA"/>
<path d="M407.098 347.326H304.633V355.749H407.098V347.326Z" fill="#36A2EA"/>
<path d="M310.49 347.326L355.867 285.768L401.24 347.326H310.49Z" fill="#36A2EA"/>
<path d="M319.133 652.211H295.934V728.999H319.133V652.211Z" fill="#36A2EA"/>
<path d="M474.769 452.949H414.835V728.999H474.769V452.949Z" fill="#36A2EA"/>
<path d="M520.198 565.701H474.765V728.996H520.198V565.701Z" fill="#36A2EA"/>
<path d="M421.598 515.156H380.999V728.994H421.598V515.156Z" fill="#36A2EA"/>
<path d="M626.14 629.93H565.244V729H626.14V629.93Z" fill="#36A2EA"/>
<path d="M740.685 565.701H644.992V728.996H740.685V565.701Z" fill="#36A2EA"/>
<path d="M824.782 602.229H755.187V728.999H824.782V602.229Z" fill="#36A2EA"/>
<path d="M771.132 673.668H520.198V729H771.132V673.668Z" fill="#36A2EA"/>
<path d="M573.939 647.35H520.198V673.667H573.939V647.35Z" fill="#36A2EA"/>
<path d="M729.81 495.801H655.863V565.705H729.81V495.801Z" fill="#36A2EA"/>
<path d="M244.816 495.801H170.869V587.087H244.816V495.801Z" fill="#36A2EA"/>
<path d="M892.932 431.65H824.781V728.999H892.932V431.65Z" fill="#36A2EA"/>
<path d="M1043.72 530.75H892.932V728.999H1043.72V530.75Z" fill="#36A2EA"/>
<path d="M1122.02 602.229H1055.33V728.999H1122.02V602.229Z" fill="#36A2EA"/>
<path d="M1195.97 364.5H1116.22V729H1195.97V364.5Z" fill="#36A2EA"/>
<path d="M1177.12 332.51H1116.22V364.498H1177.12V332.51Z" fill="#36A2EA"/>
<path d="M1069.82 629.93H1017.63V729H1069.82V629.93Z" fill="#36A2EA"/>
<path d="M1275.71 419.986H1203.22V728.998H1275.71V419.986Z" fill="#36A2EA"/>
<path d="M1425 503.09H1275.71V729H1425V503.09Z" fill="#36A2EA"/>
<path d="M1216.27 542.375H1184.37V729H1216.27V542.375Z" fill="#36A2EA"/>
<path d="M1398.2 348.504H1328.33V503.088H1398.2V348.504Z" fill="#36A2EA"/>
<path d="M1328.33 387.824H1296.43V503.088H1328.33V387.824Z" fill="#36A2EA"/>
<path d="M1398.2 336.311H1358.3V348.504H1398.2V336.311Z" fill="#36A2EA"/>
<path d="M1251.97 404.35H1203.22V419.987H1251.97V404.35Z" fill="#36A2EA"/>
<path d="M1251.97 348.504H1216.27V404.349H1251.97V348.504Z" fill="#36A2EA"/>
<path d="M1133.39 315.252H1116.22V332.516H1133.39V315.252Z" fill="#36A2EA"/>
<path d="M1043.72 495.801H960.033V530.751H1043.72V495.801Z" fill="#36A2EA"/>
<path d="M1088.67 568.697H1055.33V602.229H1088.67V568.697Z" fill="#36A2EA"/>
<path d="M895.386 423.832H822.322V431.651H895.386V423.832Z" fill="#36A2EA"/>
<path d="M824.781 542.375H766.701V602.229H824.781V542.375Z" fill="#36A2EA"/>
<path d="M613.968 607.5H565.244V629.93H613.968V607.5Z" fill="#36A2EA"/>
<path d="M474.764 436.426H421.598V452.95H474.764V436.426Z" fill="#36A2EA"/>
<path d="M229.593 423.832H186.092V495.801H229.593V423.832Z" fill="#36A2EA"/>
<path d="M37.8323 479.193H-25V515.156H37.8323V479.193Z" fill="#36A2EA"/>
<g opacity="0.61">
<path d="M1208.69 130.168C1208.69 114.582 1191.61 107.107 1181.73 105.45C1177.34 104.898 1169.48 106.803 1165.08 108.668C1159.43 111.073 1154.1 117.131 1149.89 121.362C1150.44 102.045 1106.01 93.4263 1102.17 111.638C1098.33 98.3924 1078.02 89.0125 1066.49 85.6988C1053.32 82.3852 1034.66 82.9375 1021.49 85.6988C1000.63 89.5604 964.407 107.772 975.931 134.816C967.149 135.921 950.133 132.055 950.133 144.749H1244.45C1244.31 142.892 1243.91 140.874 1243.22 138.678C1238.28 123.775 1218.77 121.91 1208.68 130.163L1208.69 130.168Z" fill="white"/>
</g>
<g opacity="0.61">
<path d="M192.624 71.0831C193.542 63.3469 189.93 58.6809 182.241 58.6809C180.7 58.6809 179.999 58.9374 178.076 59.7985C175.621 60.8987 173.398 61.2161 173.398 61.2161C173.398 60.9117 173.006 58.9592 172.562 57.4328C171.465 53.6756 171.087 52.2319 166.857 50.3011C164.55 48.753 160.059 48.7791 156.982 48.7791C149.636 48.7791 148.009 51.7449 142.626 55.6151C141.085 48.266 136.341 41.1517 132.003 39.3731C125.457 36.6856 118.007 35.5072 110.7 36.6639C96.4696 38.9861 82.6829 52.9059 87.2393 67.6042C81.0857 60.2551 68.7786 57.9112 60.3142 61.7771C50.3136 66.8041 48.4075 74.562 50.7009 84.6203C43.1809 82.8069 37.5452 86.4293 36.7314 92.7174H237.018C239.037 77.1929 203.356 69.735 192.624 71.0831Z" fill="white"/>
</g>
<path d="M399.895 122.705C401.092 112.624 396.388 106.549 386.365 106.549C384.359 106.549 383.445 106.884 380.938 108.006C377.74 109.437 374.842 109.85 374.842 109.85C374.842 109.454 374.332 106.91 373.754 104.923C372.326 100.027 371.834 98.148 366.321 95.6301C363.313 93.6124 357.465 93.6472 353.456 93.6472C343.882 93.6472 341.767 97.5131 334.752 102.553C332.746 92.9775 326.562 83.7063 320.913 81.3884C312.383 77.8878 302.679 76.3484 293.161 77.8617C274.622 80.884 256.658 99.0264 262.594 118.173C254.578 108.598 238.541 105.545 227.518 110.585C214.488 117.134 212.003 127.244 214.989 140.347C205.193 137.981 197.851 142.704 196.789 150.901H457.74C460.369 130.671 413.882 120.956 399.9 122.713L399.895 122.705Z" fill="white"/>
<defs>
<linearGradient id="paint0_linear_751_172421" x1="700" y1="729" x2="700" y2="0" gradientUnits="userSpaceOnUse">
<stop offset="0.26" stop-color="#D8F3FF"/>
<stop offset="0.35" stop-color="#D0F0FE"/>
<stop offset="0.49" stop-color="#BDEAFE"/>
<stop offset="0.64" stop-color="#9DE1FE"/>
<stop offset="0.82" stop-color="#70D3FE"/>
<stop offset="1" stop-color="#3CC4FE"/>
</linearGradient>
</defs>
</svg>
