<svg width="1400" height="727" viewBox="0 0 1400 727" fill="none" xmlns="http://www.w3.org/2000/svg">
<path d="M1424 0H-24V728H1424V0Z" fill="url(#paint0_linear_751_172421)"/>
<path opacity="0.37" d="M171.598 377.331C211.974 377.331 244.705 344.418 244.705 303.819C244.705 263.219 211.974 230.307 171.598 230.307C131.223 230.307 98.4922 263.219 98.4922 303.819C98.4922 344.418 131.223 377.331 171.598 377.331Z" fill="#FFE600"/>
<path d="M171.599 347.094C195.367 347.094 214.636 327.719 214.636 303.819C214.636 279.92 195.367 260.545 171.599 260.545C147.83 260.545 128.562 279.92 128.562 303.819C128.562 327.719 147.83 347.094 171.599 347.094Z" fill="#FFF066"/>
<path d="M71.57 414.473H-24V628.018H71.57V414.473Z" fill="#F9C8BA"/>
<path d="M152.655 239.752H85.0811V628.019H152.655V239.752Z" fill="#F9C8BA"/>
<path d="M307.107 486.301H152.655V628.018H307.107V486.301Z" fill="#F9C8BA"/>
<path d="M108.254 464.947H42.6094V628.018H108.254V464.947Z" fill="#F9C8BA"/>
<path d="M405.572 255.285H360.201V628.018H405.572V255.285Z" fill="#F9C8BA"/>
<path d="M323.521 551.336H300.354V628.018H323.521V551.336Z" fill="#F9C8BA"/>
<path d="M478.939 392.148H419.088V628.019H478.939V392.148Z" fill="#F9C8BA"/>
<path d="M524.309 464.947H478.938V628.018H524.309V464.947Z" fill="#F9C8BA"/>
<path d="M425.845 414.473H385.303V628.018H425.845V414.473Z" fill="#F9C8BA"/>
<path d="M630.106 529.084H569.294V628.018H630.106V529.084Z" fill="#F9C8BA"/>
<path d="M744.489 464.947H648.928V628.018H744.489V464.947Z" fill="#F9C8BA"/>
<path d="M828.468 501.422H758.969V628.018H828.468V501.422Z" fill="#F9C8BA"/>
<path d="M774.897 572.764H524.31V628.019H774.897V572.764Z" fill="#F9C8BA"/>
<path d="M577.977 546.48H524.31V572.762H577.977V546.48Z" fill="#F9C8BA"/>
<path d="M733.633 438.74H659.788V464.948H733.633V438.74Z" fill="#F9C8BA"/>
<path d="M249.307 395.141H175.462V486.301H249.307V395.141Z" fill="#F9C8BA"/>
<path d="M896.525 368.85H810.242V628.018H896.525V368.85Z" fill="#F9C8BA"/>
<path d="M1047.11 430.047H896.524V628.023H1047.11V430.047Z" fill="#F9C8BA"/>
<path d="M1125.3 501.422H1058.7V628.018H1125.3V501.422Z" fill="#F9C8BA"/>
<path d="M1199.14 264.018H1119.51V628.018H1199.14V264.018Z" fill="#F9C8BA"/>
<path d="M1073.18 529.084H1021.05V628.018H1073.18V529.084Z" fill="#F9C8BA"/>
<path d="M1278.78 319.43H1206.38V628.018H1278.78V319.43Z" fill="#F9C8BA"/>
<path d="M1424 402.418H1278.78V628.018H1424V402.418Z" fill="#F9C8BA"/>
<path d="M1219.42 441.65H1187.56V628.019H1219.42V441.65Z" fill="#F9C8BA"/>
<path d="M1424 248.047H1331.33V402.419H1424V248.047Z" fill="#F9C8BA"/>
<path d="M1331.33 287.316H1299.47V402.422H1331.33V287.316Z" fill="#F9C8BA"/>
<path d="M1255.07 303.818H1206.38V319.434H1255.07V303.818Z" fill="#F9C8BA"/>
<path d="M1255.07 248.047H1206.38V303.815H1255.07V248.047Z" fill="#F9C8BA"/>
<path d="M1199.15 246.783H1150.33V264.023H1199.15V246.783Z" fill="#F9C8BA"/>
<path d="M1047.11 317.406H963.538V430.046H1047.11V317.406Z" fill="#F9C8BA"/>
<path d="M1092 467.936H1058.7V501.422H1092V467.936Z" fill="#F9C8BA"/>
<path d="M883.205 364H810.242V371.808H883.205V364Z" fill="#F9C8BA"/>
<path d="M828.469 441.65H770.469V501.422H828.469V441.65Z" fill="#F9C8BA"/>
<path d="M617.95 506.686H569.294V529.085H617.95V506.686Z" fill="#F9C8BA"/>
<path d="M456.254 355.262H419.088V395.544H456.254V355.262Z" fill="#F9C8BA"/>
<path d="M234.102 323.273H152.334V395.144H234.102V323.273Z" fill="#F9C8BA"/>
<path d="M41.3879 378.561H-24V414.474H41.3879V378.561Z" fill="#F9C8BA"/>
<path d="M966.041 317.407L1004.04 213.223L1042.03 317.407H966.041Z" fill="#F9C8BA"/>
<path d="M1424 472.344H1332.29V727.995H1424V472.344Z" fill="#CEB7D3"/>
<path d="M1318.78 279.645H1251.2V728H1318.78V279.645Z" fill="#CEB7D3"/>
<path d="M1251.2 558.336H1096.75V727.999H1251.2V558.336Z" fill="#CEB7D3"/>
<path d="M1361.25 532.771H1295.61V727.999H1361.25V532.771Z" fill="#CEB7D3"/>
<path d="M1089.03 397.973H998.287V727.996H1089.03V397.973Z" fill="#CEB7D3"/>
<path d="M1103.51 636.195H1080.34V727.999H1103.51V636.195Z" fill="#CEB7D3"/>
<path d="M984.772 397.973H924.921V727.996H984.772V397.973Z" fill="#CEB7D3"/>
<path d="M924.925 532.771H879.554V727.999H924.925V532.771Z" fill="#CEB7D3"/>
<path d="M1018.56 472.344H978.014V727.995H1018.56V472.344Z" fill="#CEB7D3"/>
<path d="M834.57 609.559H773.758V728H834.57V609.559Z" fill="#CEB7D3"/>
<path d="M754.931 532.771H659.37V727.999H754.931V532.771Z" fill="#CEB7D3"/>
<path d="M644.89 576.441H575.391V727.999H644.89V576.441Z" fill="#CEB7D3"/>
<path d="M879.55 661.848H628.963V727.999H879.55V661.848Z" fill="#CEB7D3"/>
<path d="M879.554 630.385H825.883V661.847H879.554V630.385Z" fill="#CEB7D3"/>
<path d="M744.075 449.201H670.23V532.771H744.075V449.201Z" fill="#CEB7D3"/>
<path d="M1228.4 449.201H1154.56V558.336H1228.4V449.201Z" fill="#CEB7D3"/>
<path d="M575.391 419.412H507.335V728H575.391V419.412Z" fill="#CEB7D3"/>
<path d="M507.334 490.986H356.75V727.999H507.334V490.986Z" fill="#CEB7D3"/>
<path d="M345.164 576.441H278.56V727.999H345.164V576.441Z" fill="#CEB7D3"/>
<path d="M284.357 292.225H204.719V727.995H284.357V292.225Z" fill="#CEB7D3"/>
<path d="M382.813 609.559H330.688V728H382.813V609.559Z" fill="#CEB7D3"/>
<path d="M197.479 358.562H125.081V727.995H197.479V358.562Z" fill="#CEB7D3"/>
<path d="M125.081 457.918H-24V728H125.081V457.918Z" fill="#CEB7D3"/>
<path d="M216.301 504.883H184.445V727.999H216.301V504.883Z" fill="#CEB7D3"/>
<path d="M72.5307 273.104H2.75781V457.913H72.5307V273.104Z" fill="#CEB7D3"/>
<path d="M104.39 273.104H72.5352V457.913H104.39V273.104Z" fill="#CEB7D3"/>
<path d="M42.6051 258.525H2.75781V273.104H42.6051V258.525Z" fill="#CEB7D3"/>
<path d="M173.137 339.871H124.455V358.566H173.137V339.871Z" fill="#CEB7D3"/>
<path d="M440.325 449.201H356.75V490.986H440.325V449.201Z" fill="#CEB7D3"/>
<path d="M345.164 536.35H311.861V576.437H345.164V536.35Z" fill="#CEB7D3"/>
<path d="M633.391 504.883H575.391V576.441H633.391V504.883Z" fill="#CEB7D3"/>
<path d="M834.569 582.738H785.913V609.554H834.569V582.738Z" fill="#CEB7D3"/>
<path d="M1054.56 378.217H1001.46V397.971H1054.56V378.217Z" fill="#CEB7D3"/>
<path d="M1213.2 363.162H1169.76V449.203H1213.2V363.162Z" fill="#CEB7D3"/>
<path d="M1424 429.348H1361.25V472.344H1424V429.348Z" fill="#CEB7D3"/>
<path d="M67.7065 514.451H-24V727.996H67.7065V514.451Z" fill="#A5A6DE"/>
<path d="M148.797 380.502H81.2227V728H148.797V380.502Z" fill="#A5A6DE"/>
<path d="M303.248 586.283H148.796V728.001H303.248V586.283Z" fill="#A5A6DE"/>
<path d="M104.39 564.926H38.7461V727.996H104.39V564.926Z" fill="#A5A6DE"/>
<path d="M401.712 355.264H310.971V727.997H401.712V355.264Z" fill="#A5A6DE"/>
<path d="M407.501 346.852H305.178V355.263H407.501V346.852Z" fill="#A5A6DE"/>
<path d="M311.027 346.851L356.342 285.377L401.652 346.851H311.027Z" fill="#A5A6DE"/>
<path d="M319.658 651.318H296.49V728.001H319.658V651.318Z" fill="#A5A6DE"/>
<path d="M475.08 452.33H415.229V728.001H475.08V452.33Z" fill="#A5A6DE"/>
<path d="M520.446 564.926H475.075V727.996H520.446V564.926Z" fill="#A5A6DE"/>
<path d="M421.982 514.451H381.439V727.996H421.982V514.451Z" fill="#A5A6DE"/>
<path d="M626.242 629.066H565.431V728H626.242V629.066Z" fill="#A5A6DE"/>
<path d="M740.63 564.926H645.068V727.996H740.63V564.926Z" fill="#A5A6DE"/>
<path d="M824.61 601.404H755.11V728.001H824.61V601.404Z" fill="#A5A6DE"/>
<path d="M771.033 672.744H520.446V728H771.033V672.744Z" fill="#A5A6DE"/>
<path d="M574.113 646.463H520.446V672.745H574.113V646.463Z" fill="#A5A6DE"/>
<path d="M729.769 495.121H655.924V564.929H729.769V495.121Z" fill="#A5A6DE"/>
<path d="M245.444 495.121H171.599V586.282H245.444V495.121Z" fill="#A5A6DE"/>
<path d="M892.666 431.059H824.609V728H892.666V431.059Z" fill="#A5A6DE"/>
<path d="M1043.25 530.023H892.665V728H1043.25V530.023Z" fill="#A5A6DE"/>
<path d="M1121.44 601.404H1054.84V728.001H1121.44V601.404Z" fill="#A5A6DE"/>
<path d="M1195.29 364H1115.65V728H1195.29V364Z" fill="#A5A6DE"/>
<path d="M1176.46 332.057H1115.65V364.001H1176.46V332.057Z" fill="#A5A6DE"/>
<path d="M1069.31 629.066H1017.19V728H1069.31V629.066Z" fill="#A5A6DE"/>
<path d="M1274.92 419.412H1202.52V728H1274.92V419.412Z" fill="#A5A6DE"/>
<path d="M1424 502.4H1274.92V728H1424V502.4Z" fill="#A5A6DE"/>
<path d="M1215.55 541.631H1183.7V728H1215.55V541.631Z" fill="#A5A6DE"/>
<path d="M1397.24 348.027H1327.46V502.399H1397.24V348.027Z" fill="#A5A6DE"/>
<path d="M1327.47 387.295H1295.61V502.401H1327.47V387.295Z" fill="#A5A6DE"/>
<path d="M1397.24 335.852H1357.39V348.028H1397.24V335.852Z" fill="#A5A6DE"/>
<path d="M1251.2 403.797H1202.52V419.413H1251.2V403.797Z" fill="#A5A6DE"/>
<path d="M1251.2 348.027H1215.55V403.796H1251.2V348.027Z" fill="#A5A6DE"/>
<path d="M1132.79 314.82H1115.65V332.061H1132.79V314.82Z" fill="#A5A6DE"/>
<path d="M1043.25 495.121H959.675V530.023H1043.25V495.121Z" fill="#A5A6DE"/>
<path d="M1088.14 567.918H1054.84V601.404H1088.14V567.918Z" fill="#A5A6DE"/>
<path d="M895.116 423.252H822.153V431.06H895.116V423.252Z" fill="#A5A6DE"/>
<path d="M824.609 541.631H766.609V601.403H824.609V541.631Z" fill="#A5A6DE"/>
<path d="M614.087 606.668H565.431V629.067H614.087V606.668Z" fill="#A5A6DE"/>
<path d="M475.075 435.828H421.981V452.33H475.075V435.828Z" fill="#A5A6DE"/>
<path d="M230.242 423.252H186.801V495.123H230.242V423.252Z" fill="#A5A6DE"/>
<path d="M38.7457 478.537H-24V514.451H38.7457V478.537Z" fill="#A5A6DE"/>
<g opacity="0.33">
<path d="M510.151 128.668C511.346 118.601 506.648 112.535 496.64 112.535C494.636 112.535 493.724 112.869 491.221 113.989C488.026 115.418 485.132 115.831 485.132 115.831C485.132 115.436 484.624 112.895 484.046 110.911C482.62 106.021 482.129 104.145 476.623 101.63C473.62 99.6154 467.779 99.6501 463.776 99.6501C454.216 99.6501 452.103 103.511 445.098 108.544C443.094 98.9813 436.919 89.7228 431.278 87.4082C422.76 83.9124 413.069 82.3751 403.564 83.8863C385.051 86.9045 367.111 105.022 373.039 124.143C365.034 114.58 349.019 111.532 338.011 116.565C325 123.105 322.518 133.201 325.5 146.286C315.717 143.923 308.386 148.639 307.325 156.825H567.917C570.541 136.623 524.119 126.922 510.156 128.676L510.151 128.668Z" fill="white"/>
</g>
<g opacity="0.31">
<path d="M1125.7 169.054C1127.95 153.117 1119.42 146.303 1104.51 147.237C1104.51 134.582 1097.98 126.679 1084.93 121.52C1077.47 117.767 1065.32 120.008 1058.95 123.917C1058.95 116.886 1052.76 112.079 1045.77 111.61C1034.58 110.672 1031.39 115.996 1027.59 122.353C1024.33 117.563 1018.27 113.486 1013.14 113.955C1010.34 114.424 1006.01 114.424 1003.22 117.238C1000.39 120.091 995.659 128.602 995.659 128.602C995.659 128.602 985.641 125.675 980.513 124.737C972.121 122.861 964.199 122.861 955.807 124.268C931.566 128.02 908.95 146.299 914.786 171.143C899.211 166.522 888.681 168.329 884.022 183.328C883.422 185.487 883.092 187.68 883.014 189.855H1173.02C1171.71 171.039 1141.73 159.787 1125.7 169.05L1125.7 169.054Z" fill="white"/>
</g>
<defs>
<linearGradient id="paint0_linear_751_172421" x1="700" y1="728" x2="700" y2="0" gradientUnits="userSpaceOnUse">
<stop offset="0.4" stop-color="#FFE6AE"/>
<stop offset="0.52" stop-color="#FDDEAD"/>
<stop offset="0.7" stop-color="#FBCBAB"/>
<stop offset="0.92" stop-color="#F6ABA7"/>
<stop offset="1" stop-color="#F49DA6"/>
</linearGradient>
</defs>
</svg>
