<svg width="1400" height="727" viewBox="0 0 1400 727" fill="none" xmlns="http://www.w3.org/2000/svg">
<g clip-path="url(#clip0_1598_205980)">
<path d="M1422.42 0H-22.5186V727H1422.42V0Z" fill="url(#paint0_linear_1598_205980)"/>
<path d="M72.8492 413.906H-22.5186V627.158H72.8492V413.906Z" fill="#4E469B"/>
<path d="M153.763 239.424H86.332V627.157H153.763V239.424Z" fill="#4E469B"/>
<path d="M307.889 485.635H153.764V627.158H307.889V485.635Z" fill="#4E469B"/>
<path d="M109.455 464.311H43.9492V627.157H109.455V464.311Z" fill="#4E469B"/>
<path d="M406.144 254.936H360.869V627.157H406.144V254.936Z" fill="#4E469B"/>
<path d="M324.268 550.58H301.149V627.157H324.268V550.58Z" fill="#4E469B"/>
<path d="M479.356 391.611H419.631V627.158H479.356V391.611Z" fill="#4E469B"/>
<path d="M524.63 464.311H479.355V627.157H524.63V464.311Z" fill="#4E469B"/>
<path d="M426.375 413.906H385.918V627.158H426.375V413.906Z" fill="#4E469B"/>
<path d="M630.199 528.359H569.516V627.158H630.199V528.359Z" fill="#4E469B"/>
<path d="M744.344 464.311H648.985V627.157H744.344V464.311Z" fill="#4E469B"/>
<path d="M828.146 500.734H758.794V627.157H828.146V500.734Z" fill="#4E469B"/>
<path d="M774.688 571.979H524.631V627.158H774.688V571.979Z" fill="#4E469B"/>
<path d="M578.189 545.732H524.631V571.978H578.189V545.732Z" fill="#4E469B"/>
<path d="M733.511 438.139H659.822V464.311H733.511V438.139Z" fill="#4E469B"/>
<path d="M250.21 394.6H176.521V485.635H250.21V394.6Z" fill="#4E469B"/>
<path d="M896.058 368.344H809.958V627.156H896.058V368.344Z" fill="#4E469B"/>
<path d="M1046.32 429.453H896.059V627.158H1046.32V429.453Z" fill="#4E469B"/>
<path d="M1124.35 500.734H1057.89V627.157H1124.35V500.734Z" fill="#4E469B"/>
<path d="M1198.04 263.658H1118.57V627.158H1198.04V263.658Z" fill="#4E469B"/>
<path d="M1072.34 528.359H1020.32V627.158H1072.34V528.359Z" fill="#4E469B"/>
<path d="M1277.51 318.994H1205.26V627.158H1277.51V318.994Z" fill="#4E469B"/>
<path d="M1422.42 401.867H1277.5V627.157H1422.42V401.867Z" fill="#4E469B"/>
<path d="M1218.27 441.045H1186.48V627.158H1218.27V441.045Z" fill="#4E469B"/>
<path d="M1422.42 247.707H1329.94V401.867H1422.42V247.707Z" fill="#4E469B"/>
<path d="M1329.94 286.924H1298.15V401.867H1329.94V286.924Z" fill="#4E469B"/>
<path d="M1253.84 303.402H1205.26V318.997H1253.84V303.402Z" fill="#4E469B"/>
<path d="M1253.84 247.707H1205.26V303.399H1253.84V247.707Z" fill="#4E469B"/>
<path d="M1198.04 246.445H1149.32V263.662H1198.04V246.445Z" fill="#4E469B"/>
<path d="M1046.33 316.973H962.931V429.453H1046.33V316.973Z" fill="#4E469B"/>
<path d="M1091.12 467.295H1057.89V500.735H1091.12V467.295Z" fill="#4E469B"/>
<path d="M882.766 363.5H809.958V371.297H882.766V363.5Z" fill="#4E469B"/>
<path d="M828.146 441.045H770.269V500.735H828.146V441.045Z" fill="#4E469B"/>
<path d="M618.069 505.99H569.516V528.359H618.069V505.99Z" fill="#4E469B"/>
<path d="M456.718 354.775H419.631V395.002H456.718V354.775Z" fill="#4E469B"/>
<path d="M235.036 322.832H153.441V394.604H235.036V322.832Z" fill="#4E469B"/>
<path d="M42.731 378.041H-22.5186V413.905H42.731V378.041Z" fill="#4E469B"/>
<path d="M965.428 316.973L1003.34 212.932L1041.26 316.973H965.428Z" fill="#4E469B"/>
<path d="M1422.42 471.697H1330.9V726.997H1422.42V471.697Z" fill="#423467"/>
<path d="M1317.42 279.262H1249.99V727.002H1317.42V279.262Z" fill="#423467"/>
<path d="M1249.99 557.572H1095.86V727.002H1249.99V557.572Z" fill="#423467"/>
<path d="M1359.8 532.041H1294.3V727.001H1359.8V532.041Z" fill="#423467"/>
<path d="M1088.16 397.428H997.606V726.998H1088.16V397.428Z" fill="#423467"/>
<path d="M1102.61 635.324H1079.49V727.002H1102.61V635.324Z" fill="#423467"/>
<path d="M984.119 397.428H924.395V726.998H984.119V397.428Z" fill="#423467"/>
<path d="M924.394 532.041H879.119V727.001H924.394V532.041Z" fill="#423467"/>
<path d="M1017.83 471.697H977.375V726.997H1017.83V471.697Z" fill="#423467"/>
<path d="M834.235 608.723H773.552V727.001H834.235V608.723Z" fill="#423467"/>
<path d="M754.765 532.041H659.406V727.001H754.765V532.041Z" fill="#423467"/>
<path d="M644.957 575.65H575.604V727H644.957V575.65Z" fill="#423467"/>
<path d="M879.119 660.941H629.062V727.002H879.119V660.941Z" fill="#423467"/>
<path d="M879.123 629.521H825.565V660.941H879.123V629.521Z" fill="#423467"/>
<path d="M743.932 448.586H670.243V532.041H743.932V448.586Z" fill="#423467"/>
<path d="M1227.23 448.586H1153.54V557.571H1227.23V448.586Z" fill="#423467"/>
<path d="M575.604 418.836H507.691V727H575.604V418.836Z" fill="#423467"/>
<path d="M507.693 490.314H357.427V727.001H507.693V490.314Z" fill="#423467"/>
<path d="M345.865 575.65H279.401V727H345.865V575.65Z" fill="#423467"/>
<path d="M285.185 291.824H205.716V726.996H285.185V291.824Z" fill="#423467"/>
<path d="M383.434 608.723H331.42V727.001H383.434V608.723Z" fill="#423467"/>
<path d="M198.492 358.07H126.247V726.996H198.492V358.07Z" fill="#423467"/>
<path d="M126.247 457.291H-22.5186V727.002H126.247V457.291Z" fill="#423467"/>
<path d="M217.273 504.191H185.485V727.001H217.273V504.191Z" fill="#423467"/>
<path d="M73.8118 272.73H4.18652V457.286H73.8118V272.73Z" fill="#423467"/>
<path d="M105.599 272.73H73.8115V457.286H105.599V272.73Z" fill="#423467"/>
<path d="M43.9495 258.172H4.18652V272.73H43.9495V258.172Z" fill="#423467"/>
<path d="M174.201 339.406H125.622V358.071H174.201V339.406Z" fill="#423467"/>
<path d="M440.825 448.586H357.427V490.313H440.825V448.586Z" fill="#423467"/>
<path d="M345.865 535.615H312.633V575.651H345.865V535.615Z" fill="#423467"/>
<path d="M633.482 504.191H575.604V575.651H633.482V504.191Z" fill="#423467"/>
<path d="M834.234 581.939H785.681V608.723H834.234V581.939Z" fill="#423467"/>
<path d="M1053.76 377.699H1000.78V397.427H1053.76V377.699Z" fill="#423467"/>
<path d="M1212.06 362.664H1168.71V448.587H1212.06V362.664Z" fill="#423467"/>
<path d="M1422.42 428.758H1359.8V471.695H1422.42V428.758Z" fill="#423467"/>
<path d="M68.9939 513.746H-22.5186V726.998H68.9939V513.746Z" fill="#3D2B5D"/>
<path d="M149.912 379.982H82.4814V727.003H149.912V379.982Z" fill="#3D2B5D"/>
<path d="M304.038 585.479H149.912V727.002H304.038V585.479Z" fill="#3D2B5D"/>
<path d="M105.6 564.15H40.0947V726.997H105.6V564.15Z" fill="#3D2B5D"/>
<path d="M402.294 354.775H311.744V726.996H402.294V354.775Z" fill="#3D2B5D"/>
<path d="M408.07 346.377H305.963V354.777H408.07V346.377Z" fill="#3D2B5D"/>
<path d="M311.8 346.376L357.018 284.986L402.232 346.376H311.8Z" fill="#3D2B5D"/>
<path d="M320.412 650.426H297.293V727.003H320.412V650.426Z" fill="#3D2B5D"/>
<path d="M475.505 451.709H415.78V727.001H475.505V451.709Z" fill="#3D2B5D"/>
<path d="M520.776 564.15H475.501V726.997H520.776V564.15Z" fill="#3D2B5D"/>
<path d="M422.519 513.746H382.062V726.998H422.519V513.746Z" fill="#3D2B5D"/>
<path d="M626.348 628.203H565.665V727.001H626.348V628.203Z" fill="#3D2B5D"/>
<path d="M740.493 564.15H645.134V726.997H740.493V564.15Z" fill="#3D2B5D"/>
<path d="M824.295 600.578H754.943V727.001H824.295V600.578Z" fill="#3D2B5D"/>
<path d="M770.832 671.822H520.775V727.002H770.832V671.822Z" fill="#3D2B5D"/>
<path d="M574.329 645.576H520.775V671.822H574.329V645.576Z" fill="#3D2B5D"/>
<path d="M729.656 494.443H655.967V564.155H729.656V494.443Z" fill="#3D2B5D"/>
<path d="M246.355 494.443H172.666V585.479H246.355V494.443Z" fill="#3D2B5D"/>
<path d="M892.207 430.469H824.295V727.002H892.207V430.469Z" fill="#3D2B5D"/>
<path d="M1042.47 529.297H892.208V727.002H1042.47V529.297Z" fill="#3D2B5D"/>
<path d="M1120.5 600.578H1054.03V727.001H1120.5V600.578Z" fill="#3D2B5D"/>
<path d="M1194.19 363.502H1114.72V727.002H1194.19V363.502Z" fill="#3D2B5D"/>
<path d="M1175.4 331.602H1114.72V363.502H1175.4V331.602Z" fill="#3D2B5D"/>
<path d="M1068.48 628.203H1016.47V727.001H1068.48V628.203Z" fill="#3D2B5D"/>
<path d="M1273.65 418.838H1201.41V727.002H1273.65V418.838Z" fill="#3D2B5D"/>
<path d="M1422.42 501.711H1273.65V727.001H1422.42V501.711Z" fill="#3D2B5D"/>
<path d="M1214.41 540.889H1182.63V727.001H1214.41V540.889Z" fill="#3D2B5D"/>
<path d="M1395.71 347.551H1326.09V501.711H1395.71V347.551Z" fill="#3D2B5D"/>
<path d="M1326.09 386.764H1294.3V501.707H1326.09V386.764Z" fill="#3D2B5D"/>
<path d="M1395.71 335.391H1355.95V347.551H1395.71V335.391Z" fill="#3D2B5D"/>
<path d="M1249.99 403.242H1201.41V418.837H1249.99V403.242Z" fill="#3D2B5D"/>
<path d="M1249.99 347.551H1214.41V403.242H1249.99V347.551Z" fill="#3D2B5D"/>
<path d="M1131.83 314.389H1114.72V331.601H1131.83V314.389Z" fill="#3D2B5D"/>
<path d="M1042.47 494.443H959.074V529.297H1042.47V494.443Z" fill="#3D2B5D"/>
<path d="M1087.27 567.139H1054.03V600.579H1087.27V567.139Z" fill="#3D2B5D"/>
<path d="M894.653 422.672H821.845V430.469H894.653V422.672Z" fill="#3D2B5D"/>
<path d="M824.295 540.889H766.418V600.579H824.295V540.889Z" fill="#3D2B5D"/>
<path d="M614.218 605.836H565.665V628.204H614.218V605.836Z" fill="#3D2B5D"/>
<path d="M475.501 435.23H422.52V451.71H475.501V435.23Z" fill="#3D2B5D"/>
<path d="M231.185 422.672H187.836V494.444H231.185V422.672Z" fill="#3D2B5D"/>
<path d="M40.0943 477.883H-22.5186V513.747H40.0943V477.883Z" fill="#3D2B5D"/>
<path d="M647.697 162.356C648.001 162.014 647.849 156.849 644.709 154.052C643.031 152.56 639.388 150.856 636.964 151.15L637.059 151.046C637.398 151.35 642.532 151.198 645.308 148.041C646.791 146.354 648.486 142.69 648.192 140.248L648.296 140.343C647.992 140.686 648.144 145.851 651.288 148.648C652.962 150.14 656.605 151.844 659.029 151.554L658.938 151.658C658.6 151.354 653.465 151.506 650.689 154.667C649.206 156.354 647.515 160.019 647.806 162.456L647.701 162.365L647.697 162.356Z" fill="#FFCC00"/>
<path d="M432.26 165.587C432.563 165.244 432.411 160.079 429.272 157.282C427.593 155.79 423.951 154.086 421.526 154.381L421.622 154.277C421.96 154.58 427.095 154.429 429.87 151.272C431.353 149.585 433.049 145.92 432.754 143.479L432.858 143.574C432.555 143.917 432.706 149.081 435.85 151.879C437.524 153.37 441.167 155.075 443.591 154.784L443.5 154.888C443.162 154.585 438.027 154.737 435.252 157.898C433.769 159.585 432.078 163.249 432.368 165.687L432.264 165.596L432.26 165.587Z" fill="#FFCC00"/>
<path d="M1197.74 176.304C1198.04 175.961 1197.89 170.796 1194.75 167.999C1193.07 166.507 1189.43 164.803 1187.01 165.098L1187.1 164.994C1187.44 165.297 1192.57 165.145 1195.35 161.988C1196.83 160.301 1198.53 156.637 1198.23 154.195L1198.34 154.291C1198.03 154.633 1198.19 159.798 1201.33 162.595C1203 164.087 1206.65 165.792 1209.07 165.501L1208.98 165.605C1208.64 165.302 1203.51 165.453 1200.73 168.615C1199.25 170.302 1197.56 173.966 1197.85 176.403L1197.74 176.312L1197.74 176.304Z" fill="#FFCC00"/>
<path d="M405.985 83.5931C406.145 83.4109 406.067 80.6528 404.389 79.161C403.491 78.363 401.548 77.4523 400.256 77.6128L400.308 77.5564C400.49 77.7212 403.231 77.6388 404.714 75.9518C405.508 75.0498 406.41 73.094 406.253 71.793L406.31 71.845C406.149 72.0271 406.227 74.7853 407.906 76.2771C408.799 77.075 410.746 77.9857 412.039 77.8296L411.991 77.886C411.809 77.7255 409.068 77.8036 407.585 79.4906C406.791 80.3926 405.889 82.3484 406.045 83.6494L405.989 83.6017L405.985 83.5931Z" fill="#FFCC00"/>
<path d="M1046.08 80.9004C1046.33 80.6185 1046.2 76.3425 1043.6 74.0267C1042.22 72.7908 1039.2 71.3814 1037.2 71.6242L1037.27 71.5375C1037.56 71.789 1041.8 71.6633 1044.1 69.0482C1045.33 67.6518 1046.73 64.6205 1046.49 62.5996L1046.58 62.6777C1046.32 62.9639 1046.45 67.2355 1049.05 69.547C1050.44 70.7829 1053.45 72.1923 1055.46 71.9495L1055.38 72.0362C1055.1 71.7847 1050.85 71.9104 1048.55 74.5255C1047.33 75.9219 1045.93 78.9532 1046.16 80.9698L1046.08 80.896L1046.08 80.9004Z" fill="#FFCC00"/>
<path d="M1300.42 100.788C1300.88 100.254 1300.65 92.2142 1295.77 87.8602C1293.15 85.5357 1287.48 82.8817 1283.71 83.3414L1283.85 83.1809C1284.38 83.6536 1292.37 83.4194 1296.69 78.4973C1299 75.8693 1301.65 70.1622 1301.19 66.3633L1301.35 66.5107C1300.88 67.0485 1301.11 75.0843 1306.01 79.4383C1308.62 81.7628 1314.29 84.4169 1318.06 83.9615L1317.92 84.122C1317.39 83.6493 1309.39 83.8878 1305.07 88.8099C1302.76 91.4336 1300.12 97.1407 1300.57 100.94L1300.41 100.796L1300.42 100.788Z" fill="#FFCC00"/>
<path d="M541.184 79.7468C541.648 79.2134 541.414 71.1732 536.531 66.8192C533.92 64.4947 528.248 61.8407 524.471 62.3003L524.614 62.1399C525.147 62.6126 533.135 62.3784 537.459 57.4563C539.77 54.8283 542.411 49.1212 541.952 45.3223L542.117 45.4697C541.644 46.0075 541.878 54.0433 546.774 58.3973C549.385 60.7218 555.053 63.3758 558.826 62.9205L558.683 63.0809C558.154 62.6082 550.157 62.8468 545.833 67.7689C543.526 70.3926 540.889 76.0996 541.34 79.8986L541.18 79.7555L541.184 79.7468Z" fill="#FFCC00"/>
<path d="M38.0261 114.444C38.5552 113.837 38.2906 104.708 32.7397 99.7647C29.7734 97.128 23.3378 94.114 19.0488 94.63L19.2136 94.4479C19.8164 94.9856 28.8887 94.7168 33.8022 89.1311C36.4259 86.1475 39.4225 79.6685 38.9021 75.3535L39.0886 75.5183C38.5508 76.1254 38.8197 85.2541 44.375 90.198C47.337 92.839 53.7726 95.853 58.0615 95.3326L57.9011 95.5147C57.2983 94.977 48.2216 95.2458 43.3125 100.836C40.6932 103.815 37.6965 110.294 38.2126 114.609L38.0304 114.449L38.0261 114.444Z" fill="#FFCC00"/>
<path d="M198.331 188.199C198.492 188.016 198.414 185.258 196.735 183.766C195.838 182.968 193.895 182.058 192.603 182.218L192.655 182.162C192.837 182.327 195.577 182.244 197.061 180.557C197.854 179.655 198.756 177.699 198.6 176.398L198.657 176.45C198.496 176.633 198.574 179.391 200.252 180.883C201.146 181.681 203.093 182.591 204.385 182.435L204.338 182.491C204.155 182.331 201.415 182.409 199.932 184.096C199.138 184.998 198.236 186.954 198.392 188.255L198.336 188.207L198.331 188.199Z" fill="#FFCC00"/>
<path opacity="0.05" d="M754.943 237.446C788.448 237.446 815.609 210.114 815.609 176.399C815.609 142.683 788.448 115.352 754.943 115.352C721.438 115.352 694.277 142.683 694.277 176.399C694.277 210.114 721.438 237.446 754.943 237.446Z" fill="#FFE600"/>
<path d="M771.526 139.863C775.72 147.062 778.14 155.436 778.14 164.383C778.14 189.332 759.427 209.879 735.358 212.611C737.045 212.81 738.754 212.928 740.493 212.928C764.21 212.928 783.439 193.582 783.439 169.713C783.439 158.129 778.903 147.622 771.531 139.863H771.526Z" fill="#FFCC00"/>
</g>
<defs>
<linearGradient id="paint0_linear_1598_205980" x1="699.95" y1="727" x2="699.95" y2="0" gradientUnits="userSpaceOnUse">
<stop stop-color="#DAD7E6"/>
<stop offset="0.12" stop-color="#C6C1D8"/>
<stop offset="0.54" stop-color="#8076AA"/>
<stop offset="0.85" stop-color="#54488E"/>
<stop offset="1" stop-color="#443683"/>
</linearGradient>
<clipPath id="clip0_1598_205980">
<rect width="1444.94" height="727" fill="white" transform="translate(-22.5186)"/>
</clipPath>
</defs>
</svg>
