<svg width="113" height="45" viewBox="0 0 113 45" fill="none" xmlns="http://www.w3.org/2000/svg">
    <path d="M26.367 25.882a53.864 53.864 0 0 0-.25-2.121c-.102-.73-.202-1.46-.36-2.18a121.63 121.63 0 0 0-.94-4.014 7.97 7.97 0 0 0-.63-1.887 2.55 2.55 0 0 0-.967-1.046 2.615 2.615 0 0 0-1.387-.376 5.54 5.54 0 0 0-2.033.382c-.186.066-.36.155-.546.232l.02.038c.245-.016.488-.044.732-.046.25-.01.502.003.75.042a1.319 1.319 0 0 1 .94.51 1.267 1.267 0 0 1 .23 1.03c-.045.498-.137.99-.212 1.485-.09.584-.152 1.173-.28 1.749a105.13 105.13 0 0 1-.834 3.507 34.368 34.368 0 0 1-1.41 4.243c-.394.98-.815 1.952-1.271 2.906-.438.916-.926 1.81-1.407 2.706-.345.644-.74 1.262-1.063 1.915a4.375 4.375 0 0 0-.488 2.552c.064.556.277 1.084.618 1.532.341.447.798.797 1.323 1.012a5.24 5.24 0 0 0 3.968.11 6.977 6.977 0 0 0 3.537-2.716 9.941 9.941 0 0 0 1.401-3.208c.445-1.729.667-3.505.662-5.288.005-.607-.017-1.213-.037-1.82a13.286 13.286 0 0 0-.066-1.249z" fill="#008E58"/>
    <path d="M17.926 19.939c.612-.035 1.22-.123 1.817-.265a2.12 2.12 0 0 0 1.049-.578 1.004 1.004 0 0 0 .286-.964 5.46 5.46 0 0 0-.343-.91 3.797 3.797 0 0 0-.396-.55l-.064.032c.018.088.035.176.055.265.071.276.064.566-.021.839a.65.65 0 0 1-.293.321.669.669 0 0 1-.433.07c-.545-.143-1.103-.25-1.633-.436a29.744 29.744 0 0 1-3.762-1.645 24.152 24.152 0 0 1-3.297-1.983 54.133 54.133 0 0 1-2.352-1.85 4.369 4.369 0 0 0-1.536-.884 2.134 2.134 0 0 0-1.312.006c-.425.14-.794.41-1.052.77a3.3 3.3 0 0 0-.558 2.684c.127.646.392 1.258.779 1.796a4.68 4.68 0 0 0 1.463 1.32 10.43 10.43 0 0 0 3.235 1.316c.868.207 1.748.38 2.63.509.812.117 1.629.19 2.448.219a24.97 24.97 0 0 0 3.29-.082z" fill="#008E58"/>
    <path d="M29.986 5.429a4.494 4.494 0 0 0-1.824-.835 4.536 4.536 0 0 0-2.012.04c-.968.229-1.885.63-2.707 1.182a16.698 16.698 0 0 0-2.798 2.254c-.58.56-1.13 1.149-1.678 1.745a23.247 23.247 0 0 0-2.173 2.79 5.716 5.716 0 0 0-1.108 2.325 1.19 1.19 0 0 0 .068.694c.092.22.247.41.447.543a2.97 2.97 0 0 0 1.465.37c.095.002.19-.003.285-.013l.005-.046c-.205-.117-.42-.218-.614-.353a.723.723 0 0 1-.397-.52.7.7 0 0 1 .198-.622c.114-.141.248-.266.4-.369.774-.48 1.545-.972 2.344-1.414a30.456 30.456 0 0 1 3.225-1.545 28.253 28.253 0 0 1 5.156-1.549 5.915 5.915 0 0 0 1.71-.514 2.12 2.12 0 0 0 .952-.841c.222-.37.323-.798.29-1.226a2.914 2.914 0 0 0-.388-1.178 2.97 2.97 0 0 0-.846-.918z" fill="#008E58"/>
    <path d="M47.935 20.31c0-.794-.656-1.439-1.465-1.439-.81 0-1.466.645-1.466 1.44v10.587c0 .795.656 1.44 1.466 1.44.809 0 1.465-.645 1.465-1.44V20.311zM63.435 20.31c0-.794-.656-1.439-1.465-1.439-.81 0-1.466.645-1.466 1.44v10.587c0 .795.656 1.44 1.466 1.44.809 0 1.465-.645 1.465-1.44V20.311zM77.227 19.471a6.64 6.64 0 0 0-3.51-.923 5.512 5.512 0 0 0-2.984.733 7.025 7.025 0 0 0-1.186.928.468.468 0 0 1-.786-.265l-.1-.681a.454.454 0 0 0-.154-.28.47.47 0 0 0-.304-.112h-1.762a.47.47 0 0 0-.329.134.454.454 0 0 0-.135.322v18.188a.45.45 0 0 0 .286.42.471.471 0 0 0 .178.035h2.003c.123 0 .24-.048.328-.133a.451.451 0 0 0 .136-.322v-5.957a.45.45 0 0 1 .282-.419.472.472 0 0 1 .503.09c.346.325.738.598 1.164.812.88.43 1.852.644 2.835.624a6.78 6.78 0 0 0 3.538-.909 6.492 6.492 0 0 0 2.39-2.497 8.013 8.013 0 0 0 0-7.262 6.556 6.556 0 0 0-2.393-2.526zm-.94 9.435c-.396.414-.877.74-1.41.958a4.145 4.145 0 0 1-1.688.304 4.099 4.099 0 0 1-1.68-.303 4.035 4.035 0 0 1-1.4-.96 5.126 5.126 0 0 1-1.202-3.291c0-1.201.424-2.365 1.201-3.292.39-.418.867-.748 1.4-.968a4.08 4.08 0 0 1 1.681-.308 4.145 4.145 0 0 1 2.206.563c.666.39 1.205.957 1.555 1.636.379.731.568 1.542.553 2.362a4.555 4.555 0 0 1-1.216 3.299zM88.479 25.293a.451.451 0 0 1 .007-.62l4.81-5.037a.453.453 0 0 0-.339-.768h-2.236a.474.474 0 0 0-.34.146L86.07 23.58a.465.465 0 0 1-.51.115.45.45 0 0 1-.294-.424v-8.507a.452.452 0 0 0-.136-.322.468.468 0 0 0-.328-.134h-2.004a.469.469 0 0 0-.328.133.452.452 0 0 0-.136.323v17.114a.448.448 0 0 0 .136.323.463.463 0 0 0 .328.133h2.004a.471.471 0 0 0 .328-.133.453.453 0 0 0 .136-.323v-5.183a.45.45 0 0 1 .084-.261.463.463 0 0 1 .5-.179.465.465 0 0 1 .235.148l4.956 5.778a.465.465 0 0 0 .354.162h2.454a.47.47 0 0 0 .422-.269.448.448 0 0 0-.077-.49l-5.715-6.292zM107.937 18.871h-2.002a.467.467 0 0 0-.327.134.452.452 0 0 0-.136.322v6.495a4.64 4.64 0 0 1-1.05 3.258c-.335.37-.749.665-1.213.862a3.509 3.509 0 0 1-1.469.278c-2.175 0-3.263-1.303-3.262-3.91v-6.982a.452.452 0 0 0-.136-.322.469.469 0 0 0-.329-.134H96.01a.469.469 0 0 0-.328.134.452.452 0 0 0-.136.322v7.282a6.415 6.415 0 0 0 1.423 4.535 5.06 5.06 0 0 0 1.788 1.179c.675.262 1.4.378 2.124.341a5.517 5.517 0 0 0 2.834-.72 4.851 4.851 0 0 0 1.177-.956.464.464 0 0 1 .494-.132.461.461 0 0 1 .315.397l.063.675a.457.457 0 0 0 .15.295.47.47 0 0 0 .313.118h1.71a.472.472 0 0 0 .328-.133.439.439 0 0 0 .136-.323v-12.55a.447.447 0 0 0-.133-.328.462.462 0 0 0-.331-.137zM42.665 18.872h-2.942a.47.47 0 0 1-.328-.133.453.453 0 0 1-.136-.323V14.77a.452.452 0 0 0-.136-.323.469.469 0 0 0-.328-.133h-2.003a.47.47 0 0 0-.328.133.452.452 0 0 0-.136.323v3.647a.447.447 0 0 1-.136.323.464.464 0 0 1-.328.133h-1.421a.469.469 0 0 0-.328.134.452.452 0 0 0-.137.322v1.503a.447.447 0 0 0 .137.322.463.463 0 0 0 .328.133h1.421a.47.47 0 0 1 .328.134.452.452 0 0 1 .136.322v6.196c0 1.65.396 2.795 1.19 3.435a4.945 4.945 0 0 0 3.205.964h1.8a.468.468 0 0 0 .328-.134.452.452 0 0 0 .136-.323v-1.532c0-.12-.049-.237-.136-.322a.469.469 0 0 0-.328-.133H41.41a2.564 2.564 0 0 1-1.671-.421 1.983 1.983 0 0 1-.485-1.534v-6.192c0-.121.05-.237.136-.323a.469.469 0 0 1 .329-.133h2.942a.47.47 0 0 0 .328-.133.452.452 0 0 0 .136-.322v-1.503a.452.452 0 0 0-.133-.323.47.47 0 0 0-.327-.137zM58.165 18.872h-2.94a.469.469 0 0 1-.43-.281.449.449 0 0 1-.034-.175V14.77a.452.452 0 0 0-.136-.323.469.469 0 0 0-.329-.133h-2.004a.469.469 0 0 0-.328.133.452.452 0 0 0-.136.323v3.647a.447.447 0 0 1-.136.323.464.464 0 0 1-.328.133h-1.421a.469.469 0 0 0-.328.134.452.452 0 0 0-.137.322v1.503a.447.447 0 0 0 .137.322.463.463 0 0 0 .328.133h1.421c.123 0 .24.049.328.134a.452.452 0 0 1 .136.322v6.196c0 1.65.396 2.795 1.19 3.435a4.945 4.945 0 0 0 3.205.964h1.8a.471.471 0 0 0 .328-.134.456.456 0 0 0 .136-.323v-1.532a.451.451 0 0 0-.136-.322.468.468 0 0 0-.328-.133H56.91a2.565 2.565 0 0 1-1.671-.421 1.985 1.985 0 0 1-.484-1.534v-6.192c0-.12.049-.237.136-.322a.469.469 0 0 1 .328-.134h2.94a.472.472 0 0 0 .33-.133.453.453 0 0 0 .135-.322v-1.503a.452.452 0 0 0-.133-.323.469.469 0 0 0-.326-.137zM47.935 15.752c0-.795-.656-1.44-1.465-1.44-.81 0-1.466.645-1.466 1.44 0 .795.656 1.44 1.466 1.44.809 0 1.465-.645 1.465-1.44zM63.435 15.752c0-.795-.656-1.44-1.465-1.44-.81 0-1.466.645-1.466 1.44 0 .795.656 1.44 1.466 1.44.809 0 1.465-.645 1.465-1.44z" fill="#303030"/>
</svg>
