<svg width="78" height="32" viewBox="0 0 78 32" fill="none" xmlns="http://www.w3.org/2000/svg">
    <path d="M18.91 18.255a35.91 35.91 0 0 0-.165-1.415c-.069-.486-.135-.973-.24-1.453a80.899 80.899 0 0 0-.628-2.676 5.311 5.311 0 0 0-.42-1.258 1.7 1.7 0 0 0-.644-.697 1.743 1.743 0 0 0-.925-.25c-.464-.002-.924.085-1.355.254-.124.044-.24.103-.364.155l.014.025c.162-.01.324-.03.487-.03.167-.008.335.001.5.027a.88.88 0 0 1 .627.34.845.845 0 0 1 .153.687c-.03.332-.091.66-.142.99-.06.389-.101.782-.186 1.166a69.693 69.693 0 0 1-.556 2.338 22.898 22.898 0 0 1-.94 2.828 33.215 33.215 0 0 1-.848 1.938c-.291.61-.617 1.206-.937 1.804-.23.429-.494.84-.709 1.276a2.918 2.918 0 0 0-.325 1.702c.042.37.184.723.412 1.02.227.3.532.532.882.676a3.493 3.493 0 0 0 2.645.074 4.65 4.65 0 0 0 2.358-1.812 6.63 6.63 0 0 0 .934-2.138c.296-1.153.445-2.337.441-3.526.004-.404-.01-.808-.024-1.212a8.858 8.858 0 0 0-.044-.834z" fill="#008E58"/>
    <path d="M13.284 14.293a6.881 6.881 0 0 0 1.211-.177c.266-.059.51-.192.7-.385a.67.67 0 0 0 .19-.643 3.637 3.637 0 0 0-.228-.606 2.536 2.536 0 0 0-.264-.367l-.043.021.036.177c.048.184.044.378-.013.56a.434.434 0 0 1-.195.214.446.446 0 0 1-.289.046c-.364-.095-.736-.167-1.089-.29a19.83 19.83 0 0 1-2.508-1.097 16.095 16.095 0 0 1-2.198-1.322A36.044 36.044 0 0 1 7.026 9.19a2.912 2.912 0 0 0-1.024-.59c-.285-.09-.591-.089-.875.004-.283.093-.529.273-.7.513a2.22 2.22 0 0 0-.373 1.79c.085.43.262.839.52 1.197.257.358.59.658.975.88.663.411 1.392.708 2.157.878.578.138 1.165.253 1.753.339.54.078 1.085.127 1.632.146.731.03 1.464.011 2.193-.055z" fill="#008E58"/>
    <path d="M21.324 4.62a3.024 3.024 0 0 0-2.558-.53 5.51 5.51 0 0 0-1.804.787c-.675.434-1.3.937-1.865 1.503a27.22 27.22 0 0 0-1.119 1.163 15.505 15.505 0 0 0-1.449 1.86 3.81 3.81 0 0 0-.738 1.55.794.794 0 0 0 .343.825 1.98 1.98 0 0 0 1.167.238l.003-.03c-.136-.078-.28-.146-.41-.236a.482.482 0 0 1-.264-.347.468.468 0 0 1 .132-.414 1.23 1.23 0 0 1 .266-.246c.517-.32 1.031-.649 1.563-.943a20.316 20.316 0 0 1 2.15-1.03 18.84 18.84 0 0 1 3.437-1.033c.396-.056.78-.171 1.14-.342.265-.12.487-.315.635-.561.148-.247.216-.532.194-.817a1.942 1.942 0 0 0-.259-.786 1.98 1.98 0 0 0-.564-.612z" fill="#008E58"/>
    <path d="M33.29 14.541c0-.53-.438-.96-.977-.96-.54 0-.977.43-.977.96v7.058c0 .53.437.96.977.96s.977-.43.977-.96v-7.058zM43.624 14.541c0-.53-.438-.96-.977-.96-.54 0-.977.43-.977.96v7.058c0 .53.437.96.977.96s.977-.43.977-.96v-7.058zM52.818 13.98a4.426 4.426 0 0 0-2.34-.616 3.674 3.674 0 0 0-1.99.489c-.285.178-.55.385-.79.619a.312.312 0 0 1-.524-.177l-.066-.455a.303.303 0 0 0-.104-.186.313.313 0 0 0-.202-.075h-1.175a.314.314 0 0 0-.22.09.305.305 0 0 0-.09.214V26.01a.3.3 0 0 0 .191.28.316.316 0 0 0 .119.023h1.335c.082 0 .16-.032.219-.089a.3.3 0 0 0 .09-.214v-3.972a.3.3 0 0 1 .189-.279.314.314 0 0 1 .335.06c.23.216.492.398.776.541a4.124 4.124 0 0 0 1.89.416 4.52 4.52 0 0 0 2.359-.605 4.328 4.328 0 0 0 1.593-1.666 5.342 5.342 0 0 0 0-4.841 4.372 4.372 0 0 0-1.595-1.684zm-.627 6.29a2.722 2.722 0 0 1-.94.638c-.356.145-.74.214-1.125.203a2.733 2.733 0 0 1-1.12-.203 2.69 2.69 0 0 1-.934-.639 3.417 3.417 0 0 1-.801-2.194c0-.801.283-1.577.8-2.195.26-.279.579-.499.933-.646a2.721 2.721 0 0 1 1.122-.205 2.763 2.763 0 0 1 1.47.376c.444.26.804.638 1.037 1.09.252.488.379 1.028.368 1.575.036.81-.255 1.6-.81 2.2zM60.319 17.86a.301.301 0 0 1 .005-.412l3.207-3.358a.302.302 0 0 0 .058-.33.307.307 0 0 0-.284-.182h-1.491a.316.316 0 0 0-.227.097l-2.874 3.045a.31.31 0 0 1-.536-.206v-5.672a.301.301 0 0 0-.09-.215.313.313 0 0 0-.219-.089h-1.336a.312.312 0 0 0-.219.09.301.301 0 0 0-.09.214v11.41a.298.298 0 0 0 .09.215.312.312 0 0 0 .22.09h1.335a.314.314 0 0 0 .219-.09.304.304 0 0 0 .09-.215v-3.455a.3.3 0 0 1 .203-.286.315.315 0 0 1 .343.09l3.304 3.853a.308.308 0 0 0 .236.108H63.9a.313.313 0 0 0 .282-.18.3.3 0 0 0-.052-.326l-3.81-4.195zM73.29 13.581h-1.334a.313.313 0 0 0-.218.09.301.301 0 0 0-.09.214v4.33a3.093 3.093 0 0 1-.701 2.172c-.224.247-.5.443-.808.575a2.343 2.343 0 0 1-.98.185c-1.45 0-2.175-.869-2.175-2.606v-4.655a.301.301 0 0 0-.09-.215.313.313 0 0 0-.22-.09H65.34a.313.313 0 0 0-.219.09.301.301 0 0 0-.09.215v4.855a4.277 4.277 0 0 0 .949 3.023c.335.343.741.61 1.191.785.45.175.933.253 1.417.228a3.677 3.677 0 0 0 1.889-.48c.294-.17.559-.385.784-.637a.31.31 0 0 1 .33-.088.3.3 0 0 1 .21.265l.042.45a.302.302 0 0 0 .1.196c.057.05.131.079.209.079h1.14a.316.316 0 0 0 .219-.089.303.303 0 0 0 .09-.215V13.89a.297.297 0 0 0-.089-.219.31.31 0 0 0-.22-.09zM29.777 13.581h-1.962a.317.317 0 0 1-.219-.089.303.303 0 0 1-.09-.215v-2.432a.301.301 0 0 0-.09-.215.313.313 0 0 0-.22-.089h-1.335a.312.312 0 0 0-.219.09.301.301 0 0 0-.09.214v2.432a.298.298 0 0 1-.09.215.31.31 0 0 1-.22.09h-.947a.312.312 0 0 0-.219.088.301.301 0 0 0-.09.215v1.002a.298.298 0 0 0 .09.215.31.31 0 0 0 .22.088h.947c.082 0 .16.033.218.09.058.057.09.134.09.215v4.13c0 1.1.265 1.863.794 2.29.613.455 1.37.683 2.137.642h1.2c.082 0 .16-.032.219-.089a.301.301 0 0 0 .09-.215v-1.022a.302.302 0 0 0-.09-.214.313.313 0 0 0-.219-.089h-.742a1.71 1.71 0 0 1-1.114-.28 1.322 1.322 0 0 1-.323-1.023v-4.128c0-.08.032-.158.09-.215a.312.312 0 0 1 .22-.09h1.96c.083 0 .162-.031.22-.088a.302.302 0 0 0 .09-.215v-1.001a.301.301 0 0 0-.088-.216.312.312 0 0 0-.218-.09zM40.11 13.581h-1.96a.313.313 0 0 1-.286-.188.3.3 0 0 1-.023-.116v-2.432a.301.301 0 0 0-.091-.215.312.312 0 0 0-.22-.089h-1.335a.312.312 0 0 0-.22.09.301.301 0 0 0-.09.214v2.432a.298.298 0 0 1-.09.215.312.312 0 0 1-.219.09h-.947a.313.313 0 0 0-.22.088.301.301 0 0 0-.09.215v1.002a.298.298 0 0 0 .09.215.31.31 0 0 0 .22.088h.947c.082 0 .16.033.219.09.058.057.09.134.09.215v4.13c0 1.1.265 1.863.793 2.29.613.455 1.37.683 2.138.642h1.2a.313.313 0 0 0 .285-.188.3.3 0 0 0 .024-.116v-1.022a.3.3 0 0 0-.091-.214.312.312 0 0 0-.218-.089h-.743a1.71 1.71 0 0 1-1.114-.28 1.326 1.326 0 0 1-.322-1.023v-4.128c0-.08.032-.158.09-.215a.312.312 0 0 1 .219-.09h1.96a.312.312 0 0 0 .287-.186.298.298 0 0 0 .023-.117v-1.001a.301.301 0 0 0-.088-.216.312.312 0 0 0-.218-.09zM33.29 11.501c0-.53-.438-.96-.977-.96-.54 0-.977.43-.977.96s.437.96.977.96.977-.43.977-.96zM43.624 11.501c0-.53-.438-.96-.977-.96-.54 0-.977.43-.977.96s.437.96.977.96.977-.43.977-.96z" fill="#fff"/>
</svg>
