<svg width="200" height="201" viewBox="0 0 200 201" fill="none" xmlns="http://www.w3.org/2000/svg">
    <path d="M174.44 41.73H32.22c-10.73 0-19.43 8.7-19.43 19.43v84.75c0 10.731 8.7 19.43 19.43 19.43h142.22c10.731 0 19.43-8.699 19.43-19.43V61.16c0-10.73-8.699-19.43-19.43-19.43z" fill="#FFF2CF"/>
    <path d="M60.17 190.889c24.058 0 43.56-3.662 43.56-8.18 0-4.517-19.502-8.18-43.56-8.18-24.057 0-43.56 3.663-43.56 8.18 0 4.518 19.503 8.18 43.56 8.18z" fill="#DADADA"/>
    <path d="M90.21 26.35h76.92c4.76 0 8.63 3.87 8.63 8.63v126.9H81.58V34.98c0-4.76 3.87-8.63 8.63-8.63z" fill="#007A48" stroke="#19A069" stroke-width="6" stroke-miterlimit="10"/>
    <path d="M174.76 61.24H85.42v3.88h89.34v-3.88zM174.76 96.2H85.42v3.879h89.34v-3.88zM174.76 131.16H85.42v3.88h89.34v-3.88z" fill="#19A069"/>
    <path d="M161.67 41.99h-8.27a3.93 3.93 0 0 0-3.93 3.93v12.26a3.93 3.93 0 0 0 3.93 3.93h8.27a3.93 3.93 0 0 0 3.93-3.93V45.92a3.93 3.93 0 0 0-3.93-3.93zM134.9 42.18h-8.27a3.93 3.93 0 0 0-3.93 3.93v12.26a3.93 3.93 0 0 0 3.93 3.93h8.27a3.93 3.93 0 0 0 3.93-3.93V46.11a3.93 3.93 0 0 0-3.93-3.93zM106.03 41.94h-8.27a3.93 3.93 0 0 0-3.93 3.93v12.26a3.93 3.93 0 0 0 3.93 3.93h8.27a3.93 3.93 0 0 0 3.93-3.93V45.87a3.93 3.93 0 0 0-3.93-3.93zM161.67 76.629h-8.27a3.93 3.93 0 0 0-3.93 3.93v12.26a3.93 3.93 0 0 0 3.93 3.93h8.27a3.93 3.93 0 0 0 3.93-3.93v-12.26a3.93 3.93 0 0 0-3.93-3.93zM134.9 76.81h-8.27a3.93 3.93 0 0 0-3.93 3.93V93a3.93 3.93 0 0 0 3.93 3.93h8.27a3.93 3.93 0 0 0 3.93-3.93V80.74a3.93 3.93 0 0 0-3.93-3.93zM106.03 76.57h-8.27a3.93 3.93 0 0 0-3.93 3.93v12.26a3.93 3.93 0 0 0 3.93 3.93h8.27a3.93 3.93 0 0 0 3.93-3.93V80.5a3.93 3.93 0 0 0-3.93-3.93zM161.67 111.26h-8.27a3.93 3.93 0 0 0-3.93 3.93v12.26a3.93 3.93 0 0 0 3.93 3.93h8.27a3.93 3.93 0 0 0 3.93-3.93v-12.26a3.93 3.93 0 0 0-3.93-3.93zM134.9 111.439h-8.27a3.93 3.93 0 0 0-3.93 3.93v12.26a3.93 3.93 0 0 0 3.93 3.93h8.27a3.93 3.93 0 0 0 3.93-3.93v-12.26a3.93 3.93 0 0 0-3.93-3.93zM106.03 111.199h-8.27a3.93 3.93 0 0 0-3.93 3.93v12.26a3.93 3.93 0 0 0 3.93 3.93h8.27a3.93 3.93 0 0 0 3.93-3.93v-12.26a3.93 3.93 0 0 0-3.93-3.93z" fill="#19A069"/>
    <path d="M62.36 152.6a62.61 62.61 0 0 1 12.85 30.38c.22 1.62 2.8 1.65 2.58 0-1.57-11.81-6.23-22.85-13.61-32.2-1.03-1.31-2.85.53-1.83 1.83l.01-.01zM91.89 99.81l-.19.38-.34.16s.01.04.01.03c0 .02.3.3.34.35.23.35.25.66.2 1.08-.07.7.65 1.29 1.29 1.29.76 0 1.22-.6 1.29-1.29.14-1.38-.54-2.78-1.68-3.56-.6-.42-1.4-.62-2.12-.39-.83.27-1.43 1.06-1.39 1.94.03.7.57 1.29 1.29 1.29.68 0 1.32-.59 1.29-1.29l.01.01z" fill="#000"/>
    <path d="M95.02 68.41c1.46 7.45.27 14.86-4.1 15.72-4.37.86-9.08-4.49-10.54-11.94-1.46-7.45.05-14.22 4.41-15.07 4.36-.85 8.77 3.85 10.23 11.3v-.01z" fill="#FFCB00"/>
    <path d="M89.427 82.353c2.748-.539 3.954-6.194 2.693-12.633-1.261-6.44-4.51-11.223-7.259-10.685-2.748.539-3.953 6.195-2.692 12.633 1.26 6.44 4.51 11.223 7.258 10.684z" fill="#A3EDFF"/>
    <path d="m88.71 83.3 1.16 5.91 2.4-.47-1.14-5.84s-2.44.27-2.42.4z" fill="#FFCB00"/>
    <path d="M85.41 61.61c.76.01 1.32.52 1.76 1.09.55.71.96 1.55 1.35 2.36.9 1.86 1.54 3.83 1.92 5.87.11.6 1.04.41.92-.18a24.52 24.52 0 0 0-2.2-6.51c-.74-1.46-1.79-3.54-3.69-3.57-.6 0-.68.93-.07.94h.01zM90.77 73.44c.03.17.05.33.07.5 0 .09.02.18.02.27v.17c0 .34 0 .69-.05 1.03-.03.24.19.5.43.5.26 0 .47-.17.5-.43.09-.74.06-1.49-.07-2.23-.04-.24-.31-.43-.55-.37-.24.06-.42.29-.37.55l.02.01z" fill="#fff"/>
    <path d="m95.18 104.551-1.55.3c-.78.15-1.51-.25-1.63-.9l-2.56-14.25c-.11-.63.41-1.27 1.18-1.42l.81-.16c.76-.15 1.48.23 1.62.85l3.3 14.1c.15.65-.38 1.31-1.17 1.47v.01z" fill="#FFCB00"/>
    <path d="M79.75 117.052c5.04 2.95 11.94 6.28 17.29 2.01 5.331-4.27 3.251-11.7.22-16.62-.87-1.41-3.11-.12-2.23 1.3 2.4 3.9 4.81 10.49-.09 13.66-4.48 2.89-9.94-.27-13.88-2.58-1.44-.84-2.74 1.39-1.3 2.23h-.01z" fill="#000"/>
    <path d="M48.6 61.35c-2.63.12-5.29-.83-7.25-2.58-.72-.64-1.36-1.41-1.65-2.33-.29-.92-.18-2 .47-2.72.98-1.09 2.73-.96 4.09-.43 1.36.53 2.64 1.38 4.1 1.49-1.67-2.11-2.36-4.97-1.84-7.61.18-.92.53-1.84 1.19-2.5.66-.66 1.71-1 2.57-.64.86.35 1.34 1.26 1.66 2.13.87 2.32 1.14 4.86.77 7.31.3-1.42.6-2.86 1.3-4.12.7-1.26 1.85-2.36 3.27-2.63s3.07.51 3.47 1.9c.35 1.2-.25 2.46-.89 3.54a35.954 35.954 0 0 1-5.2 6.77M20.11 152.731c-.74 2.16-2.35 4-4.39 5.03-.75.37-1.57.65-2.41.59-.84-.06-1.67-.5-2.05-1.25-.56-1.14.09-2.51.95-3.44.86-.93 1.95-1.69 2.51-2.83-2.24.68-4.77.32-6.73-.95-.68-.44-1.32-1.01-1.64-1.76-.32-.75-.26-1.7.3-2.28.56-.58 1.44-.68 2.25-.66 2.15.03 4.29.63 6.15 1.71-1.05-.69-2.11-1.4-2.92-2.36s-1.32-2.25-1.08-3.48 1.39-2.32 2.64-2.2c1.08.1 1.91.98 2.57 1.84 1.52 1.96 2.8 4.1 3.8 6.36" fill="#F47878"/>
    <path d="M39.22 156.86c21.54-3.16 38.51-23.5 40.15-45.2 1.56-20.63-9.49-41.1-26.26-53.26-7.01.96-11.8 7.05-13.44 11.4-2.76 7.36-1.25 15.54.07 23.29 1.33 7.75 2.35 16.13-1.23 23.13-5.12 10.03-18.56 14.95-20.82 25.98-.62 3.05-.18 6.14 1 8.98 4.73 5.06 13.26 6.75 20.52 5.68h.01z" fill="#FFD4E5"/>
    <path d="M28.14 161.241c6.97 3.46 15.34 3.08 22.78.8 18.41-5.64 32.35-22.7 35.86-41.63 3.51-18.93-2.84-39.07-15.29-53.75l-1.01-.68c-6.64-6.46-12.53-8.23-17.36-7.57 16.77 12.16 27.82 32.63 26.26 53.26-1.64 21.71-18.61 42.04-40.15 45.2-7.26 1.06-15.79-.62-20.52-5.68 1.78 4.27 5.25 7.98 9.44 10.06l-.01-.01z" fill="#FF9FC4"/>
    <path d="M35.99 157.222c2.69 9.11 2.46 18.75-.62 27.73-.54 1.58 1.96 2.25 2.49.69 3.22-9.39 3.43-19.59.62-29.11-.47-1.59-2.96-.91-2.49.69zM94.97 97.11c-1.09.27-2.09.85-2.88 1.65-1.17 1.19.66 3.021 1.83 1.831.51-.52 1.04-.81 1.74-.99.7-.18 1.08-.93.9-1.59-.18-.66-.91-1.07-1.59-.9z" fill="#000"/>
    <path d="M95.62 99.25c-.51.28-.97.38-1.57.35-.7-.03-1.29.62-1.29 1.29 0 .72.59 1.26 1.29 1.29 1.01.04 2-.21 2.87-.71.61-.34.81-1.17.46-1.77-.35-.6-1.16-.81-1.77-.46l.01.01z" fill="#000"/>
    <path d="m95.84 101.47-2.35.49c-.68.14-1.08.95-.9 1.59.19.71.9 1.05 1.59.9l2.35-.49c.68-.14 1.08-.95.9-1.59-.19-.71-.9-1.05-1.59-.9zM39.27 104.361c-5.05 2.62-9.67 7.16-9.65 13.23 0 2.74 1.09 5.41 3.23 7.18 2.01 1.66 4.61 2.41 7.16 1.77 1.4-.35.81-2.52-.6-2.17-2 .5-4.06-.26-5.5-1.67-1.62-1.59-2.2-3.85-1.99-6.07.46-4.85 4.44-8.23 8.49-10.33 1.29-.67.15-2.61-1.14-1.94z" fill="#000"/>
    <path d="m38.66 125.061-3.34 2.8c-.21.18-.33.53-.33.8 0 .28.12.61.33.8.21.19.5.34.8.33.3-.01.56-.13.8-.33l3.34-2.8c.21-.18.33-.53.33-.8 0-.28-.12-.61-.33-.8-.21-.19-.5-.34-.8-.33-.3.01-.56.13-.8.33z" fill="#000"/>
    <path d="M38.8 126.171c-.64.9-1.12 1.92-1.44 2.98-.17.56.2 1.25.79 1.38.59.13 1.2-.18 1.38-.79.1-.32.21-.64.34-.95l-.11.27c.26-.62.59-1.21.99-1.76.16-.23.18-.61.11-.87-.07-.26-.27-.54-.52-.67-.26-.14-.58-.21-.87-.11-.29.1-.49.27-.67.52z" fill="#000"/>
    <path d="M38.63 125.431c.06 1.02.51 1.95.65 2.96l-.04-.3c0 .07.02.13.02.2.02.3.11.58.33.8.2.2.52.34.8.33.28-.01.59-.11.8-.33.21-.22.35-.5.33-.8-.06-1.02-.51-1.95-.65-2.96l.04.3c0-.07-.02-.13-.02-.2-.02-.3-.11-.58-.33-.8-.2-.2-.52-.34-.8-.33-.28.01-.59.11-.8.33-.21.22-.35.5-.33.8zM38.48 184.951c.11-.1.22-.209.34-.289-.34.22.09-.05.15-.09.25-.16.51-.301.78-.431.15-.07.14-.059-.05.021.07-.03.14-.05.21-.08.14-.05.28-.091.43-.131.15-.04.29-.069.43-.099.07-.01.15-.031.22-.041-.21.03-.24.03-.07 0 .3-.02.59-.04.89-.03.14 0 .31.001.44.041-.41-.12.06.02.15.04.14.03.29.07.43.11.07.02.14.049.21.069-.19-.08-.21-.089-.06-.019.06.03.13.07.19.11.14.09.12.079-.04-.041.05.05.11.101.16.151-.11-.16-.14-.191-.08-.101.16.36-.07-.219.03.071.03.17.03.129-.01-.091 0 .17 0 .141.02-.099-.05.16-.04.13.04-.08.14-.17.16-.19.06-.08.43-.34-.07.069-.09.029.21-.09.23-.1.08-.05-.06.02-.13.04-.2.05-.07.01-.13.03-.2.04.23-.03.26-.03.1-.01-.36.03-.71.061-1.07.071-.74.03-1.48.03-2.22 0-.37-.02-.74-.05-1.11-.08l-.55-.06c.34.04-.23-.031-.29-.041l.36 2.741c.32-.2.7-.471 1.07-.571-.33.09.03 0 .09-.03.08-.03.15-.05.23-.08.21-.07.43-.129.64-.179.2-.05.4-.08.6-.12.22-.05-.36.03.02 0 .1 0 .2-.021.3-.031.43-.03.85-.02 1.27.02.78.07 1.53-.74 1.5-1.5-.04-.87-.66-1.43-1.5-1.5-1.99-.17-4.06.351-5.75 1.411-.51.32-.8.89-.72 1.49.07.53.5 1.16 1.07 1.25 1.51.23 3.02.359 4.55.319 1.35-.04 3.11-.019 4.05-1.169 1.21-1.48.53-3.57-1.09-4.42-1.29-.67-2.79-.761-4.2-.551-1.41.21-2.85.931-3.94 1.931-.58.53-.58 1.59 0 2.12.62.57 1.5.57 2.12 0l.01.009zM77.63 183.041a10.518 10.518 0 0 1 1.87-1.15c.06-.03.13-.06.19-.09-.03.01-.19.07-.03.02.31-.11.62-.23.94-.32.27-.08.55-.14.83-.19.06-.01.42-.07.29-.05-.17.02.07 0 .08 0 .09 0 .19-.02.28-.03.24-.02.47-.01.7-.01.29 0-.25-.06.03 0 .12.03.25.05.37.09.05.02.38.12.17.05-.21-.07.09.06.15.08 0 0 .13.07.13.08 0 .03-.22-.22-.11-.09l.1.1c.14.13-.02-.02-.06-.09.14.2-.07-.3 0 .02.04.16-.03-.17-.02-.16 0 .09-.05.14.01 0 .08-.18 0-.05-.01 0 0 0 .12-.29.05-.13 0 .01-.07.13-.08.13-.01 0 .23-.23.04-.07-.21.18.22-.12-.02.03-.09.05-.19.11-.28.16-.24.14.21-.06-.05.03-.12.04-.25.08-.37.12-.25.07-.51.12-.77.16-.16.03-.32.05-.47.08-.18.03-.03 0 0 0-.11.01-.21.03-.32.04-1.54.17-3.09.15-4.63-.05l.76 2.8c.42-.28.85-.54 1.3-.76.11-.05.22-.1.32-.15.41-.19-.14.05.1-.05a10.871 10.871 0 0 1 2.3-.65c.12-.02.24-.03.36-.04.26-.02.52-.04.79-.04.78-.02 1.54-.68 1.5-1.5-.04-.82-.66-1.52-1.5-1.5-2.37.06-4.71.77-6.68 2.1-.53.36-.9 1.04-.69 1.69.21.65.76 1.01 1.45 1.1 1.64.22 3.3.22 4.95.01 1.46-.19 3.14-.4 4.19-1.56 1.25-1.38.84-3.37-.67-4.34-1.28-.82-2.83-.75-4.26-.52-1.7.28-3.37 1.02-4.73 2.07-.62.48-1.02 1.31-.54 2.05.39.61 1.39 1.05 2.05.54l-.01-.01z" fill="#000"/>
    <path d="M49.04 88.992c3.48-1.01 7.19-1.14 10.46-.7l-.44-4.61-9.92.68-.11 4.64.01-.01z" fill="#fff"/>
    <path d="M49.06 84.091c.16 2.56 2.18 3.55 4.93 3.38 2.75-.17 5.21-1.44 5.05-4-.16-2.56-2.52-4.5-5.28-4.33-2.76.17-4.86 2.39-4.7 4.95z" fill="#fff"/>
    <path d="M55.41 87.771a3.16 3.16 0 1 0 0-6.32 3.16 3.16 0 0 0 0 6.32z" fill="#000"/>
    <path d="M68.35 87.55c3.88-.85 6.38-1.26 10.46-.7l-.41-4.5-9.96.18-.08 5.01-.01.01z" fill="#fff"/>
    <path d="M78.38 82.25c.16 2.56-2.31 3.39-5.06 3.57-2.75.18-4.75-.38-4.91-2.94-.16-2.56 1.94-4.78 4.7-4.95 2.76-.17 5.12 1.77 5.28 4.33l-.01-.01z" fill="#fff"/>
    <path d="M84.585 93.033c.076-2.086-2.904-3.889-6.657-4.026-3.753-.138-6.858 1.442-6.934 3.528-.076 2.086 2.904 3.89 6.657 4.027s6.857-1.442 6.934-3.529z" fill="#F480B5"/>
    <path d="M83.081 91.76c.17.59 1.06 2.47-.24 2.44-.53-.01-1.1-.6-1.49-.88l-2.3-1.63.71-.37c.03.65.55 2.7-.41 2.95-.41.11-.67-.14-.94-.42-.62-.66-1.07-1.59-2.01-1.88l.45-.1c-.18.13.15 1.98.17 2.2.03.39-.44.51-.71.37-.58-.29-1.04-.71-1.49-1.17-.32-.33-.46-.7-.95-.58-.49.12-.23.14-.34.57-.26 1.04-1.28.66-1.69-.02-.31-.51.51-.94.82-.44-.5-.83.51-1.56 1.24-1.42 1.18.23 1.87 1.75 2.92 2.28l-.71.37c-.05-.61-.67-2.72.34-2.96.45-.11.95.37 1.25.61.19.15 1.47 1.67 1.54 1.64l-.33.31c.23-.56-.03-1.76-.06-2.36-.02-.35.44-.57.71-.37.3.21 3.14 2.46 3.32 2.33l-.24.39c-.02-.54-.3-1.15-.44-1.67-.16-.57.74-.78.9-.21l-.02.02z" fill="#EEA7C2"/>
    <path d="M50.747 97.866c3.752-.157 6.724-1.975 6.636-4.06-.087-2.087-3.199-3.65-6.951-3.494-3.753.157-6.724 1.975-6.637 4.06.087 2.086 3.2 3.65 6.952 3.494z" fill="#F480B5"/>
    <path d="M55.78 92.651c.21.57 1.25 2.38-.04 2.45-.53.03-1.14-.51-1.55-.76l-2.42-1.44.68-.43c.08.65.76 2.65-.18 2.97-.4.14-.68-.09-.97-.35-.67-.6-1.19-1.5-2.15-1.72l.44-.14c-.17.15.3 1.96.34 2.18.07.38-.4.54-.68.43-.61-.25-1.09-.62-1.58-1.05-.35-.31-.52-.66-1-.51-.48.15-.22.16-.29.59-.18 1.06-1.22.76-1.69.11-.35-.49.43-.98.78-.5-.56-.79.38-1.6 1.12-1.51 1.19.14 2 1.6 3.09 2.05l-.68.43c-.1-.6-.88-2.66.11-2.98.44-.14.98.29 1.3.51.2.14 1.59 1.55 1.67 1.52l-.31.34c.19-.57-.17-1.76-.24-2.35-.04-.34.39-.6.68-.43.32.19 3.32 2.21 3.49 2.06l-.21.41c-.06-.54-.38-1.13-.57-1.63-.21-.56.67-.84.88-.28l-.02.03z" fill="#EEA7C2"/>
    <path d="M74.51 86.49a3.16 3.16 0 1 0 0-6.32 3.16 3.16 0 0 0 0 6.32z" fill="#000"/>
    <path d="M75.78 85.6a.71.71 0 1 0 0-1.42.71.71 0 0 0 0 1.42zM76.21 83.66a.44.44 0 1 0 0-.88.44.44 0 0 0 0 .88zM73.94 84.05a1.43 1.43 0 1 0 0-2.86 1.43 1.43 0 0 0 0 2.86z" fill="#fff"/>
    <path d="M77.66 85.2c0-.1-.17-1.28-.17-1.28l-.41 1.17-.98-.02.87.5.18 1.18.41-1.17.98-.18-.88-.21v.01zM73.09 81.4c0-.14-.25-1.82-.25-1.82l-.59 1.67-1.4-.02 1.25.72.25 1.68.59-1.67 1.4-.26-1.25-.3z" fill="#FFCF00"/>
    <path d="M56.6 86.861a.71.71 0 1 0 0-1.42.71.71 0 0 0 0 1.42zM57.02 84.933a.44.44 0 1 0 0-.88.44.44 0 0 0 0 .88zM54.76 85.311a1.43 1.43 0 1 0 0-2.86 1.43 1.43 0 0 0 0 2.86z" fill="#fff"/>
    <path d="M58.48 86.471c0-.1-.17-1.28-.17-1.28l-.41 1.17-.98-.02.87.5.18 1.18.41-1.17.98-.18-.88-.21v.01zM53.91 82.662c0-.14-.25-1.82-.25-1.82l-.59 1.67-1.4-.02 1.25.72.25 1.68.59-1.67 1.4-.26-1.25-.3z" fill="#FFCF00"/>
    <path d="M65.394 96.545c1.41-.103 2.439-1.74 2.299-3.657-.14-1.917-1.398-3.387-2.808-3.284-1.41.103-2.44 1.74-2.299 3.658.14 1.916 1.398 3.387 2.808 3.283z" fill="#000"/>
    <path d="M62.71 94.09s3.19-1.96 4.46 1.18c0 0-.62 1.85-2.85 1.08-1.28-.44-1.62-2.26-1.62-2.26h.01z" fill="#EF81A5"/>
    <path d="M51.18 75.301c.05-.1.1-.19.15-.28.02-.04.05-.08.08-.12 0-.01.09-.13.04-.06-.06.08.06-.07.07-.08.03-.04.06-.07.09-.1.07-.08.15-.15.23-.22.01 0 .12-.1.06-.05-.07.06.09-.06.09-.06l.24-.15c.04-.02.08-.04.13-.06.19-.1-.08.02.04-.02.1-.04.2-.07.3-.1.09-.03.19-.05.29-.06-.11.02 0 0 .05 0h.51c.05 0 .1.02.15.03.11.02.22.05.33.09.05.02.1.03.14.05.08.03-.07-.04.06.02.09.04.18.09.27.14.05.03.11.07.16.1.02.01.15.11.05.04.32.26.81.34 1.12 0 .26-.29.34-.84 0-1.12-.98-.79-2.25-1.13-3.49-.82a3.942 3.942 0 0 0-2.53 2.05c-.18.37-.11.87.28 1.08.35.19.89.11 1.08-.28l.01-.02zM71.55 73.96c-.06.05-.04.03 0 0s.08-.05.12-.08c.09-.06.18-.11.28-.16.01 0 .15-.07.07-.03-.08.04.06-.02.07-.02.09-.03.18-.06.27-.08l.14-.03c.07-.01.15-.03.04-.01.09-.01.19-.02.28-.02h.28c.08 0 .08 0 0 0 .06 0 .11.02.17.03.09.02.17.04.26.07.04.01.09.03.13.04.02 0 .15.06.06.02-.09-.04.04.02.06.03l.12.06c.09.05.17.1.26.16.06.04.06.04 0 0 .03.03.07.06.1.09.07.06.13.12.19.19.04.04.07.09.11.13-.06-.09.08.08 0 0 .06.08.11.17.17.25.21.35.72.52 1.08.28.36-.24.51-.7.28-1.08-.53-.89-1.44-1.58-2.47-1.77-1.16-.22-2.28.09-3.2.83-.32.26-.29.85 0 1.12.34.31.77.28 1.12 0l.01-.02z" fill="#000"/>
    <path d="M46.15 64.06c-5.43 6.23-7.26 15.2-4.51 23.03.64 1.81 3.54 1.03 2.89-.8-2.39-6.79-1.02-14.65 3.73-20.11 1.26-1.45-.85-3.58-2.12-2.12h.01z" fill="#FFF3F8"/>
    <path d="M41.72 56.872c.69 1.56 2.19 2.77 3.84 3.15.51.12 1.11-.16 1.23-.7.12-.51-.15-1.1-.7-1.23-.25-.06-.49-.14-.73-.23l.24.1c-.38-.16-.74-.37-1.08-.63l.2.16c-.32-.25-.6-.53-.85-.85l.16.2c-.24-.31-.43-.63-.59-.99-.09-.21-.38-.4-.6-.46-.24-.07-.56-.04-.77.1-.21.14-.4.34-.46.6-.06.28-.01.51.1.77l.01.01zM48 47.711c-.18 1.42-.09 2.87.23 4.26.12.51.73.86 1.23.7.53-.17.82-.68.7-1.23-.04-.17-.08-.35-.11-.52-.01-.07-.03-.15-.04-.22 0-.03-.01-.2-.03-.22.02.14.02.15 0 .04v-.08c-.02-.09-.03-.18-.04-.26-.01-.16-.03-.33-.03-.49-.03-.66 0-1.32.08-1.97.03-.24-.13-.55-.29-.71-.17-.17-.46-.3-.71-.29-.25.01-.53.1-.71.29-.19.21-.26.43-.29.71l.01-.01zM9.39 148.841c1.09.92 2.52 1.4 3.95 1.24.27-.03.5-.21.5-.5 0-.25-.23-.53-.5-.5-1.17.12-2.35-.2-3.24-.95-.21-.17-.5-.2-.71 0-.18.18-.21.53 0 .71zM13.57 156.281c1.17.47 2.66.08 3.45-.91.16-.2.21-.51 0-.71-.18-.17-.53-.22-.71 0-.08.1-.16.19-.26.28-.03.02-.05.05-.08.07-.02.01-.1.07-.01.01-.05.04-.1.07-.16.11-.11.07-.22.12-.33.18-.05.03.07-.03-.02 0-.03 0-.05.02-.08.03l-.2.06c-.06.02-.12.03-.18.04-.03 0-.06 0-.08.01-.06.01.09 0-.01 0-.13.01-.25.02-.38.01-.07 0-.14 0-.21-.02.04 0 .06.01 0 0-.03 0-.07-.01-.1-.02-.13-.03-.26-.07-.38-.12-.24-.1-.56.11-.62.35-.07.29.09.51.35.62l.01.01z" fill="#FF9FC4"/>
</svg>
