<svg xmlns="http://www.w3.org/2000/svg" width="129.635" height="45.5" viewBox="0 0 129.635 45.5"><defs><style>.a{fill:#008e58;}.b{fill:#062b1c;}</style></defs><g transform="translate(-322.288 -267.339)"><g transform="translate(322.288 267.339)"><path class="a" d="M382.112,323.45c-.089-.9-.186-1.794-.309-2.687-.127-.922-.252-1.847-.445-2.756q-.542-2.546-1.168-5.075a10.2,10.2,0,0,0-.778-2.386,3.2,3.2,0,0,0-2.923-1.8,6.773,6.773,0,0,0-2.524.483c-.231.084-.452.2-.678.294l.026.048c.3-.021.6-.056.908-.058a4.616,4.616,0,0,1,.932.052,1.615,1.615,0,0,1,1.457,1.948c-.056.629-.17,1.252-.263,1.877-.11.738-.189,1.483-.346,2.211q-.481,2.226-1.036,4.435a43.992,43.992,0,0,1-1.751,5.369c-.49,1.24-1.013,2.468-1.579,3.675-.543,1.159-1.15,2.288-1.746,3.422-.428.813-.92,1.594-1.32,2.421a5.617,5.617,0,0,0-.606,3.227,3.965,3.965,0,0,0,2.41,3.217,6.41,6.41,0,0,0,4.928.139,8.686,8.686,0,0,0,4.392-3.435,12.688,12.688,0,0,0,1.74-4.056,27,27,0,0,0,.821-6.686c.007-.767-.02-1.534-.046-2.3C382.19,324.5,382.164,323.975,382.112,323.45Z" transform="translate(-354.349 -296.432)"/><path class="a" d="M339.569,307.129a12.6,12.6,0,0,0,2.256-.34,2.619,2.619,0,0,0,1.3-.729,1.275,1.275,0,0,0,.356-1.219,6.988,6.988,0,0,0-.425-1.151,4.807,4.807,0,0,0-.492-.7l-.081.04c.023.113.044.227.069.34a1.955,1.955,0,0,1-.026,1.06.819.819,0,0,1-.9.5c-.677-.181-1.37-.318-2.029-.551a36.578,36.578,0,0,1-4.671-2.08,29.869,29.869,0,0,1-4.095-2.507c-1-.746-1.965-1.539-2.922-2.339A5.4,5.4,0,0,0,326,296.338a2.6,2.6,0,0,0-2.935.98,4.244,4.244,0,0,0-.693,3.394,5.849,5.849,0,0,0,2.784,3.94,12.82,12.82,0,0,0,4.017,1.664c1.078.261,2.17.481,3.267.643a27.383,27.383,0,0,0,3.039.277A30.49,30.49,0,0,0,339.569,307.129Z" transform="translate(-322.288 -287.628)"/><path class="a" d="M388.756,268.494a5.535,5.535,0,0,0-4.764-1,10.166,10.166,0,0,0-3.361,1.5,20.816,20.816,0,0,0-3.474,2.849c-.72.709-1.4,1.458-2.084,2.206a29.332,29.332,0,0,0-2.7,3.528A7.282,7.282,0,0,0,371,280.507a1.531,1.531,0,0,0,.641,1.563,3.637,3.637,0,0,0,1.818.468,2.837,2.837,0,0,0,.354-.017l.007-.058c-.255-.147-.523-.276-.763-.446a.9.9,0,0,1-.247-1.443,2.306,2.306,0,0,1,.5-.467c.963-.607,1.919-1.227,2.912-1.784a37.528,37.528,0,0,1,4-1.953,34.626,34.626,0,0,1,6.4-1.958,7.247,7.247,0,0,0,2.125-.65,2.649,2.649,0,0,0,1.543-2.612A3.73,3.73,0,0,0,388.756,268.494Z" transform="translate(-356.497 -267.339)"/></g><g transform="translate(359.505 279.726)"><rect class="b" width="3.64" height="17.027" rx="1.82" transform="translate(13.69 5.764)"/><rect class="b" width="3.64" height="17.027" rx="1.82" transform="translate(32.939 5.764)"/><path class="b" d="M595,328.156a8.131,8.131,0,0,0-4.361-1.168,6.747,6.747,0,0,0-3.707.927,8.752,8.752,0,0,0-1.472,1.174.578.578,0,0,1-.976-.332l-.122-.861a.578.578,0,0,0-.57-.5h-2.188a.576.576,0,0,0-.576.576v23a.576.576,0,0,0,.576.576h2.487a.576.576,0,0,0,.576-.576v-7.533a.576.576,0,0,1,.975-.415,6.169,6.169,0,0,0,1.444,1.025,7.566,7.566,0,0,0,3.52.789A8.3,8.3,0,0,0,595,343.689a8.145,8.145,0,0,0,2.967-3.159,10.284,10.284,0,0,0,0-9.182A8.229,8.229,0,0,0,595,328.156Zm-1.168,11.928a5.067,5.067,0,0,1-3.847,1.6,5.01,5.01,0,0,1-3.827-1.6,6.552,6.552,0,0,1,0-8.325,4.989,4.989,0,0,1,3.827-1.613,5.075,5.075,0,0,1,4.671,2.781,6.329,6.329,0,0,1,.685,2.986A5.82,5.82,0,0,1,593.834,340.084Z" transform="translate(-541.297 -321.636)"/><path class="b" d="M656.972,322.872a.577.577,0,0,1,.009-.778l5.974-6.369a.577.577,0,0,0-.421-.971h-2.777a.58.58,0,0,0-.422.184l-5.354,5.775a.576.576,0,0,1-1-.392V309.567a.576.576,0,0,0-.576-.576h-2.489a.576.576,0,0,0-.576.576v21.639a.576.576,0,0,0,.576.576h2.489a.576.576,0,0,0,.576-.576v-6.565a.576.576,0,0,1,1.017-.37l6.154,7.307a.577.577,0,0,0,.441.2h3.046a.576.576,0,0,0,.429-.959Z" transform="translate(-589.294 -308.991)"/><path class="b" d="M719.894,328.373h-2.485a.576.576,0,0,0-.576.576v8.212a5.937,5.937,0,0,1-1.3,4.119,4.3,4.3,0,0,1-3.33,1.441q-4.052,0-4.051-4.943v-8.83a.577.577,0,0,0-.576-.576h-2.488a.576.576,0,0,0-.576.576v9.207q0,3.811,1.768,5.734a6.277,6.277,0,0,0,4.858,1.922,6.756,6.756,0,0,0,3.52-.909,6.021,6.021,0,0,0,1.461-1.209.575.575,0,0,1,1,.33l.078.853a.576.576,0,0,0,.574.523h2.125a.576.576,0,0,0,.576-.576V328.949A.576.576,0,0,0,719.894,328.373Z" transform="translate(-628.053 -322.609)"/><path class="b" d="M458.216,314.755h-3.653a.576.576,0,0,1-.576-.576v-4.612a.576.576,0,0,0-.576-.576h-2.488a.576.576,0,0,0-.576.576v4.612a.576.576,0,0,1-.576.576h-1.764a.576.576,0,0,0-.576.576v1.9a.576.576,0,0,0,.576.576h1.764a.576.576,0,0,1,.576.576v7.834q0,3.124,1.478,4.343a6.063,6.063,0,0,0,3.981,1.218h2.24a.576.576,0,0,0,.576-.576v-1.938a.576.576,0,0,0-.576-.576h-1.382a3.14,3.14,0,0,1-2.076-.532,2.52,2.52,0,0,1-.6-1.939v-7.834a.576.576,0,0,1,.576-.576h3.653a.576.576,0,0,0,.576-.576v-1.9A.576.576,0,0,0,458.216,314.755Z" transform="translate(-447.431 -308.991)"/><path class="b" d="M522.94,314.755h-3.653a.576.576,0,0,1-.576-.576v-4.612a.577.577,0,0,0-.576-.576h-2.488a.576.576,0,0,0-.576.576v4.612a.576.576,0,0,1-.576.576h-1.764a.576.576,0,0,0-.576.576v1.9a.576.576,0,0,0,.576.576H514.5a.576.576,0,0,1,.576.576v7.834q0,3.124,1.478,4.343a6.064,6.064,0,0,0,3.981,1.218h2.24a.576.576,0,0,0,.576-.576v-1.938a.576.576,0,0,0-.576-.576h-1.382a3.141,3.141,0,0,1-2.076-.532,2.522,2.522,0,0,1-.6-1.939v-7.834a.576.576,0,0,1,.576-.576h3.653a.576.576,0,0,0,.576-.576v-1.9A.576.576,0,0,0,522.94,314.755Z" transform="translate(-492.906 -308.991)"/><rect class="b" width="3.64" height="3.64" rx="1.82" transform="translate(13.69 0)"/><rect class="b" width="3.64" height="3.64" rx="1.82" transform="translate(32.939 0)"/></g></g></svg>