<svg width="118" height="22" viewBox="0 0 118 22" fill="none" xmlns="http://www.w3.org/2000/svg">
<g id="ANDALAN">
<path id="Rectangle 4193" d="M0 0.5H117.889L114.027 14.0885C112.78 18.4764 108.773 21.5038 104.211 21.5038H0V0.5Z" fill="url(#paint0_linear_3985_83262)"/>
<path id="Rectangle 4194" opacity="0.5" d="M0 0.5H111.895L107.773 14.2324C106.478 18.5483 102.505 21.5038 97.9989 21.5038H0V0.5Z" fill="url(#paint1_linear_3985_83262)"/>
<path id="Rectangle 4195" opacity="0.5" d="M0 21.5039H108.824L110.54 12.6463C111.761 6.34861 106.937 0.500147 100.522 0.500147H0V21.5039Z" fill="url(#paint2_linear_3985_83262)"/>
<g id="Andalan Titipku">
<path d="M32.8132 14.1942H29.4826L28.8259 15.7376H27.5508L30.5484 9.06875H31.7664L34.7735 15.7376H33.4793L32.8132 14.1942ZM32.404 13.2225L31.1479 10.3072L29.9013 13.2225H32.404Z" fill="white"/>
<path d="M38.3899 10.593C39.0306 10.593 39.5445 10.7804 39.9315 11.1551C40.3185 11.5299 40.512 12.0856 40.512 12.8223V15.7376H39.3225V12.9748C39.3225 12.5302 39.2178 12.1967 39.0084 11.9744C38.7991 11.7458 38.5009 11.6315 38.1139 11.6315C37.6762 11.6315 37.3304 11.7648 37.0767 12.0316C36.8229 12.292 36.696 12.6699 36.696 13.1653V15.7376H35.5065V10.6502H36.6389V11.3076C36.8356 11.0726 37.083 10.8947 37.3812 10.7741C37.6793 10.6534 38.0156 10.593 38.3899 10.593Z" fill="white"/>
<path d="M47.0444 8.66862V15.7376H45.9024V15.0802C45.7057 15.3215 45.4615 15.5026 45.1697 15.6232C44.8842 15.7439 44.567 15.8042 44.2181 15.8042C43.7296 15.8042 43.2887 15.6963 42.8953 15.4803C42.5083 15.2644 42.2038 14.9595 41.9818 14.5657C41.7597 14.1656 41.6487 13.7083 41.6487 13.1939C41.6487 12.6794 41.7597 12.2253 41.9818 11.8315C42.2038 11.4378 42.5083 11.1329 42.8953 10.917C43.2887 10.701 43.7296 10.593 44.2181 10.593C44.5543 10.593 44.862 10.6502 45.1411 10.7645C45.4203 10.8789 45.6582 11.0503 45.8548 11.279V8.66862H47.0444ZM44.3608 14.7849C44.6463 14.7849 44.9032 14.7214 45.1316 14.5943C45.36 14.461 45.5408 14.2736 45.674 14.0322C45.8073 13.7909 45.8739 13.5114 45.8739 13.1939C45.8739 12.8763 45.8073 12.5969 45.674 12.3555C45.5408 12.1142 45.36 11.93 45.1316 11.803C44.9032 11.6696 44.6463 11.6029 44.3608 11.6029C44.0753 11.6029 43.8184 11.6696 43.59 11.803C43.3616 11.93 43.1808 12.1142 43.0476 12.3555C42.9143 12.5969 42.8477 12.8763 42.8477 13.1939C42.8477 13.5114 42.9143 13.7909 43.0476 14.0322C43.1808 14.2736 43.3616 14.461 43.59 14.5943C43.8184 14.7214 44.0753 14.7849 44.3608 14.7849Z" fill="white"/>
<path d="M50.5418 10.593C51.2904 10.593 51.8613 10.7741 52.2547 11.1361C52.6543 11.4917 52.8542 12.0316 52.8542 12.7556V15.7376H51.7313V15.1183C51.5854 15.3406 51.376 15.5121 51.1032 15.6328C50.8368 15.7471 50.5132 15.8042 50.1326 15.8042C49.7519 15.8042 49.4188 15.7407 49.1334 15.6137C48.8479 15.4803 48.6258 15.2993 48.4672 15.0707C48.315 14.8357 48.2388 14.5721 48.2388 14.2799C48.2388 13.8227 48.407 13.4575 48.7432 13.1844C49.0858 12.9049 49.6219 12.7652 50.3514 12.7652H51.6647V12.689C51.6647 12.3333 51.5568 12.0602 51.3411 11.8696C51.1318 11.6791 50.8177 11.5838 50.399 11.5838C50.1135 11.5838 49.8312 11.6283 49.5521 11.7172C49.2793 11.8061 49.0477 11.93 48.8574 12.0888L48.3911 11.2218C48.6576 11.0186 48.9779 10.863 49.3522 10.755C49.7265 10.647 50.123 10.593 50.5418 10.593ZM50.38 14.9373C50.6781 14.9373 50.9414 14.8706 51.1698 14.7372C51.4045 14.5975 51.5695 14.4006 51.6647 14.1466V13.5559H50.4371C49.7519 13.5559 49.4093 13.7814 49.4093 14.2323C49.4093 14.4482 49.495 14.6197 49.6663 14.7468C49.8376 14.8738 50.0755 14.9373 50.38 14.9373Z" fill="white"/>
<path d="M54.3808 8.66862H55.5703V15.7376H54.3808V8.66862Z" fill="white"/>
<path d="M59.0728 10.593C59.8214 10.593 60.3924 10.7741 60.7857 11.1361C61.1854 11.4917 61.3852 12.0316 61.3852 12.7556V15.7376H60.2623V15.1183C60.1164 15.3406 59.9071 15.5121 59.6343 15.6328C59.3678 15.7471 59.0443 15.8042 58.6636 15.8042C58.283 15.8042 57.9499 15.7407 57.6644 15.6137C57.3789 15.4803 57.1569 15.2993 56.9983 15.0707C56.846 14.8357 56.7699 14.5721 56.7699 14.2799C56.7699 13.8227 56.938 13.4575 57.2743 13.1844C57.6168 12.9049 58.1529 12.7652 58.8825 12.7652H60.1957V12.689C60.1957 12.3333 60.0879 12.0602 59.8722 11.8696C59.6628 11.6791 59.3488 11.5838 58.9301 11.5838C58.6446 11.5838 58.3623 11.6283 58.0831 11.7172C57.8103 11.8061 57.5788 11.93 57.3885 12.0888L56.9222 11.2218C57.1886 11.0186 57.509 10.863 57.8833 10.755C58.2576 10.647 58.6541 10.593 59.0728 10.593ZM58.911 14.9373C59.2092 14.9373 59.4725 14.8706 59.7009 14.7372C59.9356 14.5975 60.1006 14.4006 60.1957 14.1466V13.5559H58.9681C58.283 13.5559 57.9404 13.7814 57.9404 14.2323C57.9404 14.4482 58.026 14.6197 58.1973 14.7468C58.3686 14.8738 58.6065 14.9373 58.911 14.9373Z" fill="white"/>
<path d="M65.7952 10.593C66.436 10.593 66.9498 10.7804 67.3368 11.1551C67.7238 11.5299 67.9173 12.0856 67.9173 12.8223V15.7376H66.7278V12.9748C66.7278 12.5302 66.6231 12.1967 66.4138 11.9744C66.2044 11.7458 65.9062 11.6315 65.5192 11.6315C65.0815 11.6315 64.7358 11.7648 64.482 12.0316C64.2282 12.292 64.1013 12.6699 64.1013 13.1653V15.7376H62.9118V10.6502H64.0443V11.3076C64.2409 11.0726 64.4883 10.8947 64.7865 10.7741C65.0847 10.6534 65.4209 10.593 65.7952 10.593Z" fill="white"/>
<path d="M73.5217 10.1167H71.314V9.06875H76.9666V10.1167H74.7588V15.7376H73.5217V10.1167Z" fill="white"/>
<path d="M77.66 10.6502H78.8495V15.7376H77.66V10.6502ZM78.2595 9.81184C78.0438 9.81184 77.863 9.74515 77.7171 9.61178C77.5712 9.47205 77.4982 9.30057 77.4982 9.09733C77.4982 8.89409 77.5712 8.72578 77.7171 8.5924C77.863 8.45268 78.0438 8.38281 78.2595 8.38281C78.4752 8.38281 78.656 8.4495 78.8019 8.58288C78.9478 8.7099 79.0208 8.87186 79.0208 9.06875C79.0208 9.27834 78.9478 9.45617 78.8019 9.60225C78.6623 9.74198 78.4815 9.81184 78.2595 9.81184Z" fill="white"/>
<path d="M83.4654 15.4613C83.3258 15.5756 83.1545 15.6613 82.9515 15.7185C82.7549 15.7757 82.5455 15.8042 82.3235 15.8042C81.7652 15.8042 81.3338 15.6582 81.0293 15.366C80.7248 15.0738 80.5725 14.6483 80.5725 14.0894V11.641H79.7351V10.6883H80.5725V9.52604H81.762V10.6883H83.1228V11.641H81.762V14.0608C81.762 14.3085 81.8223 14.4991 81.9428 14.6324C82.0634 14.7595 82.2378 14.823 82.4662 14.823C82.7327 14.823 82.9547 14.7531 83.1323 14.6134L83.4654 15.4613Z" fill="white"/>
<path d="M84.4439 10.6502H85.6334V15.7376H84.4439V10.6502ZM85.0434 9.81184C84.8277 9.81184 84.6469 9.74515 84.501 9.61178C84.3551 9.47205 84.2822 9.30057 84.2822 9.09733C84.2822 8.89409 84.3551 8.72578 84.501 8.5924C84.6469 8.45268 84.8277 8.38281 85.0434 8.38281C85.2591 8.38281 85.44 8.4495 85.5859 8.58288C85.7318 8.7099 85.8047 8.87186 85.8047 9.06875C85.8047 9.27834 85.7318 9.45617 85.5859 9.60225C85.4463 9.74198 85.2655 9.81184 85.0434 9.81184Z" fill="white"/>
<path d="M90.0115 10.593C90.5063 10.593 90.9472 10.701 91.3342 10.917C91.7275 11.1329 92.0352 11.4378 92.2573 11.8315C92.4793 12.2253 92.5903 12.6794 92.5903 13.1939C92.5903 13.7083 92.4793 14.1656 92.2573 14.5657C92.0352 14.9595 91.7275 15.2644 91.3342 15.4803C90.9472 15.6963 90.5063 15.8042 90.0115 15.8042C89.3263 15.8042 88.7839 15.5756 88.3842 15.1183V17.5858H87.1947V10.6502H88.3271V11.3171C88.5238 11.0757 88.7649 10.8947 89.0503 10.7741C89.3422 10.6534 89.6625 10.593 90.0115 10.593ZM89.8782 14.7849C90.316 14.7849 90.6744 14.6388 90.9536 14.3466C91.239 14.0545 91.3818 13.6702 91.3818 13.1939C91.3818 12.7175 91.239 12.3333 90.9536 12.0411C90.6744 11.749 90.316 11.6029 89.8782 11.6029C89.5928 11.6029 89.3358 11.6696 89.1074 11.803C88.879 11.93 88.6982 12.1142 88.565 12.3555C88.4318 12.5969 88.3652 12.8763 88.3652 13.1939C88.3652 13.5114 88.4318 13.7909 88.565 14.0322C88.6982 14.2736 88.879 14.461 89.1074 14.5943C89.3358 14.7214 89.5928 14.7849 89.8782 14.7849Z" fill="white"/>
<path d="M95.793 13.5559L94.908 14.3943V15.7376H93.7184V8.66862H94.908V12.9367L97.3726 10.6502H98.8001L96.678 12.7842L98.9999 15.7376H97.5534L95.793 13.5559Z" fill="white"/>
<path d="M104.595 10.6502V15.7376H103.463V15.0897C103.272 15.3184 103.035 15.4962 102.749 15.6232C102.464 15.7439 102.156 15.8042 101.826 15.8042C101.147 15.8042 100.611 15.6169 100.218 15.2422C99.8307 14.8611 99.6373 14.299 99.6373 13.5559V10.6502H100.827V13.3939C100.827 13.8512 100.928 14.1942 101.131 14.4228C101.341 14.6451 101.636 14.7563 102.016 14.7563C102.441 14.7563 102.778 14.6261 103.025 14.3657C103.279 14.0989 103.406 13.7179 103.406 13.2225V10.6502H104.595Z" fill="white"/>
</g>
<path id="Intersect" fill-rule="evenodd" clip-rule="evenodd" d="M20.2007 21.4591C21.1665 21.4591 21.9981 20.7693 22.1442 19.8146C22.5992 16.841 22.8414 13.7202 22.8414 10.5027C22.8414 7.63907 22.6496 4.85214 22.2866 2.1774C22.155 1.20766 21.3165 0.5 20.3378 0.5H2C0.895431 0.5 0 1.39543 0 2.5V19.4591C0 20.5637 0.895433 21.4591 2 21.4591H20.2007Z" fill="url(#paint3_linear_3985_83262)"/>
<path id="Icon ionic-ios-thumbs-up" d="M17.5417 15.2342C17.7024 15.1181 17.8343 14.9671 17.9276 14.7927C18.0209 14.6183 18.073 14.425 18.0799 14.2276C18.081 13.8848 17.9561 13.5534 17.7288 13.2957C17.7088 13.2576 17.6935 13.2225 17.6766 13.1874V13.1523C17.6652 13.0974 17.665 13.0407 17.6761 12.9857C17.6871 12.9307 17.7092 12.8784 17.741 12.8321C17.8869 12.5831 17.9522 12.2956 17.9281 12.0085C17.9331 11.8701 17.9083 11.7322 17.8554 11.6041C17.8025 11.4761 17.7227 11.3607 17.6214 11.2657C17.5506 11.1877 17.5012 11.0927 17.4781 10.9901C17.455 10.8875 17.4589 10.7807 17.4895 10.68C17.5567 10.4729 17.5677 10.2519 17.5213 10.0393C17.475 9.82661 17.3731 9.6299 17.2258 9.46902C16.8869 9.09078 16.571 9.04655 15.7306 9.09383C15.1509 9.12891 13.9425 9.31498 13.1466 9.44004C12.8215 9.4919 12.5332 9.53613 12.4504 9.54223C12.0409 9.58341 11.9612 9.54223 11.9213 9.38971C11.9417 9.24156 11.994 9.09953 12.0747 8.97334C12.2623 8.60553 12.4163 8.22167 12.5347 7.8264C12.8685 6.88318 12.8374 5.85016 12.4473 4.92855C12.3716 4.76219 12.2536 4.61837 12.1048 4.51136C11.9561 4.40435 11.7818 4.33786 11.5993 4.31847C11.2784 4.28748 10.9575 4.37788 10.7006 4.57165C10.5917 4.69977 10.627 4.9438 10.5013 5.43033C10.4064 5.88771 10.2772 6.33738 10.1148 6.77555C9.59893 7.50598 8.97904 8.15795 8.27457 8.71101C8.14269 8.82692 8.02921 8.92606 7.94947 9.00232C7.64076 9.32321 7.36537 9.67426 7.1275 10.0501C6.99361 10.2574 6.84607 10.4556 6.68584 10.6434C6.49515 10.8407 6.24033 10.9645 5.96662 10.9927C5.89841 10.9931 5.83312 11.0202 5.78489 11.0682C5.73666 11.1161 5.70939 11.1811 5.70898 11.2489V16.3598C5.70898 16.4302 5.7371 16.4977 5.78714 16.5475C5.83718 16.5972 5.90505 16.6252 5.97582 16.6252C6.71056 16.5952 7.44309 16.7242 8.12276 17.0034C8.60063 17.201 9.10387 17.3314 9.61794 17.3908C10.8212 17.5479 12.0328 17.6345 13.2463 17.6501C13.856 17.6429 14.4647 17.6011 15.0696 17.525C16.068 17.4091 17.1384 17.1788 17.4926 16.34C17.5458 16.2193 17.5719 16.0886 17.569 15.9568C17.566 15.8251 17.5342 15.6956 17.4757 15.5774C17.4622 15.5512 17.4533 15.5228 17.4497 15.4935C17.4404 15.4461 17.4441 15.397 17.4602 15.3514C17.4764 15.3058 17.5045 15.2654 17.5417 15.2342Z" fill="url(#paint4_linear_3985_83262)"/>
<path id="Vector" d="M23.231 6.29073L23.2625 6.28633L23.2595 6.27742L25.5398 5.1702L23.0439 4.73013L23.044 4.71875L23.0125 4.72315L22.4421 4.62073L22.1892 4.11151L22.184 4.07464L22.1733 4.07993L21.0621 1.82589L20.6134 4.2978L20.6017 4.29567L20.6068 4.33253L20.5007 4.8919L19.9821 5.14645L19.9486 5.15113L19.9539 5.16174L17.6735 6.26896L20.1695 6.70903L20.167 6.7187L20.2005 6.71402L20.769 6.81673L21.0242 7.32765L21.0291 7.36254L21.0398 7.35725L22.1475 9.6138L22.5997 7.13937L22.6114 7.14151L22.6066 7.10663L22.7104 6.54556L23.231 6.29073Z" fill="white"/>
</g>
<defs>
<linearGradient id="paint0_linear_3985_83262" x1="0" y1="0.5" x2="106.666" y2="16.8358" gradientUnits="userSpaceOnUse">
<stop stop-color="#15B16F"/>
<stop offset="1" stop-color="#05A462"/>
</linearGradient>
<linearGradient id="paint1_linear_3985_83262" x1="106.524" y1="20.0717" x2="-0.245627" y2="1.94694" gradientUnits="userSpaceOnUse">
<stop stop-color="#25CE87"/>
<stop offset="1" stop-color="#25BB7C" stop-opacity="0"/>
</linearGradient>
<linearGradient id="paint2_linear_3985_83262" x1="113.891" y1="1.93221" x2="0.193143" y2="22.5681" gradientUnits="userSpaceOnUse">
<stop stop-color="#28CD92"/>
<stop offset="1" stop-color="#25BB7C" stop-opacity="0"/>
</linearGradient>
<linearGradient id="paint3_linear_3985_83262" x1="22.8412" y1="8.59784" x2="0.465813" y2="20.4875" gradientUnits="userSpaceOnUse">
<stop stop-color="#16C95D"/>
<stop offset="1" stop-color="#25B478"/>
</linearGradient>
<linearGradient id="paint4_linear_3985_83262" x1="11.8945" y1="4.3125" x2="11.8945" y2="17.6501" gradientUnits="userSpaceOnUse">
<stop stop-color="#FFE600"/>
<stop offset="1" stop-color="#FFB800"/>
</linearGradient>
</defs>
</svg>
