<svg width="81" height="24" viewBox="0 0 81 24" fill="none" xmlns="http://www.w3.org/2000/svg">
<rect width="81" height="24" rx="4" fill="#3C4379"/>
<rect x="10" y="7" width="10" height="10" rx="2" fill="#FFEB12"/>
<path d="M30.94 9H34C34.7467 9 35.41 9.14667 35.99 9.44C36.57 9.72667 37.02 10.1367 37.34 10.67C37.66 11.1967 37.82 11.8067 37.82 12.5C37.82 13.1933 37.66 13.8067 37.34 14.34C37.02 14.8667 36.57 15.2767 35.99 15.57C35.41 15.8567 34.7467 16 34 16H30.94V9ZM33.94 14.9C34.4533 14.9 34.9033 14.8033 35.29 14.61C35.6833 14.41 35.9833 14.13 36.19 13.77C36.4033 13.4033 36.51 12.98 36.51 12.5C36.51 12.02 36.4033 11.6 36.19 11.24C35.9833 10.8733 35.6833 10.5933 35.29 10.4C34.9033 10.2 34.4533 10.1 33.94 10.1H32.24V14.9H33.94ZM44.2517 13.36C44.2517 13.4467 44.2451 13.57 44.2317 13.73H40.0417C40.1151 14.1233 40.3051 14.4367 40.6117 14.67C40.9251 14.8967 41.3117 15.01 41.7717 15.01C42.3584 15.01 42.8417 14.8167 43.2217 14.43L43.8917 15.2C43.6517 15.4867 43.3484 15.7033 42.9817 15.85C42.6151 15.9967 42.2017 16.07 41.7417 16.07C41.1551 16.07 40.6384 15.9533 40.1917 15.72C39.7451 15.4867 39.3984 15.1633 39.1517 14.75C38.9117 14.33 38.7917 13.8567 38.7917 13.33C38.7917 12.81 38.9084 12.3433 39.1417 11.93C39.3817 11.51 39.7117 11.1833 40.1317 10.95C40.5517 10.7167 41.0251 10.6 41.5517 10.6C42.0717 10.6 42.5351 10.7167 42.9417 10.95C43.3551 11.1767 43.6751 11.5 43.9017 11.92C44.1351 12.3333 44.2517 12.8133 44.2517 13.36ZM41.5517 11.6C41.1517 11.6 40.8117 11.72 40.5317 11.96C40.2584 12.1933 40.0917 12.5067 40.0317 12.9H43.0617C43.0084 12.5133 42.8451 12.2 42.5717 11.96C42.2984 11.72 41.9584 11.6 41.5517 11.6ZM48.5624 10.6C49.0824 10.6 49.5458 10.7133 49.9524 10.94C50.3658 11.1667 50.6891 11.4867 50.9224 11.9C51.1558 12.3133 51.2724 12.79 51.2724 13.33C51.2724 13.87 51.1558 14.35 50.9224 14.77C50.6891 15.1833 50.3658 15.5033 49.9524 15.73C49.5458 15.9567 49.0824 16.07 48.5624 16.07C47.8424 16.07 47.2724 15.83 46.8524 15.35V17.94H45.6024V10.66H46.7924V11.36C46.9991 11.1067 47.2524 10.9167 47.5524 10.79C47.8591 10.6633 48.1958 10.6 48.5624 10.6ZM48.4224 15C48.8824 15 49.2591 14.8467 49.5524 14.54C49.8524 14.2333 50.0024 13.83 50.0024 13.33C50.0024 12.83 49.8524 12.4267 49.5524 12.12C49.2591 11.8133 48.8824 11.66 48.4224 11.66C48.1224 11.66 47.8524 11.73 47.6124 11.87C47.3724 12.0033 47.1824 12.1967 47.0424 12.45C46.9024 12.7033 46.8324 12.9967 46.8324 13.33C46.8324 13.6633 46.9024 13.9567 47.0424 14.21C47.1824 14.4633 47.3724 14.66 47.6124 14.8C47.8524 14.9333 48.1224 15 48.4224 15ZM55.0079 16.07C54.4679 16.07 53.9812 15.9533 53.5479 15.72C53.1146 15.4867 52.7746 15.1633 52.5279 14.75C52.2879 14.33 52.1679 13.8567 52.1679 13.33C52.1679 12.8033 52.2879 12.3333 52.5279 11.92C52.7746 11.5067 53.1146 11.1833 53.5479 10.95C53.9812 10.7167 54.4679 10.6 55.0079 10.6C55.5546 10.6 56.0446 10.7167 56.4779 10.95C56.9112 11.1833 57.2479 11.5067 57.4879 11.92C57.7346 12.3333 57.8579 12.8033 57.8579 13.33C57.8579 13.8567 57.7346 14.33 57.4879 14.75C57.2479 15.1633 56.9112 15.4867 56.4779 15.72C56.0446 15.9533 55.5546 16.07 55.0079 16.07ZM55.0079 15C55.4679 15 55.8479 14.8467 56.1479 14.54C56.4479 14.2333 56.5979 13.83 56.5979 13.33C56.5979 12.83 56.4479 12.4267 56.1479 12.12C55.8479 11.8133 55.4679 11.66 55.0079 11.66C54.5479 11.66 54.1679 11.8133 53.8679 12.12C53.5746 12.4267 53.4279 12.83 53.4279 13.33C53.4279 13.83 53.5746 14.2333 53.8679 14.54C54.1679 14.8467 54.5479 15 55.0079 15ZM60.8532 16.07C60.4199 16.07 59.9965 16.0133 59.5832 15.9C59.1699 15.7867 58.8399 15.6433 58.5932 15.47L59.0732 14.52C59.3132 14.68 59.5999 14.81 59.9332 14.91C60.2732 15.0033 60.6065 15.05 60.9332 15.05C61.6799 15.05 62.0532 14.8533 62.0532 14.46C62.0532 14.2733 61.9565 14.1433 61.7632 14.07C61.5765 13.9967 61.2732 13.9267 60.8532 13.86C60.4132 13.7933 60.0532 13.7167 59.7732 13.63C59.4999 13.5433 59.2599 13.3933 59.0532 13.18C58.8532 12.96 58.7532 12.6567 58.7532 12.27C58.7532 11.7633 58.9632 11.36 59.3832 11.06C59.8099 10.7533 60.3832 10.6 61.1032 10.6C61.4699 10.6 61.8365 10.6433 62.2032 10.73C62.5699 10.81 62.8699 10.92 63.1032 11.06L62.6232 12.01C62.1699 11.7433 61.6599 11.61 61.0932 11.61C60.7265 11.61 60.4465 11.6667 60.2532 11.78C60.0665 11.8867 59.9732 12.03 59.9732 12.21C59.9732 12.41 60.0732 12.5533 60.2732 12.64C60.4799 12.72 60.7965 12.7967 61.2232 12.87C61.6499 12.9367 61.9999 13.0133 62.2732 13.1C62.5465 13.1867 62.7799 13.3333 62.9732 13.54C63.1732 13.7467 63.2732 14.04 63.2732 14.42C63.2732 14.92 63.0565 15.32 62.6232 15.62C62.1899 15.92 61.5999 16.07 60.8532 16.07ZM64.4997 10.66H65.7497V16H64.4997V10.66ZM65.1297 9.78C64.903 9.78 64.713 9.71 64.5597 9.57C64.4064 9.42333 64.3297 9.24333 64.3297 9.03C64.3297 8.81667 64.4064 8.64 64.5597 8.5C64.713 8.35333 64.903 8.28 65.1297 8.28C65.3564 8.28 65.5464 8.35 65.6997 8.49C65.853 8.62333 65.9297 8.79333 65.9297 9C65.9297 9.22 65.853 9.40667 65.6997 9.56C65.553 9.70667 65.363 9.78 65.1297 9.78ZM70.7503 15.71C70.6036 15.83 70.4236 15.92 70.2103 15.98C70.0036 16.04 69.7836 16.07 69.5503 16.07C68.9636 16.07 68.5103 15.9167 68.1903 15.61C67.8703 15.3033 67.7103 14.8567 67.7103 14.27V11.7H66.8303V10.7H67.7103V9.48H68.9603V10.7H70.3903V11.7H68.9603V14.24C68.9603 14.5 69.0236 14.7 69.1503 14.84C69.277 14.9733 69.4603 15.04 69.7003 15.04C69.9803 15.04 70.2136 14.9667 70.4003 14.82L70.7503 15.71Z" fill="white"/>
</svg>
