<svg width="28" height="37" viewBox="0 0 28 37" fill="none" xmlns="http://www.w3.org/2000/svg">
<path d="M22.366 21.882C22.294 21.1749 22.2167 20.4633 22.1168 19.7607C22.0142 19.0315 21.9143 18.3005 21.7568 17.581C21.4658 16.2381 21.1521 14.9002 20.8155 13.5673C20.6854 12.9152 20.4739 12.2814 20.1856 11.6802C19.971 11.2484 19.6358 10.8853 19.2192 10.6335C18.8025 10.3817 18.3215 10.2515 17.8323 10.258C17.136 10.2567 16.446 10.3863 15.7993 10.6399C15.6131 10.7062 15.4394 10.7946 15.2531 10.8724L15.2738 10.9104C15.5177 10.8944 15.7606 10.8662 16.0045 10.8644C16.2555 10.8533 16.507 10.8672 16.7551 10.9059C16.9398 10.9202 17.1193 10.973 17.2815 11.0609C17.4437 11.1488 17.585 11.2698 17.6958 11.4156C17.8065 11.5615 17.8843 11.729 17.9238 11.9067C17.9634 12.0845 17.9637 12.2686 17.925 12.4466C17.88 12.9442 17.7882 13.4365 17.7126 13.9315C17.6226 14.5148 17.5605 15.1044 17.4336 15.6798C17.1756 16.8536 16.8976 18.0227 16.5994 19.187C16.2223 20.6294 15.7513 22.0465 15.1892 23.4296C14.7951 24.4099 14.3739 25.3821 13.9176 26.3358C13.4803 27.2524 12.9916 28.146 12.5111 29.0423C12.1664 29.6858 11.7704 30.3036 11.4482 30.9568C11.0304 31.741 10.8606 32.6298 10.9605 33.5094C11.0238 34.0648 11.2371 34.5934 11.5782 35.0406C11.9193 35.4879 12.3759 35.8375 12.9007 36.0532C13.5221 36.328 14.1926 36.4792 14.8738 36.4982C15.5549 36.5172 16.2332 36.4035 16.8693 36.1637C18.3202 35.6644 19.5632 34.7095 20.406 33.4467C21.0603 32.4661 21.5345 31.3805 21.8072 30.2391C22.2516 28.5104 22.4738 26.7338 22.4686 24.9508C22.474 24.3445 22.4524 23.7381 22.4317 23.1318C22.429 22.7181 22.4083 22.3 22.366 21.882Z" fill="#008E58"/>
<path d="M13.9258 15.9386C14.5384 15.9044 15.1465 15.8156 15.7427 15.6735C16.1421 15.5852 16.5067 15.3846 16.792 15.0963C16.9214 14.9742 17.016 14.8209 17.0662 14.6517C17.1164 14.4825 17.1205 14.3033 17.0782 14.132C16.9913 13.8192 16.8766 13.5146 16.7353 13.2216C16.6202 13.0272 16.4877 12.8432 16.3394 12.6718L16.2746 12.7036C16.2926 12.792 16.3097 12.8804 16.3295 12.9688C16.4013 13.2449 16.3942 13.5352 16.3088 13.8076C16.2517 13.9445 16.1485 14.058 16.0165 14.1292C15.8846 14.2005 15.7317 14.2252 15.5834 14.1992C15.0381 14.056 14.4801 13.9481 13.9501 13.7634C12.6587 13.3016 11.4017 12.7517 10.1884 12.1176C9.03697 11.5447 7.93431 10.8817 6.89113 10.1351C6.08661 9.54553 5.30909 8.91796 4.53876 8.2851C4.09422 7.88961 3.57122 7.58868 3.0026 7.40122C2.57607 7.26539 2.11645 7.26738 1.69115 7.40688C1.26585 7.54639 0.897244 7.81608 0.639411 8.17639C0.359569 8.56019 0.165246 8.99761 0.0691077 9.46014C-0.0270301 9.92266 -0.0228187 10.3999 0.0814662 10.8607C0.208016 11.5069 0.473407 12.1191 0.859969 12.6565C1.24653 13.194 1.74537 13.6442 2.32316 13.9773C3.3174 14.5937 4.41153 15.0388 5.55837 15.2934C6.42589 15.5002 7.30601 15.6735 8.18883 15.8016C8.99967 15.9193 9.81656 15.9925 10.6357 16.0208C11.733 16.0658 12.8322 16.0383 13.9258 15.9386Z" fill="#008E58"/>
<path d="M25.9864 1.42875C25.451 1.01769 24.827 0.732295 24.1621 0.594421C23.4971 0.456546 22.8089 0.46982 22.15 0.633236C21.182 0.862525 20.2647 1.2633 19.4431 1.81588C18.4304 2.4658 17.4923 3.22149 16.6453 4.06977C16.0648 4.63015 15.515 5.21884 14.9669 5.81457C14.1717 6.68943 13.4452 7.62222 12.7936 8.60497C12.2511 9.28815 11.8724 10.0827 11.6858 10.9296C11.6386 11.1628 11.6623 11.4045 11.754 11.6245C11.8457 11.8446 12.0013 12.0333 12.2015 12.167C12.6481 12.4142 13.153 12.5419 13.6656 12.5374C13.7609 12.5388 13.8562 12.5343 13.9509 12.5241L13.9563 12.4781C13.7511 12.3615 13.5351 12.2598 13.3417 12.1246C13.2382 12.0749 13.1483 12.0019 13.0793 11.9113C13.0102 11.8208 12.9641 11.7155 12.9447 11.6041C12.9252 11.4926 12.9331 11.3782 12.9675 11.2703C13.002 11.1624 13.0621 11.0641 13.1428 10.9835C13.2566 10.8416 13.3913 10.7171 13.5424 10.614C14.3172 10.1341 15.0884 9.64176 15.8866 9.19982C16.9296 8.62252 18.0066 8.10659 19.1119 7.65479C20.7755 6.97622 22.5021 6.45762 24.2676 6.10624C24.861 6.02205 25.4378 5.84854 25.9774 5.59182C26.3751 5.41384 26.7076 5.1202 26.9298 4.75061C27.1521 4.38103 27.2534 3.9533 27.2202 3.5253C27.1772 3.11 27.0451 2.70838 26.8324 2.34697C26.6197 1.98556 26.3314 1.6726 25.9864 1.42875Z" fill="#008E58"/>
</svg>
