<svg width="19" height="24" viewBox="0 0 19 24" fill="none" xmlns="http://www.w3.org/2000/svg">
    <path d="M15.337 14.254c-.048-.471-.1-.945-.166-1.414-.068-.486-.135-.973-.24-1.453a80.892 80.892 0 0 0-.628-2.676 5.311 5.311 0 0 0-.42-1.258 1.7 1.7 0 0 0-.644-.698 1.743 1.743 0 0 0-.924-.25c-.465 0-.925.086-1.356.255-.124.044-.24.103-.364.155l.014.025c.163-.01.325-.03.487-.03a2.52 2.52 0 0 1 .5.027.878.878 0 0 1 .628.34.843.843 0 0 1 .152.687c-.03.332-.09.66-.141.99-.06.389-.102.782-.186 1.165a69.64 69.64 0 0 1-.556 2.339 22.897 22.897 0 0 1-.94 2.828 33.149 33.149 0 0 1-.848 1.938c-.292.61-.617 1.206-.938 1.804-.23.429-.494.84-.708 1.276a2.917 2.917 0 0 0-.326 1.702c.043.37.185.723.412 1.02.228.299.532.532.882.676a3.494 3.494 0 0 0 2.646.073 4.652 4.652 0 0 0 2.357-1.81 6.63 6.63 0 0 0 .935-2.14c.296-1.152.444-2.336.44-3.525.004-.404-.01-.808-.024-1.213a8.86 8.86 0 0 0-.044-.833z" fill="#fff"/>
    <path d="M9.71 10.293a6.873 6.873 0 0 0 1.21-.177c.267-.059.51-.193.7-.385a.67.67 0 0 0 .191-.643 3.647 3.647 0 0 0-.228-.607 2.533 2.533 0 0 0-.264-.366l-.044.021.037.177c.048.184.043.377-.014.56a.434.434 0 0 1-.194.213.446.446 0 0 1-.29.047c-.363-.095-.735-.167-1.088-.29a19.827 19.827 0 0 1-2.508-1.098A16.095 16.095 0 0 1 5.02 6.424 36.073 36.073 0 0 1 3.452 5.19a2.912 2.912 0 0 0-1.024-.589c-.285-.09-.591-.09-.875.004-.283.093-.53.273-.7.513a2.22 2.22 0 0 0-.373 1.79c.084.43.261.838.52 1.197.257.358.59.658.975.88a6.953 6.953 0 0 0 2.156.878c.579.138 1.165.253 1.754.338.54.079 1.085.128 1.631.147.732.03 1.465.011 2.194-.055z" fill="#fff"/>
    <path d="M17.749.62a3.024 3.024 0 0 0-2.557-.53 5.51 5.51 0 0 0-1.806.787c-.675.434-1.3.937-1.865 1.503-.387.373-.753.766-1.119 1.163a15.504 15.504 0 0 0-1.448 1.86 3.81 3.81 0 0 0-.739 1.55.794.794 0 0 0 .344.825 1.98 1.98 0 0 0 1.166.238l.004-.03c-.137-.078-.281-.146-.41-.236a.482.482 0 0 1-.265-.347.467.467 0 0 1 .132-.414c.076-.095.166-.178.267-.246.516-.32 1.03-.648 1.563-.943a20.297 20.297 0 0 1 2.15-1.03 18.834 18.834 0 0 1 3.437-1.033c.395-.056.78-.171 1.14-.342.265-.12.487-.315.635-.561.148-.247.215-.532.193-.817a1.945 1.945 0 0 0-.258-.786 1.98 1.98 0 0 0-.564-.612z" fill="#fff"/>
</svg>
