<svg width="60" height="60" viewBox="0 0 60 60" fill="none" xmlns="http://www.w3.org/2000/svg">
<path d="M16.0673 9.10893L9.15705 7.22431L31.4583 0.942261L38.8397 3.14098L16.0673 9.10893Z" fill="#8B95A5"/>
<path d="M29.8878 12.8782L21.4071 10.5224L43.7083 4.39739L51.5609 6.91021L29.8878 12.8782Z" fill="#8B95A5"/>
<path d="M30.8301 39.5769V13.8205L51.5609 8.00957V33.923L30.8301 39.5769Z" fill="#8B95A5"/>
<path d="M9 33.923V8.16662L15.4391 9.89418V19.3173L19.8365 20.5737V10.9935L29.7308 13.8205V39.4198L9 33.923Z" fill="#8B95A5"/>
<path d="M49.8053 30.8619C49.7902 30.7139 49.774 30.5649 49.7531 30.4177C49.7316 30.265 49.7107 30.112 49.6777 29.9613C49.6168 29.6801 49.5511 29.3999 49.4806 29.1208C49.4534 28.9843 49.4091 28.8516 49.3487 28.7257C49.3038 28.6352 49.2336 28.5592 49.1463 28.5065C49.0591 28.4538 48.9584 28.4265 48.8559 28.4279C48.7101 28.4276 48.5656 28.4547 48.4302 28.5078C48.3912 28.5217 48.3548 28.5402 48.3158 28.5565L48.3202 28.5645C48.3712 28.5611 48.4221 28.5552 48.4732 28.5548C48.5257 28.5525 48.5784 28.5554 48.6303 28.5635C48.669 28.5665 48.7066 28.5776 48.7406 28.596C48.7746 28.6144 48.8041 28.6397 48.8273 28.6703C48.8505 28.7008 48.8668 28.7359 48.8751 28.7731C48.8834 28.8103 48.8834 28.8489 48.8753 28.8861C48.8659 28.9904 48.8467 29.0934 48.8309 29.1971C48.812 29.3192 48.799 29.4427 48.7724 29.5632C48.7184 29.809 48.6602 30.0538 48.5977 30.2976C48.5188 30.5997 48.4201 30.8964 48.3025 31.186C48.2199 31.3913 48.1317 31.5949 48.0362 31.7946C47.9446 31.9865 47.8423 32.1736 47.7416 32.3613C47.6695 32.4961 47.5866 32.6254 47.5191 32.7622C47.4316 32.9264 47.396 33.1126 47.417 33.2967C47.4302 33.413 47.4749 33.5237 47.5463 33.6174C47.6177 33.711 47.7133 33.7842 47.8232 33.8294C47.9534 33.887 48.0938 33.9186 48.2364 33.9226C48.379 33.9266 48.5211 33.9028 48.6543 33.8526C48.9581 33.748 49.2184 33.5481 49.3949 33.2836C49.5319 33.0783 49.6312 32.8509 49.6883 32.6119C49.7813 32.2499 49.8279 31.8779 49.8268 31.5046C49.8279 31.3776 49.8234 31.2506 49.819 31.1237C49.8185 31.037 49.8142 30.9495 49.8053 30.8619Z" fill="white"/>
<path d="M48.0379 29.6176C48.1662 29.6104 48.2935 29.5919 48.4183 29.5621C48.502 29.5436 48.5783 29.5016 48.6381 29.4412C48.6652 29.4157 48.685 29.3836 48.6955 29.3481C48.706 29.3127 48.7069 29.2752 48.698 29.2393C48.6798 29.1738 48.6558 29.11 48.6262 29.0487C48.6021 29.0079 48.5743 28.9694 48.5433 28.9335L48.5297 28.9402C48.5335 28.9587 48.5371 28.9772 48.5412 28.9957C48.5563 29.0535 48.5548 29.1143 48.5369 29.1714C48.5249 29.2 48.5033 29.2238 48.4757 29.2387C48.448 29.2536 48.416 29.2588 48.385 29.2534C48.2708 29.2234 48.154 29.2008 48.043 29.1621C47.7725 29.0654 47.5093 28.9503 47.2553 28.8175C47.0142 28.6975 46.7833 28.5587 46.5648 28.4023C46.3963 28.2789 46.2335 28.1475 46.0722 28.0149C45.9791 27.9321 45.8696 27.8691 45.7505 27.8299C45.6612 27.8014 45.565 27.8018 45.4759 27.831C45.3869 27.8603 45.3097 27.9167 45.2557 27.9922C45.1971 28.0726 45.1564 28.1641 45.1363 28.261C45.1161 28.3579 45.117 28.4578 45.1389 28.5543C45.1654 28.6896 45.2209 28.8178 45.3019 28.9303C45.3828 29.0429 45.4873 29.1372 45.6083 29.2069C45.8165 29.336 46.0456 29.4292 46.2857 29.4825C46.4674 29.5258 46.6517 29.5621 46.8365 29.5889C47.0063 29.6136 47.1774 29.6289 47.3489 29.6348C47.5787 29.6442 47.8089 29.6385 48.0379 29.6176Z" fill="white"/>
<path d="M50.5634 26.5791C50.4513 26.493 50.3206 26.4332 50.1814 26.4043C50.0422 26.3755 49.898 26.3783 49.7601 26.4125C49.5574 26.4605 49.3653 26.5444 49.1932 26.6601C48.9812 26.7962 48.7847 26.9545 48.6074 27.1321C48.4858 27.2494 48.3707 27.3727 48.2559 27.4974C48.0894 27.6806 47.9373 27.876 47.8008 28.0818C47.6872 28.2248 47.6079 28.3912 47.5688 28.5685C47.5589 28.6174 47.5639 28.668 47.5831 28.7141C47.6023 28.7601 47.6349 28.7997 47.6768 28.8277C47.7703 28.8794 47.8761 28.9062 47.9834 28.9052C48.0034 28.9055 48.0233 28.9046 48.0432 28.9024L48.0443 28.8928C48.0013 28.8684 47.9561 28.8471 47.9156 28.8188C47.8939 28.8084 47.8751 28.7931 47.8606 28.7741C47.8462 28.7552 47.8365 28.7331 47.8324 28.7098C47.8284 28.6864 47.83 28.6625 47.8372 28.6399C47.8444 28.6173 47.857 28.5967 47.8739 28.5798C47.8978 28.5501 47.926 28.524 47.9576 28.5025C48.1199 28.402 48.2813 28.2989 48.4485 28.2063C48.6669 28.0854 48.8924 27.9774 49.1239 27.8828C49.4722 27.7407 49.8338 27.6321 50.2035 27.5585C50.3278 27.5409 50.4485 27.5046 50.5615 27.4508C50.6448 27.4135 50.7144 27.352 50.761 27.2747C50.8075 27.1973 50.8287 27.1077 50.8218 27.0181C50.8128 26.9311 50.7851 26.847 50.7406 26.7713C50.696 26.6956 50.6356 26.6301 50.5634 26.5791Z" fill="white"/>
<path d="M17.7969 43.3125V49H16.8164L14.2656 44.9258V49H13.2852V43.3125H14.2656L16.8242 47.3945V43.3125H17.7969ZM18.6914 46.9336V46.8438C18.6914 46.5391 18.7357 46.2565 18.8242 45.9961C18.9128 45.7331 19.0404 45.5052 19.207 45.3125C19.3763 45.1172 19.582 44.9661 19.8242 44.8594C20.069 44.75 20.3451 44.6953 20.6523 44.6953C20.9622 44.6953 21.2383 44.75 21.4805 44.8594C21.7253 44.9661 21.9323 45.1172 22.1016 45.3125C22.2708 45.5052 22.3997 45.7331 22.4883 45.9961C22.5768 46.2565 22.6211 46.5391 22.6211 46.8438V46.9336C22.6211 47.2383 22.5768 47.5208 22.4883 47.7812C22.3997 48.0417 22.2708 48.2695 22.1016 48.4648C21.9323 48.6576 21.7266 48.8086 21.4844 48.918C21.2422 49.0247 20.9674 49.0781 20.6602 49.0781C20.3503 49.0781 20.0729 49.0247 19.8281 48.918C19.5859 48.8086 19.3802 48.6576 19.2109 48.4648C19.0417 48.2695 18.9128 48.0417 18.8242 47.7812C18.7357 47.5208 18.6914 47.2383 18.6914 46.9336ZM19.6328 46.8438V46.9336C19.6328 47.1237 19.6523 47.3034 19.6914 47.4727C19.7305 47.6419 19.7917 47.7904 19.875 47.918C19.9583 48.0456 20.0651 48.1458 20.1953 48.2188C20.3255 48.2917 20.4805 48.3281 20.6602 48.3281C20.8346 48.3281 20.9857 48.2917 21.1133 48.2188C21.2435 48.1458 21.3503 48.0456 21.4336 47.918C21.5169 47.7904 21.5781 47.6419 21.6172 47.4727C21.6589 47.3034 21.6797 47.1237 21.6797 46.9336V46.8438C21.6797 46.6562 21.6589 46.4792 21.6172 46.3125C21.5781 46.1432 21.5156 45.9935 21.4297 45.8633C21.3464 45.7331 21.2396 45.6315 21.1094 45.5586C20.9818 45.4831 20.8294 45.4453 20.6523 45.4453C20.4753 45.4453 20.3216 45.4831 20.1914 45.5586C20.0638 45.6315 19.9583 45.7331 19.875 45.8633C19.7917 45.9935 19.7305 46.1432 19.6914 46.3125C19.6523 46.4792 19.6328 46.6562 19.6328 46.8438ZM26.543 43.3125V49H25.5625V43.3125H26.543ZM28.6094 45.6328V49H27.668V44.7734H28.5547L28.6094 45.6328ZM28.457 46.7305L28.1367 46.7266C28.1367 46.4349 28.1732 46.1654 28.2461 45.918C28.319 45.6706 28.4258 45.4557 28.5664 45.2734C28.707 45.0885 28.8815 44.9466 29.0898 44.8477C29.3008 44.7461 29.5443 44.6953 29.8203 44.6953C30.013 44.6953 30.1888 44.724 30.3477 44.7812C30.5091 44.8359 30.6484 44.9232 30.7656 45.043C30.8854 45.1628 30.9766 45.3164 31.0391 45.5039C31.1042 45.6914 31.1367 45.918 31.1367 46.1836V49H30.1953V46.2656C30.1953 46.0599 30.1641 45.8984 30.1016 45.7812C30.0417 45.6641 29.9544 45.5807 29.8398 45.5312C29.7279 45.4792 29.5938 45.4531 29.4375 45.4531C29.2604 45.4531 29.1094 45.487 28.9844 45.5547C28.862 45.6224 28.7617 45.7148 28.6836 45.832C28.6055 45.9492 28.5482 46.0846 28.5117 46.2383C28.4753 46.3919 28.457 46.556 28.457 46.7305ZM31.0781 46.4805L30.6367 46.5781C30.6367 46.3229 30.6719 46.082 30.7422 45.8555C30.8151 45.6263 30.9206 45.4258 31.0586 45.2539C31.1992 45.0794 31.3724 44.9427 31.5781 44.8438C31.7839 44.7448 32.0195 44.6953 32.2852 44.6953C32.5013 44.6953 32.694 44.7253 32.8633 44.7852C33.0352 44.8424 33.181 44.9336 33.3008 45.0586C33.4206 45.1836 33.5117 45.3464 33.5742 45.5469C33.6367 45.7448 33.668 45.9844 33.668 46.2656V49H32.7227V46.2617C32.7227 46.0482 32.6914 45.8828 32.6289 45.7656C32.569 45.6484 32.4831 45.5677 32.3711 45.5234C32.2591 45.4766 32.125 45.4531 31.9688 45.4531C31.8229 45.4531 31.694 45.4805 31.582 45.5352C31.4727 45.5872 31.3802 45.6615 31.3047 45.7578C31.2292 45.8516 31.1719 45.9596 31.1328 46.082C31.0964 46.2044 31.0781 46.3372 31.0781 46.4805ZM37.0195 48.1523V46.1367C37.0195 45.9857 36.9922 45.8555 36.9375 45.7461C36.8828 45.6367 36.7995 45.5521 36.6875 45.4922C36.5781 45.4323 36.4401 45.4023 36.2734 45.4023C36.1198 45.4023 35.987 45.4284 35.875 45.4805C35.763 45.5326 35.6758 45.6029 35.6133 45.6914C35.5508 45.7799 35.5195 45.8802 35.5195 45.9922H34.582C34.582 45.8255 34.6224 45.6641 34.7031 45.5078C34.7839 45.3516 34.901 45.2122 35.0547 45.0898C35.2083 44.9674 35.3919 44.8711 35.6055 44.8008C35.819 44.7305 36.0586 44.6953 36.3242 44.6953C36.6419 44.6953 36.9232 44.7487 37.168 44.8555C37.4154 44.9622 37.6094 45.1237 37.75 45.3398C37.8932 45.5534 37.9648 45.8216 37.9648 46.1445V48.0234C37.9648 48.2161 37.9779 48.3893 38.0039 48.543C38.0326 48.694 38.0729 48.8255 38.125 48.9375V49H37.1602C37.1159 48.8984 37.0807 48.7695 37.0547 48.6133C37.0312 48.4544 37.0195 48.3008 37.0195 48.1523ZM37.1562 46.4297L37.1641 47.0117H36.4883C36.3138 47.0117 36.1602 47.0286 36.0273 47.0625C35.8945 47.0938 35.7839 47.1406 35.6953 47.2031C35.6068 47.2656 35.5404 47.3411 35.4961 47.4297C35.4518 47.5182 35.4297 47.6185 35.4297 47.7305C35.4297 47.8424 35.4557 47.9453 35.5078 48.0391C35.5599 48.1302 35.6354 48.2018 35.7344 48.2539C35.8359 48.306 35.9583 48.332 36.1016 48.332C36.2943 48.332 36.4622 48.293 36.6055 48.2148C36.7513 48.1341 36.8659 48.0365 36.9492 47.9219C37.0326 47.8047 37.0768 47.694 37.082 47.5898L37.3867 48.0078C37.3555 48.1146 37.3021 48.2292 37.2266 48.3516C37.151 48.474 37.0521 48.5911 36.9297 48.7031C36.8099 48.8125 36.6654 48.9023 36.4961 48.9727C36.3294 49.043 36.1367 49.0781 35.918 49.0781C35.6419 49.0781 35.3958 49.0234 35.1797 48.9141C34.9635 48.8021 34.7943 48.6523 34.6719 48.4648C34.5495 48.2747 34.4883 48.0599 34.4883 47.8203C34.4883 47.5964 34.5299 47.3984 34.6133 47.2266C34.6992 47.0521 34.8242 46.9062 34.9883 46.7891C35.1549 46.6719 35.3581 46.5833 35.5977 46.5234C35.8372 46.4609 36.1107 46.4297 36.418 46.4297H37.1562ZM41.6562 44.7734H42.5117V48.8828C42.5117 49.263 42.431 49.5859 42.2695 49.8516C42.1081 50.1172 41.8828 50.319 41.5938 50.457C41.3047 50.5977 40.9701 50.668 40.5898 50.668C40.4284 50.668 40.2487 50.6445 40.0508 50.5977C39.8555 50.5508 39.6654 50.4753 39.4805 50.3711C39.2982 50.2695 39.1458 50.1354 39.0234 49.9688L39.4648 49.4141C39.6159 49.5938 39.7826 49.7253 39.9648 49.8086C40.1471 49.8919 40.3385 49.9336 40.5391 49.9336C40.7552 49.9336 40.9388 49.8932 41.0898 49.8125C41.2435 49.7344 41.362 49.6185 41.4453 49.4648C41.5286 49.3112 41.5703 49.1237 41.5703 48.9023V45.7305L41.6562 44.7734ZM38.7852 46.9336V46.8516C38.7852 46.5312 38.8242 46.2396 38.9023 45.9766C38.9805 45.7109 39.0924 45.4831 39.2383 45.293C39.3841 45.1003 39.5612 44.9531 39.7695 44.8516C39.9779 44.7474 40.2135 44.6953 40.4766 44.6953C40.75 44.6953 40.9831 44.7448 41.1758 44.8438C41.3711 44.9427 41.5339 45.0846 41.6641 45.2695C41.7943 45.4518 41.8958 45.6706 41.9688 45.9258C42.0443 46.1784 42.1003 46.4596 42.1367 46.7695V47.0312C42.1029 47.3333 42.0456 47.6094 41.9648 47.8594C41.8841 48.1094 41.7773 48.3255 41.6445 48.5078C41.5117 48.6901 41.3477 48.8307 41.1523 48.9297C40.9596 49.0286 40.7318 49.0781 40.4688 49.0781C40.2109 49.0781 39.9779 49.0247 39.7695 48.918C39.5638 48.8112 39.3867 48.6615 39.2383 48.4688C39.0924 48.276 38.9805 48.0495 38.9023 47.7891C38.8242 47.526 38.7852 47.2409 38.7852 46.9336ZM39.7266 46.8516V46.9336C39.7266 47.1263 39.7448 47.306 39.7812 47.4727C39.8203 47.6393 39.8789 47.7865 39.957 47.9141C40.0378 48.0391 40.1393 48.138 40.2617 48.2109C40.3867 48.2812 40.5339 48.3164 40.7031 48.3164C40.9245 48.3164 41.1055 48.2695 41.2461 48.1758C41.3893 48.082 41.4987 47.9557 41.5742 47.7969C41.6523 47.6354 41.707 47.4557 41.7383 47.2578V46.5508C41.7227 46.3971 41.6901 46.2539 41.6406 46.1211C41.5938 45.9883 41.5299 45.8724 41.4492 45.7734C41.3685 45.6719 41.2669 45.5938 41.1445 45.5391C41.0221 45.4818 40.8776 45.4531 40.7109 45.4531C40.5417 45.4531 40.3945 45.4896 40.2695 45.5625C40.1445 45.6354 40.0417 45.7357 39.9609 45.8633C39.8828 45.9909 39.8242 46.1393 39.7852 46.3086C39.7461 46.4779 39.7266 46.6589 39.7266 46.8516ZM45.3516 49.0781C45.0391 49.0781 44.7565 49.0273 44.5039 48.9258C44.2539 48.8216 44.0404 48.6771 43.8633 48.4922C43.6888 48.3073 43.5547 48.0898 43.4609 47.8398C43.3672 47.5898 43.3203 47.3203 43.3203 47.0312V46.875C43.3203 46.5443 43.3685 46.2448 43.4648 45.9766C43.5612 45.7083 43.6953 45.4792 43.8672 45.2891C44.0391 45.0964 44.2422 44.9492 44.4766 44.8477C44.7109 44.7461 44.9648 44.6953 45.2383 44.6953C45.5404 44.6953 45.8047 44.7461 46.0312 44.8477C46.2578 44.9492 46.4453 45.0924 46.5938 45.2773C46.7448 45.4596 46.8568 45.6771 46.9297 45.9297C47.0052 46.1823 47.043 46.4609 47.043 46.7656V47.168H43.7773V46.4922H46.1133V46.418C46.1081 46.2487 46.0742 46.0898 46.0117 45.9414C45.9518 45.793 45.8594 45.6732 45.7344 45.582C45.6094 45.4909 45.4427 45.4453 45.2344 45.4453C45.0781 45.4453 44.9388 45.4792 44.8164 45.5469C44.6966 45.612 44.5964 45.707 44.5156 45.832C44.4349 45.957 44.3724 46.1081 44.3281 46.2852C44.2865 46.4596 44.2656 46.6562 44.2656 46.875V47.0312C44.2656 47.2161 44.2904 47.388 44.3398 47.5469C44.3919 47.7031 44.4674 47.8398 44.5664 47.957C44.6654 48.0742 44.7852 48.1667 44.9258 48.2344C45.0664 48.2995 45.2266 48.332 45.4062 48.332C45.6328 48.332 45.8346 48.2865 46.0117 48.1953C46.1888 48.1042 46.3424 47.9753 46.4727 47.8086L46.9688 48.2891C46.8776 48.4219 46.7591 48.5495 46.6133 48.6719C46.4674 48.7917 46.2891 48.8893 46.0781 48.9648C45.8698 49.0404 45.6276 49.0781 45.3516 49.0781ZM16.5195 53.0703L14.8203 58H13.793L15.9336 52.3125H16.5898L16.5195 53.0703ZM17.9414 58L16.2383 53.0703L16.1641 52.3125H16.8242L18.9727 58H17.9414ZM17.8594 55.8906V56.668H14.7656V55.8906H17.8594ZM20.6953 57.2539L21.7305 53.7734H22.707L21.2383 58H20.6289L20.6953 57.2539ZM19.9023 53.7734L20.957 57.2695L21.0078 58H20.3984L18.9219 53.7734H19.9023ZM25.6094 57.1523V55.1367C25.6094 54.9857 25.582 54.8555 25.5273 54.7461C25.4727 54.6367 25.3893 54.5521 25.2773 54.4922C25.168 54.4323 25.0299 54.4023 24.8633 54.4023C24.7096 54.4023 24.5768 54.4284 24.4648 54.4805C24.3529 54.5326 24.2656 54.6029 24.2031 54.6914C24.1406 54.7799 24.1094 54.8802 24.1094 54.9922H23.1719C23.1719 54.8255 23.2122 54.6641 23.293 54.5078C23.3737 54.3516 23.4909 54.2122 23.6445 54.0898C23.7982 53.9674 23.9818 53.8711 24.1953 53.8008C24.4089 53.7305 24.6484 53.6953 24.9141 53.6953C25.2318 53.6953 25.513 53.7487 25.7578 53.8555C26.0052 53.9622 26.1992 54.1237 26.3398 54.3398C26.4831 54.5534 26.5547 54.8216 26.5547 55.1445V57.0234C26.5547 57.2161 26.5677 57.3893 26.5938 57.543C26.6224 57.694 26.6628 57.8255 26.7148 57.9375V58H25.75C25.7057 57.8984 25.6706 57.7695 25.6445 57.6133C25.6211 57.4544 25.6094 57.3008 25.6094 57.1523ZM25.7461 55.4297L25.7539 56.0117H25.0781C24.9036 56.0117 24.75 56.0286 24.6172 56.0625C24.4844 56.0938 24.3737 56.1406 24.2852 56.2031C24.1966 56.2656 24.1302 56.3411 24.0859 56.4297C24.0417 56.5182 24.0195 56.6185 24.0195 56.7305C24.0195 56.8424 24.0456 56.9453 24.0977 57.0391C24.1497 57.1302 24.2253 57.2018 24.3242 57.2539C24.4258 57.306 24.5482 57.332 24.6914 57.332C24.8841 57.332 25.0521 57.293 25.1953 57.2148C25.3411 57.1341 25.4557 57.0365 25.5391 56.9219C25.6224 56.8047 25.6667 56.694 25.6719 56.5898L25.9766 57.0078C25.9453 57.1146 25.8919 57.2292 25.8164 57.3516C25.7409 57.474 25.6419 57.5911 25.5195 57.7031C25.3997 57.8125 25.2552 57.9023 25.0859 57.9727C24.9193 58.043 24.7266 58.0781 24.5078 58.0781C24.2318 58.0781 23.9857 58.0234 23.7695 57.9141C23.5534 57.8021 23.3841 57.6523 23.2617 57.4648C23.1393 57.2747 23.0781 57.0599 23.0781 56.8203C23.0781 56.5964 23.1198 56.3984 23.2031 56.2266C23.2891 56.0521 23.4141 55.9062 23.5781 55.7891C23.7448 55.6719 23.9479 55.5833 24.1875 55.5234C24.4271 55.4609 24.7005 55.4297 25.0078 55.4297H25.7461ZM28.5469 53.7734V58H27.6016V53.7734H28.5469ZM27.5391 52.6641C27.5391 52.5208 27.5859 52.4023 27.6797 52.3086C27.776 52.2122 27.9089 52.1641 28.0781 52.1641C28.2448 52.1641 28.3763 52.2122 28.4727 52.3086C28.569 52.4023 28.6172 52.5208 28.6172 52.6641C28.6172 52.8047 28.569 52.9219 28.4727 53.0156C28.3763 53.1094 28.2448 53.1562 28.0781 53.1562C27.9089 53.1562 27.776 53.1094 27.6797 53.0156C27.5859 52.9219 27.5391 52.8047 27.5391 52.6641ZM30.5859 52V58H29.6406V52H30.5859ZM34 57.1523V55.1367C34 54.9857 33.9727 54.8555 33.918 54.7461C33.8633 54.6367 33.7799 54.5521 33.668 54.4922C33.5586 54.4323 33.4206 54.4023 33.2539 54.4023C33.1003 54.4023 32.9674 54.4284 32.8555 54.4805C32.7435 54.5326 32.6562 54.6029 32.5938 54.6914C32.5312 54.7799 32.5 54.8802 32.5 54.9922H31.5625C31.5625 54.8255 31.6029 54.6641 31.6836 54.5078C31.7643 54.3516 31.8815 54.2122 32.0352 54.0898C32.1888 53.9674 32.3724 53.8711 32.5859 53.8008C32.7995 53.7305 33.0391 53.6953 33.3047 53.6953C33.6224 53.6953 33.9036 53.7487 34.1484 53.8555C34.3958 53.9622 34.5898 54.1237 34.7305 54.3398C34.8737 54.5534 34.9453 54.8216 34.9453 55.1445V57.0234C34.9453 57.2161 34.9583 57.3893 34.9844 57.543C35.013 57.694 35.0534 57.8255 35.1055 57.9375V58H34.1406C34.0964 57.8984 34.0612 57.7695 34.0352 57.6133C34.0117 57.4544 34 57.3008 34 57.1523ZM34.1367 55.4297L34.1445 56.0117H33.4688C33.2943 56.0117 33.1406 56.0286 33.0078 56.0625C32.875 56.0938 32.7643 56.1406 32.6758 56.2031C32.5872 56.2656 32.5208 56.3411 32.4766 56.4297C32.4323 56.5182 32.4102 56.6185 32.4102 56.7305C32.4102 56.8424 32.4362 56.9453 32.4883 57.0391C32.5404 57.1302 32.6159 57.2018 32.7148 57.2539C32.8164 57.306 32.9388 57.332 33.082 57.332C33.2747 57.332 33.4427 57.293 33.5859 57.2148C33.7318 57.1341 33.8464 57.0365 33.9297 56.9219C34.013 56.8047 34.0573 56.694 34.0625 56.5898L34.3672 57.0078C34.3359 57.1146 34.2826 57.2292 34.207 57.3516C34.1315 57.474 34.0326 57.5911 33.9102 57.7031C33.7904 57.8125 33.6458 57.9023 33.4766 57.9727C33.3099 58.043 33.1172 58.0781 32.8984 58.0781C32.6224 58.0781 32.3763 58.0234 32.1602 57.9141C31.944 57.8021 31.7747 57.6523 31.6523 57.4648C31.5299 57.2747 31.4688 57.0599 31.4688 56.8203C31.4688 56.5964 31.5104 56.3984 31.5938 56.2266C31.6797 56.0521 31.8047 55.9062 31.9688 55.7891C32.1354 55.6719 32.3385 55.5833 32.5781 55.5234C32.8177 55.4609 33.0911 55.4297 33.3984 55.4297H34.1367ZM35.9336 52H36.875V57.0977L36.7852 58H35.9336V52ZM39.6328 55.8477V55.9297C39.6328 56.2422 39.5977 56.5299 39.5273 56.793C39.4596 57.0534 39.3555 57.2799 39.2148 57.4727C39.0768 57.6654 38.9049 57.8151 38.6992 57.9219C38.4961 58.026 38.2604 58.0781 37.9922 58.0781C37.7292 58.0781 37.5 58.0286 37.3047 57.9297C37.1094 57.8307 36.9453 57.6901 36.8125 57.5078C36.6823 57.3255 36.5768 57.1081 36.4961 56.8555C36.4154 56.6029 36.3581 56.3242 36.3242 56.0195V55.7578C36.3581 55.4505 36.4154 55.1719 36.4961 54.9219C36.5768 54.6693 36.6823 54.4518 36.8125 54.2695C36.9453 54.0846 37.1081 53.9427 37.3008 53.8438C37.4961 53.7448 37.724 53.6953 37.9844 53.6953C38.2552 53.6953 38.4935 53.7474 38.6992 53.8516C38.9076 53.9557 39.0807 54.1042 39.2188 54.2969C39.3568 54.487 39.4596 54.7135 39.5273 54.9766C39.5977 55.2396 39.6328 55.5299 39.6328 55.8477ZM38.6914 55.9297V55.8477C38.6914 55.6576 38.6758 55.4792 38.6445 55.3125C38.6133 55.1432 38.5612 54.9948 38.4883 54.8672C38.418 54.7396 38.3216 54.6393 38.1992 54.5664C38.0794 54.4909 37.9297 54.4531 37.75 54.4531C37.5833 54.4531 37.4401 54.4818 37.3203 54.5391C37.2005 54.5964 37.1003 54.6745 37.0195 54.7734C36.9388 54.8724 36.875 54.987 36.8281 55.1172C36.7839 55.2474 36.7539 55.388 36.7383 55.5391V56.2461C36.7617 56.4414 36.8112 56.6211 36.8867 56.7852C36.9648 56.9466 37.0742 57.0768 37.2148 57.1758C37.3555 57.2721 37.5365 57.3203 37.7578 57.3203C37.9323 57.3203 38.0794 57.2852 38.1992 57.2148C38.319 57.1445 38.4141 57.0469 38.4844 56.9219C38.5573 56.7943 38.6094 56.6458 38.6406 56.4766C38.6745 56.3073 38.6914 56.125 38.6914 55.9297ZM41.4375 52V58H40.4922V52H41.4375ZM44.332 58.0781C44.0195 58.0781 43.737 58.0273 43.4844 57.9258C43.2344 57.8216 43.0208 57.6771 42.8438 57.4922C42.6693 57.3073 42.5352 57.0898 42.4414 56.8398C42.3477 56.5898 42.3008 56.3203 42.3008 56.0312V55.875C42.3008 55.5443 42.349 55.2448 42.4453 54.9766C42.5417 54.7083 42.6758 54.4792 42.8477 54.2891C43.0195 54.0964 43.2227 53.9492 43.457 53.8477C43.6914 53.7461 43.9453 53.6953 44.2188 53.6953C44.5208 53.6953 44.7852 53.7461 45.0117 53.8477C45.2383 53.9492 45.4258 54.0924 45.5742 54.2773C45.7253 54.4596 45.8372 54.6771 45.9102 54.9297C45.9857 55.1823 46.0234 55.4609 46.0234 55.7656V56.168H42.7578V55.4922H45.0938V55.418C45.0885 55.2487 45.0547 55.0898 44.9922 54.9414C44.9323 54.793 44.8398 54.6732 44.7148 54.582C44.5898 54.4909 44.4232 54.4453 44.2148 54.4453C44.0586 54.4453 43.9193 54.4792 43.7969 54.5469C43.6771 54.612 43.5768 54.707 43.4961 54.832C43.4154 54.957 43.3529 55.1081 43.3086 55.2852C43.2669 55.4596 43.2461 55.6562 43.2461 55.875V56.0312C43.2461 56.2161 43.2708 56.388 43.3203 56.5469C43.3724 56.7031 43.4479 56.8398 43.5469 56.957C43.6458 57.0742 43.7656 57.1667 43.9062 57.2344C44.0469 57.2995 44.207 57.332 44.3867 57.332C44.6133 57.332 44.8151 57.2865 44.9922 57.1953C45.1693 57.1042 45.3229 56.9753 45.4531 56.8086L45.9492 57.2891C45.8581 57.4219 45.7396 57.5495 45.5938 57.6719C45.4479 57.7917 45.2695 57.8893 45.0586 57.9648C44.8503 58.0404 44.6081 58.0781 44.332 58.0781Z" fill="#626B79"/>
</svg>
