<svg width="16" height="16" viewBox="0 0 16 16" fill="none" xmlns="http://www.w3.org/2000/svg">
    <path fill-rule="evenodd" clip-rule="evenodd" d="M7.52 6.354 5.873 8 7.52 9.647a.5.5 0 1 1-.707.707l-2-2a.5.5 0 0 1 0-.707l2-2a.5.5 0 1 1 .707.707z" fill="#fff"/>
    <path fill-rule="evenodd" clip-rule="evenodd" d="M2.5 1.333A1.167 1.167 0 0 0 1.333 2.5v11c0 .644.523 1.167 1.167 1.167h11a1.167 1.167 0 0 0 1.167-1.167v-11A1.167 1.167 0 0 0 13.5 1.333h-11zM2.333 2.5a.167.167 0 0 1 .167-.167H10v11.334H2.5a.166.166 0 0 1-.167-.167v-11zM11 13.667V2.334h2.5a.167.167 0 0 1 .167.166v11a.167.167 0 0 1-.167.167H11z" fill="#fff"/>
</svg>
