<svg width="16" height="17" viewBox="0 0 16 17" fill="none" xmlns="http://www.w3.org/2000/svg">
    <path fill-rule="evenodd" clip-rule="evenodd" d="M7.52 6.854 5.873 8.501l1.647 1.646a.5.5 0 1 1-.707.707l-2-2a.5.5 0 0 1 0-.707l2-2a.5.5 0 1 1 .707.707z" fill="#232933"/>
    <path fill-rule="evenodd" clip-rule="evenodd" d="M2.5 1.834a1.167 1.167 0 0 0-1.167 1.167v11c0 .644.523 1.166 1.167 1.166h11a1.167 1.167 0 0 0 1.166-1.166V3A1.167 1.167 0 0 0 13.5 1.834h-11zm-.167 1.167a.167.167 0 0 1 .167-.167H10v11.333H2.5a.166.166 0 0 1-.167-.166V3zM11 14.167V2.834h2.5a.166.166 0 0 1 .166.167v11a.166.166 0 0 1-.166.166H11z" fill="#232933"/>
</svg>
